<svg width="368" height="179" viewBox="0 0 368 179" fill="none" xmlns="http://www.w3.org/2000/svg">
<mask id="mask0_315_4281" style="mask-type:alpha" maskUnits="userSpaceOnUse" x="0" y="0" width="368" height="179">
<rect x="0.151855" y="0.867188" width="367.407" height="177.441" fill="#D9D9D9"/>
</mask>
<g mask="url(#mask0_315_4281)">
<path d="M345.177 216.542C348.188 213.495 350.961 210.222 353.472 206.752C351.248 195.375 336.347 199.434 336.347 199.434C336.347 199.434 361.799 178.229 359.133 164.353C356.467 150.478 329.914 147.871 329.914 147.871C329.914 147.871 326.174 98.985 318.391 99.1685C310.609 99.352 294.029 132.948 314.219 169.211C299.032 165.433 297.343 205.144 328.575 230.197C334.603 226.281 340.172 221.701 345.177 216.542Z" fill="white"/>
<path d="M59.8742 183.861C69.1463 141.279 42.415 112.448 34.5732 114.601C26.7313 116.755 37.7466 167.103 37.7466 167.103C37.7466 167.103 11.9652 177.681 13.4925 192.469C15.0199 207.257 46.8891 220.954 46.8891 220.954C46.8891 220.954 29.8724 221.37 32.0798 234.447V234.495C42.9061 239.309 55.6484 240.804 69.2866 240.432C85.2023 208.412 72.6975 176.202 59.8742 183.861Z" fill="white"/>
<path d="M254.83 169.552C266.881 114.206 232.135 76.724 221.946 79.5304C211.756 82.3368 226.048 147.77 226.048 147.77C226.048 147.77 192.538 161.521 194.524 180.751C196.51 199.98 237.932 217.78 237.932 217.78C237.932 217.78 221.109 218.19 218.713 229.583C235.039 233.614 251.559 238.725 268.009 241.116C287.239 200.164 271.242 159.746 254.83 169.552Z" fill="white"/>
<path d="M257.695 239.622C259.514 190.386 233.031 105.82 233.031 105.82" stroke="#CDE1F9" stroke-width="1.6191" stroke-linecap="round" stroke-linejoin="round"/>
<path d="M255.294 212.718C255.294 212.718 232.427 195.351 223.992 176.828" stroke="#CDE1F9" stroke-width="1.6191" stroke-linecap="round" stroke-linejoin="round"/>
<path d="M238.067 196.018C238.067 196.018 235.816 180.793 233.425 169.324" stroke="#CDE1F9" stroke-width="1.6191" stroke-linecap="round" stroke-linejoin="round"/>
<path d="M240.863 134.592C240.863 134.592 244.641 121.822 242.962 113.867" stroke="#CDE1F9" stroke-width="1.6191" stroke-linecap="round" stroke-linejoin="round"/>
<path d="M331.883 227.035C317.133 194.492 318.822 122.059 318.822 122.059" stroke="#CDE1F9" stroke-width="1.6191" stroke-linecap="round" stroke-linejoin="round"/>
<path d="M325.709 201.707C325.709 201.707 338.165 184.711 340.205 169.945" stroke="#CDE1F9" stroke-width="1.6191" stroke-linecap="round" stroke-linejoin="round"/>
<path d="M334.329 186.368C334.329 186.368 332.71 175.234 331.965 166.68" stroke="#CDE1F9" stroke-width="1.6191" stroke-linecap="round" stroke-linejoin="round"/>
<path d="M319.385 143.895C319.385 143.895 314.036 135.734 313.523 129.809" stroke="#CDE1F9" stroke-width="1.6191" stroke-linecap="round" stroke-linejoin="round"/>
<path d="M61.6937 244.423C66.6427 207.216 43.1011 134.805 43.1011 134.805" stroke="#CDE1F9" stroke-width="1.6191" stroke-linecap="round" stroke-linejoin="round"/>
<path d="M49.1245 156.962C49.1245 156.962 52.0173 147.14 50.7436 141.02" stroke="#CDE1F9" stroke-width="1.6191" stroke-linecap="round" stroke-linejoin="round"/>
<path d="M321.002 130.391C336.588 132.431 355.068 137.547 371.609 133.159" stroke="#9AC1FB" stroke-width="1.0794" stroke-linecap="round" stroke-linejoin="round"/>
<path d="M19.7256 171.173C12.4443 170.91 5.22627 169.72 -1.75439 167.633" stroke="#9AC1FB" stroke-width="1.0794" stroke-linecap="round" stroke-linejoin="round"/>
<path d="M23.5583 165.521C8.79217 165.521 -11.7757 158.667 -15.4673 155.504" stroke="#9AC1FB" stroke-width="1.0794" stroke-linecap="round" stroke-linejoin="round"/>
<path d="M281.766 130.873C252.142 112.486 232.222 111.563 202.511 124.24" stroke="#9AC1FB" stroke-width="1.0794" stroke-linecap="round" stroke-linejoin="round"/>
<path d="M348.233 1.07381H309.094C308.895 1.07423 308.703 1.00218 308.553 0.871098C308.403 0.740013 308.305 0.558855 308.279 0.361416C307.815 -3.74029 311.55 -4.76572 313.676 -3.48664C313.714 -3.46252 313.757 -3.44882 313.801 -3.44698C313.845 -3.44513 313.889 -3.4552 313.928 -3.47614C313.967 -3.49708 314 -3.52812 314.023 -3.56603C314.046 -3.60395 314.059 -3.64736 314.059 -3.69173C313.962 -10.9237 322.522 -12.9152 325.393 -7.00007C325.413 -6.95508 325.445 -6.91682 325.487 -6.88997C325.528 -6.86311 325.576 -6.84882 325.625 -6.84882C325.674 -6.84882 325.723 -6.86311 325.764 -6.88997C325.805 -6.91682 325.837 -6.95508 325.857 -7.00007C330.094 -17.3569 345.567 -16.1372 344.747 -3.42727C344.744 -3.39465 344.747 -3.36176 344.757 -3.3305C344.767 -3.29924 344.783 -3.27024 344.804 -3.24515C344.825 -3.22007 344.851 -3.1994 344.88 -3.18434C344.909 -3.16929 344.941 -3.16014 344.973 -3.15742C348.508 -2.839 349.07 -0.890686 349.086 0.258872C349.085 0.368707 349.061 0.477159 349.017 0.577885C348.974 0.678612 348.91 0.769587 348.831 0.845478C348.751 0.92137 348.658 0.980658 348.555 1.01987C348.452 1.05907 348.343 1.07741 348.233 1.07381Z" fill="#9AC1FB"/>
<path d="M108.54 32.1465C107.012 29.4103 103.143 28.3255 101.027 28.9407C98.9116 29.556 98.6526 34.818 93.4067 37.2359C91.2479 38.0832 92.6835 40.69 97.1846 37.9591C98.3125 37.2791 99.2084 36.6962 99.9208 36.1943C102.155 35.9784 102.787 38.2667 101.723 38.8928C100.66 39.5188 97.5138 41.8881 98.6795 42.8865C99.8453 43.885 102.792 40.8897 103.715 40.4795C104.638 40.0693 105.965 38.094 109.554 40.1287C111.951 41.397 110.51 34.2999 108.54 32.1465Z" fill="#9AC1FB"/>
<path d="M107.266 33.5362C105.739 30.7999 101.869 29.7152 99.7538 30.325C97.6382 30.9349 97.3791 36.2023 92.1332 38.6256C89.9745 39.4675 91.41 42.0743 95.9111 39.3488C100.412 36.6233 101.162 35.5169 101.637 34.6264" stroke="#121C2C" stroke-width="0.809548" stroke-linecap="round" stroke-linejoin="round"/>
<path d="M98.7767 37.6212C101.076 37.3406 101.524 39.6451 100.45 40.2927C99.3758 40.9404 96.2455 43.2881 97.4059 44.2865C98.5662 45.285 101.518 42.295 102.441 41.8794C103.364 41.4639 104.692 39.494 108.281 41.5286" stroke="#121C2C" stroke-width="0.809548" stroke-linecap="round" stroke-linejoin="round"/>
<path d="M98.6725 32.5234C97.6687 35.2867 95.9309 37.5157 94.3927 38.5303C92.8546 39.5449 93.8152 40.5056 95.4721 39.5557" stroke="#121C2C" stroke-width="0.809548" stroke-linecap="round" stroke-linejoin="round"/>
<path d="M93.0927 38.1149C92.2454 38.347 90.9339 37.3593 92.0727 36.4958C93.2114 35.6323 95.5645 34.9955 98.4681 31.3633" stroke="#121C2C" stroke-width="0.809548" stroke-linecap="round" stroke-linejoin="round"/>
<path d="M36.4734 177.393C35.761 179.881 34.892 184.765 35.3238 184.717C35.7556 184.668 37.4448 182.984 38.5998 181.565C39.7547 180.146 39.8411 177.485 38.5134 177.129C38.1768 177.008 37.8162 176.969 37.4615 177.015C37.1068 177.061 36.7681 177.19 36.4734 177.393Z" fill="#9AC1FB"/>
<path d="M41.7076 164.688C39.7935 168.122 37.3656 171.243 34.508 173.943C30.7625 177.43 23.7842 182.179 25.2468 183.491C28.0316 185.989 34.0169 183.976 37.8379 181.472C38.5719 180.986 37.7948 182.05 37.7948 182.05C37.7948 182.05 34.6483 184.986 35.5011 185.201C36.3538 185.417 39.0199 183.113 41.0006 180.943C42.9813 178.774 43.494 173.387 43.7476 172.427C44.2873 170.365 45.5233 168.169 46.4138 166.49L41.7076 164.688Z" fill="#9AC1FB"/>
<path d="M36.1271 180.796C36.1271 180.796 34.508 184.477 35.3337 184.747C37.0662 185.286 37.4224 183.289 39.2304 180.969C41.9289 177.488 42.0314 172.809 42.1933 171.794C42.5117 169.862 43.7261 168.313 44.6435 165.695" stroke="#121C2C" stroke-width="0.809548" stroke-linecap="round" stroke-linejoin="round"/>
<path d="M39.7164 164.027C37.8007 167.462 35.3709 170.583 32.5114 173.283C30.2555 175.388 27.0388 177.919 24.988 179.911C23.234 181.114 24.1515 181.978 24.1515 181.978" stroke="#121C2C" stroke-width="0.809548" stroke-linecap="round" stroke-linejoin="round"/>
<path d="M31.0933 178.332C26.0741 181.138 22.9439 182.11 24.0017 183.254C24.5953 183.896 26.5167 183.157 26.5167 183.157" stroke="#121C2C" stroke-width="0.809548" stroke-linecap="round" stroke-linejoin="round"/>
<path d="M29.9098 177.055C27.9939 178.134 24.9878 179.91 24.9878 179.91" stroke="#121C2C" stroke-width="0.809548" stroke-linecap="round" stroke-linejoin="round"/>
<path d="M79.2664 64.7578C60.6792 66.0854 36.3388 68.7407 43.8622 112.111C51.3856 155.481 94.7611 139.992 93.4335 117.422C92.1058 94.8514 91.3179 63.6784 79.2664 64.7578Z" fill="#3E88F6"/>
<path d="M79.066 73.6602C72.1578 75.5599 64.3268 84.5837 61.9252 92.9814C59.1727 102.604 40.1375 157.313 37.5038 164.88C37.4639 164.994 37.4471 165.116 37.4543 165.237C37.4615 165.358 37.4925 165.476 37.5457 165.585C37.5989 165.694 37.6732 165.791 37.7642 165.871C37.8552 165.951 37.9611 166.012 38.0759 166.051L44.7142 168.345C44.9201 168.415 45.1442 168.411 45.3474 168.333C45.5507 168.256 45.72 168.109 45.826 167.919C59.4426 143.238 70.2365 119.578 76.2272 105.707" fill="white"/>
<path d="M81.3646 73.0483C74.4565 74.948 66.6255 83.9718 64.2238 92.3695C61.4929 101.998 42.4362 156.696 39.8024 164.268C39.7626 164.382 39.7459 164.503 39.7531 164.624C39.7604 164.744 39.7915 164.862 39.8447 164.971C39.898 165.079 39.9722 165.176 40.0632 165.255C40.1541 165.335 40.2599 165.396 40.3745 165.434L47.0128 167.728C47.2186 167.799 47.4432 167.796 47.6467 167.718C47.8502 167.64 48.0195 167.492 48.1246 167.301C68.4389 130.494 82.4602 95.9477 83.653 92.7743C84.2142 91.2685 88.2728 71.1485 81.3646 73.0483Z" fill="#FF6A5A"/>
<path d="M107.298 135.578C109.634 165.386 106.758 244.538 105.641 264.194L99.1643 264.474C91.3225 227.688 84.1229 172.85 73.3667 160.286" fill="white"/>
<path d="M100.141 160.382C95.9261 168.807 75.709 231.433 55.7725 265.127L50.1597 264.587C59.7069 233.7 63.3553 163.771 64.7585 149.453" fill="white"/>
<path d="M102.446 160.383C98.2308 168.808 78.0137 231.435 58.0772 265.128L52.4644 264.588C62.0116 233.701 65.66 163.773 67.0362 149.454C68.4125 135.136 113.396 133.431 102.446 160.383Z" fill="#8990AB"/>
<path d="M109.603 135.578C111.94 165.385 109.063 244.537 107.946 264.193L101.47 264.474C93.6064 227.688 86.4068 172.849 75.6344 160.312C62.9083 145.47 79.0022 132.787 89.6666 129.986C100.331 127.185 108.481 125.744 109.603 135.578Z" fill="#8990AB"/>
<path d="M108.534 153.59C109.144 186.943 106.829 248.577 105.9 264.838L99.4239 265.119C95.3114 245.889 91.1504 213.588 86.7788 195.244" stroke="#121C2C" stroke-width="0.809548" stroke-linecap="round" stroke-linejoin="round"/>
<path d="M64.0839 150.77C62.4702 169.459 59.0431 235.842 50.1597 264.565L55.7725 265.105C88.5214 204.119 87.0751 187.707 95.5537 167.991C97.0973 164.694 98.7919 165.649 98.7919 165.649" stroke="#121C2C" stroke-width="0.809548" stroke-linecap="round" stroke-linejoin="round"/>
<path d="M52.8589 262.994C59.168 244.429 67.4308 191.053 70.7445 152.523" stroke="#C4C7D6" stroke-width="1.0794" stroke-linecap="round" stroke-linejoin="round"/>
<path d="M54.564 262.994C60.8676 244.429 69.1358 191.053 72.4496 152.523" stroke="#C4C7D6" stroke-width="1.0794" stroke-linecap="round" stroke-linejoin="round"/>
<path d="M101.582 94.1797C103.412 97.4449 104.67 102.038 106.208 108.115C110.309 124.333 113.369 138.732 113.958 146.158C107.12 156.121 73.6962 157.157 62.9508 149.537C62.8105 148.015 63.6524 145.716 63.6524 145.716" fill="white"/>
<path d="M102.991 82.125C105.02 85.741 106.407 90.8195 108.108 97.555C112.652 115.505 116.23 133.213 116.878 141.432C109.322 152.464 71.354 153.97 59.4591 145.534C59.308 143.845 60.2632 141.276 60.2632 141.276" fill="white"/>
<path d="M61.105 143.062C61.105 124.458 63.199 76.1392 81.3653 74.1909C99.5315 72.2426 101.841 78.4491 106.38 96.3995C110.919 114.35 114.416 130.843 115.064 139.063C106.947 148.632 72.7679 150.877 61.105 143.062Z" fill="#FF6A5A"/>
<path d="M96.12 73.6043C111.831 71.2027 123.105 65.8705 125.264 59.2591C127.163 53.5275 111.232 44.7412 106.914 42.4907C106.782 42.4286 106.664 42.3394 106.568 42.2287C106.472 42.1181 106.401 41.9885 106.359 41.8485C106.317 41.7085 106.304 41.5612 106.323 41.4161C106.341 41.2711 106.39 41.1315 106.466 41.0065L108.695 37.4877C108.859 37.2515 109.101 37.0805 109.378 37.0045C109.655 36.9285 109.95 36.9525 110.212 37.0721C139.328 49.7712 143.905 58.455 142.351 64.7371C140.796 71.0192 133.089 85.7206 100.929 91.2039C90.1347 92.6341 82.9136 81.6998 82.158 78.5912C81.4024 75.4825 86.5835 74.7755 96.12 73.6043Z" fill="#FF6A5A"/>
<path d="M109.539 45.0637L114.358 37.9883" stroke="white" stroke-width="2.15879" stroke-linecap="round" stroke-linejoin="round"/>
<path d="M104.804 90.4059C135.027 84.6095 142.426 70.5234 143.964 64.3277C145.502 58.1319 140.937 49.3618 111.82 36.6627C111.559 36.545 111.264 36.5227 110.988 36.5996C110.712 36.6765 110.472 36.8478 110.309 37.0837L108.08 40.5971C108.003 40.7223 107.953 40.8623 107.934 41.008C107.915 41.1536 107.927 41.3017 107.97 41.4423C108.012 41.583 108.084 41.7131 108.18 41.8242C108.276 41.9353 108.395 42.0247 108.528 42.0867C112.845 44.3318 128.756 53.1181 126.877 58.8497C124.686 65.4664 113.434 70.7987 97.7337 73.2003L93.9558 73.74L91.2573 73.9397" stroke="#121C2C" stroke-width="0.809548" stroke-linecap="round" stroke-linejoin="round"/>
<path d="M115.254 134.379C103.92 143.883 78.2468 146.792 61.6187 138.54" stroke="white" stroke-width="2.15879" stroke-linejoin="round"/>
<path d="M95.9418 80.6207C95.4345 79.3686 94.8624 78.1974 94.3767 77.2691C91.7807 72.1096 88.753 58.5146 88.753 58.5146L88.2565 58.6171C94.2525 56.1939 95.2726 54.6827 91.5918 47.0406C87.4955 38.5026 79.4756 34.8704 73.1287 39.9651C66.7819 45.0599 70.9052 54.2995 75.7625 63.8306C76.326 65.0441 76.8232 66.2872 77.252 67.5545C79.6699 74.1173 79.5134 79.3416 79.0168 81.9267C83.2481 84.6846 93.8424 84.5658 95.9418 80.6207Z" fill="white"/>
<path d="M93.6644 81.4903C93.9493 81.2381 94.1459 80.9015 94.2255 80.5295C94.3052 80.1575 94.2636 79.7699 94.107 79.4232C93.7184 78.5489 93.3136 77.7448 92.9682 77.0701C90.3723 71.9106 87.8519 58.5045 87.8519 58.5045L87.3553 58.607C93.3568 56.1838 93.4 53.9332 90.1834 46.8416C86.2705 38.2064 78.0671 34.6714 71.7203 39.7662C65.3734 44.8609 69.4967 54.1006 74.3594 63.6316C74.9177 64.8448 75.4131 66.0859 75.8436 67.3502C78.2614 73.9183 78.1049 79.1426 77.6084 81.7223C81.4186 84.2157 90.3776 84.3723 93.6644 81.4903Z" fill="#9AC1FB"/>
<path d="M95.9422 80.6217C95.4349 79.3696 94.8628 78.1984 94.3771 77.2702C91.7811 72.1106 88.7534 58.5156 88.7534 58.5156" stroke="#121C2C" stroke-width="0.809548" stroke-linecap="round" stroke-linejoin="round"/>
<path d="M79.0168 81.9247C79.5134 79.3396 79.6699 74.1153 77.252 67.5526C76.8232 66.2852 76.326 65.0421 75.7625 63.8286C70.9052 54.2976 66.7819 45.0579 73.1287 39.9632C79.4756 34.8684 87.7006 38.4142 91.5918 47.0386C95.483 55.663 94.4522 58.0053 83.6313 58.6961" stroke="#121C2C" stroke-width="0.809548" stroke-linecap="round" stroke-linejoin="round"/>
<path d="M76.9394 76.5984C79.0982 78.1905 89.6709 79.2051 94.593 74.7149C99.515 70.2246 99.3693 79.7826 97.9229 82.2436C96.4765 84.7047 80.4097 87.1657 77.5169 85.7139C74.6241 84.2621 75.2016 76.7441 76.9394 76.5984Z" fill="#FF6A5A"/>
<path d="M77.5288 78.3718C79.6876 79.9639 90.2657 80.9786 95.1877 76.4883" stroke="#121C2C" stroke-width="0.809548" stroke-linecap="round" stroke-linejoin="round"/>
<path d="M95.8994 73.2695C97.7776 73.9927 102.122 79.4923 88.9481 82.5308C79.6977 84.6896 75.0563 81.3758 74.6245 79.2062" stroke="white" stroke-width="2.15879" stroke-linecap="round" stroke-linejoin="round"/>
<path d="M108.038 96.8235C108.279 96.5695 108.453 96.2599 108.545 95.9222C109.063 93.9872 109.301 91.988 109.252 89.9855C109.058 82.3812 104.935 74.3343 99.716 71.2904C98.614 70.6062 97.3794 70.1634 96.0937 69.9913C94.808 69.8192 93.5005 69.9216 92.2573 70.2919C92.2573 70.2919 92.5272 71.2256 92.9266 72.4075C93.3259 73.5895 93.5688 74.2695 93.5688 74.2695C94.252 74.079 94.9681 74.0368 95.669 74.1457C96.37 74.2546 97.0395 74.5121 97.6327 74.901C100.585 76.6226 103.138 80.6757 104.347 85.1552C105.845 88.9547 107.079 92.8535 108.038 96.8235Z" fill="#3E88F6"/>
<path d="M40.3862 161.938L50.0252 165.014" stroke="white" stroke-width="2.15879" stroke-linecap="round" stroke-linejoin="round"/>
<path d="M78.8879 73.7109C72.0229 75.7132 64.316 84.656 61.9252 92.9782C59.1727 102.601 40.1375 157.31 37.5038 164.877C37.4639 164.991 37.4471 165.112 37.4543 165.233C37.4615 165.354 37.4925 165.473 37.5457 165.582C37.5989 165.691 37.6732 165.788 37.7642 165.868C37.8552 165.948 37.9611 166.009 38.0759 166.048L44.7142 168.342C44.9201 168.412 45.1442 168.408 45.3474 168.33C45.5507 168.252 45.72 168.105 45.826 167.915C59.4426 143.235 70.2365 119.575 76.2272 105.704" stroke="#121C2C" stroke-width="0.809548" stroke-linecap="round" stroke-linejoin="round"/>
<path d="M72.3955 115.343C76.2219 114.015 87.507 109.886 87.1077 94.7749C86.9188 87.5322 82.5148 79.5878 76.8534 76.2902C73.5234 74.3473 70.0046 74.1746 66.9553 75.7991C66.4651 76.061 66.0989 76.507 65.9375 77.0389C65.7761 77.5708 65.8325 78.145 66.0945 78.6352C66.3564 79.1255 66.8024 79.4916 67.3343 79.653C67.8661 79.8145 68.4404 79.758 68.9306 79.496C70.7008 78.557 72.6545 78.6919 74.7432 79.9062C79.1741 82.4914 82.7631 89.0811 82.9142 94.8829C83.1247 103.237 79.4601 107.404 74.8835 109.762C73.7933 112.191 72.3955 115.343 72.3955 115.343Z" fill="#3E88F6"/>
<path d="M83.3734 47.7414C83.2876 47.6611 83.2186 47.5647 83.1703 47.4577C83.1219 47.3507 83.0952 47.2352 83.0917 47.1178C83.0882 47.0004 83.1079 46.8835 83.1498 46.7738C83.1916 46.664 83.2548 46.5637 83.3356 46.4785C83.4986 46.3055 83.7233 46.2039 83.9608 46.1958C84.1984 46.1877 84.4295 46.2738 84.6039 46.4353" stroke="#121C2C" stroke-width="0.809548" stroke-linecap="round" stroke-linejoin="round"/>
<path d="M88.3543 43.948C88.2684 43.8673 88.1992 43.7704 88.1508 43.6629C88.1024 43.5555 88.0757 43.4395 88.0722 43.3217C88.0687 43.2039 88.0884 43.0865 88.1304 42.9763C88.1723 42.8662 88.2355 42.7654 88.3165 42.6797" stroke="#121C2C" stroke-width="0.809548" stroke-linecap="round" stroke-linejoin="round"/>
<path d="M82.7799 51.8929C82.9111 51.8929 83.0174 51.7866 83.0174 51.6554C83.0174 51.5243 82.9111 51.418 82.7799 51.418C82.6488 51.418 82.5425 51.5243 82.5425 51.6554C82.5425 51.7866 82.6488 51.8929 82.7799 51.8929Z" fill="#3E88F6"/>
<path d="M82.2024 51.2222C82.4557 51.2222 82.6611 51.0168 82.6611 50.7634C82.6611 50.5101 82.4557 50.3047 82.2024 50.3047C81.949 50.3047 81.7437 50.5101 81.7437 50.7634C81.7437 51.0168 81.949 51.2222 82.2024 51.2222Z" fill="#3E88F6"/>
<path d="M83.9229 51.3703C84.1018 51.3703 84.2468 51.2253 84.2468 51.0465C84.2468 50.8676 84.1018 50.7227 83.9229 50.7227C83.7441 50.7227 83.5991 50.8676 83.5991 51.0465C83.5991 51.2253 83.7441 51.3703 83.9229 51.3703Z" fill="#3E88F6"/>
<path d="M89.3861 49.9102C88.5697 50.7264 87.6138 51.3899 86.5635 51.8693C86.5095 51.8883 86.4635 51.925 86.433 51.9735C86.4025 52.022 86.3893 52.0793 86.3956 52.1362C86.4018 52.1932 86.4272 52.2463 86.4674 52.287C86.5077 52.3277 86.5606 52.3536 86.6175 52.3604C87.7356 52.3413 88.8098 51.922 89.6452 51.1785" stroke="#121C2C" stroke-width="0.809548" stroke-linecap="round" stroke-linejoin="round"/>
<path d="M81.8833 43.0352C81.0807 43.7766 80.6018 44.804 80.5503 45.8956" stroke="#121C2C" stroke-width="0.809548" stroke-linecap="round" stroke-linejoin="round"/>
<path d="M86.6714 44.9401C87.6105 44.7134 90.6921 45.6363 88.3876 47.4173C87.8156 48.0271 87.06 45.836 86.6714 44.9401Z" fill="#3E88F6"/>
<path d="M102.991 82.125C105.02 85.741 106.407 90.8195 108.107 97.555C112.651 115.505 116.229 133.213 116.877 141.433C109.321 152.464 71.3535 153.97 59.4585 145.534C59.8417 144.552 62.0491 137.228 62.8694 134.972" stroke="#121C2C" stroke-width="0.809548" stroke-linecap="round" stroke-linejoin="round"/>
<path d="M65.8121 45.3306C65.5584 49.1084 66.0604 51.7206 69.2824 55.2502C70.7122 55.1934 72.0725 54.6179 73.1088 53.6311C74.7647 50.8427 75.7202 47.6946 75.8937 44.4562C84.8203 40.6784 87.3083 39.9875 89.4239 35.8804C90.9944 32.7772 85.1063 34.202 81.9059 35.5026C85.0524 33.2845 78.1766 31.5575 73.1682 34.6607C68.1598 37.764 66.0712 41.5527 65.8121 45.3306Z" fill="#3E88F6"/>
<path d="M75.8437 44.1055C75.8437 46.6636 74.5106 51.9473 73.1128 53.6311" stroke="#121C2C" stroke-width="0.809548" stroke-linecap="round" stroke-linejoin="round"/>
<path d="M71.3817 59.4636C73.1105 59.4636 74.512 58.0622 74.512 56.3334C74.512 54.6046 73.1105 53.2031 71.3817 53.2031C69.6529 53.2031 68.2515 54.6046 68.2515 56.3334C68.2515 58.0622 69.6529 59.4636 71.3817 59.4636Z" fill="#9AC1FB"/>
<path d="M74.4461 58.1327C74.0913 58.577 73.6127 58.9061 73.0709 59.0786C72.5291 59.2511 71.9483 59.2591 71.402 59.1017C70.8556 58.9443 70.3681 58.6284 70.0011 58.1941C69.6341 57.7598 69.4041 57.2265 69.3401 56.6615C69.276 56.0965 69.3809 55.5252 69.6414 55.0198C69.9018 54.5143 70.3063 54.0974 70.8036 53.8217C71.3008 53.546 71.8687 53.4239 72.4354 53.4707C73.002 53.5176 73.5421 53.7313 73.9874 54.0849" stroke="#121C2C" stroke-width="0.809548" stroke-linecap="round" stroke-linejoin="round"/>
<path d="M74.7912 113.697C79.5568 111.263 85.8227 106.109 85.5366 94.7749C85.3477 87.5322 80.9438 79.5878 75.2823 76.2902C71.9524 74.3473 68.4336 74.1746 65.3843 75.7991" stroke="#121C2C" stroke-width="0.809548" stroke-linecap="round" stroke-linejoin="round"/>
<path d="M107.682 91.02C107.488 83.4157 103.364 75.3688 98.1455 72.3303C96.8726 71.5687 95.4452 71.1021 93.9683 70.9648" stroke="#121C2C" stroke-width="0.809548" stroke-linecap="round" stroke-linejoin="round"/>
<path d="M74.6511 66.2852C59.831 67.9474 44.1203 72.6752 41.9453 85.0667C39.7703 97.4582 40.5421 100.27 41.0548 101.42C41.5675 102.569 44.7572 102.952 44.7572 102.952C44.7572 85.0667 47.8227 78.423 53.1873 78.2989C58.5519 78.1747 62.6428 81.3643 63.5387 87.4737" stroke="#121C2C" stroke-width="0.809548" stroke-linecap="round" stroke-linejoin="round"/>
<path d="M41.9461 102.57C42.3725 107.692 40.1327 110.229 38.3355 110.855C38.0613 110.942 37.8241 111.119 37.6618 111.356C37.4995 111.594 37.4213 111.879 37.4396 112.166L37.5044 113.035C37.5189 113.216 37.5718 113.392 37.6597 113.551C37.7475 113.71 37.8682 113.849 38.0137 113.957C38.1592 114.066 38.3262 114.143 38.5036 114.182C38.681 114.221 38.8648 114.222 39.0426 114.185C41.8436 113.613 43.4249 111.384 43.8621 108.96" stroke="#121C2C" stroke-width="0.809548" stroke-linecap="round" stroke-linejoin="round"/>
<path d="M57.6623 98.8698C57.6623 90.947 57.0255 85.1992 53.8305 85.1992C50.6354 85.1992 50.3818 95.6748 51.5313 111.261" stroke="#121C2C" stroke-width="0.809548" stroke-linecap="round" stroke-linejoin="round"/>
<path d="M276.379 58.5346C287.604 58.5346 296.704 51.2252 296.704 42.2087C296.704 33.1922 287.604 25.8828 276.379 25.8828C265.154 25.8828 256.054 33.1922 256.054 42.2087C256.054 51.2252 265.154 58.5346 276.379 58.5346Z" fill="white"/>
<path d="M277.61 58.5346C288.835 58.5346 297.935 51.2252 297.935 42.2087C297.935 33.1922 288.835 25.8828 277.61 25.8828C266.384 25.8828 257.285 33.1922 257.285 42.2087C257.285 51.2252 266.384 58.5346 277.61 58.5346Z" fill="#8990AB"/>
<path d="M276.379 58.5346C287.604 58.5346 296.704 51.2252 296.704 42.2087C296.704 33.1922 287.604 25.8828 276.379 25.8828C265.154 25.8828 256.054 33.1922 256.054 42.2087C256.054 51.2252 265.154 58.5346 276.379 58.5346Z" stroke="black" stroke-width="0.809548" stroke-linecap="round" stroke-linejoin="round"/>
<path d="M288.719 60.875H266.645C257.497 60.875 250.082 68.2907 250.082 77.4384V110.554C250.082 119.702 257.497 127.118 266.645 127.118H288.719C297.866 127.118 305.282 119.702 305.282 110.554V77.4384C305.282 68.2907 297.866 60.875 288.719 60.875Z" fill="#6F69DB"/>
<path d="M212.717 53.1271C217.034 40.9839 238.52 35.4088 243.555 34.2052C243.83 34.1431 244.117 34.18 244.367 34.3093C244.617 34.4387 244.813 34.6523 244.921 34.9122L248.051 42.6947C248.106 42.8236 248.133 42.9628 248.13 43.103C248.128 43.2432 248.095 43.3812 248.035 43.5078C247.975 43.6344 247.888 43.7467 247.781 43.8373C247.674 43.9279 247.549 43.9947 247.414 44.0331C228.357 49.5705 227.629 67.1215 255.644 71.4391C270.367 73.5978 269.347 79.5022 266.206 86.9608C263.065 94.4194 256.362 100.826 240.161 93.1134C219.118 83.1073 208.291 65.6427 212.717 53.1271Z" fill="white"/>
<path d="M214.368 53.0137C218.686 40.8651 238.519 35.4088 243.555 34.2052C243.829 34.1431 244.117 34.18 244.367 34.3093C244.617 34.4387 244.813 34.6523 244.92 34.9122L248.051 42.6947C248.106 42.8236 248.133 42.9628 248.13 43.103C248.127 43.2432 248.095 43.3812 248.034 43.5078C247.974 43.6344 247.888 43.7467 247.781 43.8373C247.674 43.9279 247.549 43.9947 247.414 44.0331C228.357 49.5705 229.28 67.0027 257.296 71.3203C272.019 73.4791 270.999 79.3834 267.857 86.8421C264.716 94.3007 258.013 100.707 241.812 92.9946C220.769 82.9724 209.91 65.5239 214.368 53.0137Z" fill="#9AC1FB"/>
<path d="M245.169 35.5673C248.483 33.2897 251.457 29.8842 253.529 29.161C255.602 28.4378 258.484 32.9173 258.484 32.9173L255.893 41.8278L248.03 42.7237L245.169 35.5673Z" fill="#BDBFF4" stroke="black" stroke-width="0.809548" stroke-linecap="round" stroke-linejoin="round"/>
<path d="M260.14 72.3154C258.66 71.9317 257.159 71.6326 255.644 71.4195C227.629 67.1019 228.357 49.5509 247.414 44.0136C247.549 43.9751 247.674 43.9084 247.781 43.8178C247.888 43.7272 247.975 43.6149 248.035 43.4882C248.095 43.3616 248.128 43.2236 248.13 43.0834C248.133 42.9432 248.106 42.8041 248.051 42.6752L244.921 34.8927C244.813 34.6327 244.617 34.4192 244.367 34.2898C244.117 34.1604 243.83 34.1236 243.555 34.1857C238.514 35.4108 217.029 41.0129 212.717 53.1291C208.291 65.6447 219.118 83.1094 240.161 93.1154C241.024 93.5256 241.862 93.898 242.676 94.2326" stroke="black" stroke-width="0.809548" stroke-linecap="round" stroke-linejoin="round"/>
<path d="M239.179 154.386C239.179 180.184 238.791 227.132 244.382 253.691L258.063 260.529C254.798 235.055 260.643 189.969 264.361 180.794C268.08 171.619 278.815 174.425 283.634 186.083C288.454 197.74 300.419 244.063 303.527 260.07L316.426 259.136C311.143 201.319 305.702 154.062 305.702 154.062L239.179 154.386Z" fill="white"/>
<path d="M240.835 154.387C240.835 180.12 240.447 226.901 246 253.514C246.014 253.575 246.041 253.632 246.079 253.681C246.117 253.731 246.166 253.771 246.222 253.8L259.023 260.201C259.09 260.234 259.165 260.249 259.24 260.244C259.315 260.238 259.387 260.212 259.449 260.169C259.51 260.126 259.559 260.067 259.589 259.998C259.62 259.93 259.631 259.854 259.622 259.78C256.568 234.16 262.321 189.889 266.012 180.806C269.747 171.631 280.471 174.437 285.29 186.095C290.056 197.623 301.816 243.065 305.076 259.548C305.106 259.696 305.188 259.828 305.309 259.919C305.429 260.01 305.578 260.055 305.729 260.044L317.456 259.197C317.622 259.182 317.775 259.102 317.882 258.974C317.989 258.847 318.042 258.683 318.029 258.517C312.761 200.985 307.359 154.074 307.359 154.074L240.835 154.387Z" fill="#C4C7D6"/>
<path d="M269.023 162.551L269.644 173.884C275.861 174.041 276.66 168.914 276.482 162.696" stroke="#8990AB" stroke-width="1.0794" stroke-linecap="round" stroke-linejoin="round"/>
<path d="M297.466 162.238C297.623 172.034 305.859 170.479 305.859 170.479" stroke="#8990AB" stroke-width="1.0794" stroke-linecap="round" stroke-linejoin="round"/>
<path d="M249.438 157.113C249.438 168.447 246.33 167.837 241.203 167.837" stroke="#8990AB" stroke-width="1.0794" stroke-linecap="round" stroke-linejoin="round"/>
<path d="M243.533 167.678L243.22 163.641L248.347 164.261" stroke="#8990AB" stroke-width="1.0794" stroke-linecap="round" stroke-linejoin="round"/>
<path d="M298.4 166.75H302.906L303.527 170.323" stroke="#8990AB" stroke-width="1.0794" stroke-linecap="round" stroke-linejoin="round"/>
<path d="M251.769 159.906C265.915 162.394 280.832 162.551 292.959 162.551" stroke="#8990AB" stroke-width="1.0794" stroke-linecap="round" stroke-linejoin="round"/>
<path d="M239.179 154.387C239.179 180.12 238.791 226.901 244.344 253.514C244.358 253.575 244.385 253.632 244.423 253.681C244.461 253.731 244.51 253.771 244.565 253.8L257.367 260.201C257.434 260.234 257.509 260.249 257.584 260.244C257.659 260.238 257.731 260.212 257.792 260.169C257.854 260.126 257.902 260.067 257.933 259.998C257.964 259.93 257.975 259.854 257.966 259.78C254.917 234.16 260.665 189.889 264.362 180.806C268.091 171.631 278.815 174.437 283.634 186.095C288.4 197.623 300.16 243.065 303.425 259.548C303.454 259.695 303.535 259.827 303.655 259.919C303.774 260.01 303.923 260.055 304.073 260.044L315.8 259.197C315.883 259.19 315.963 259.167 316.036 259.129C316.11 259.091 316.175 259.039 316.228 258.976C316.281 258.913 316.321 258.84 316.346 258.761C316.371 258.682 316.38 258.599 316.372 258.517C311.105 200.985 305.702 154.074 305.702 154.074L239.179 154.387Z" stroke="black" stroke-width="0.809548" stroke-linecap="round" stroke-linejoin="round"/>
<path d="M327.986 50.5659C321.952 38.3579 299.824 34.1861 294.648 33.2956C294.373 33.2442 294.088 33.3023 293.854 33.4574C293.62 33.6126 293.456 33.8526 293.396 34.1267L291.405 42.4596C291.369 42.599 291.361 42.7441 291.381 42.8866C291.402 43.029 291.451 43.1658 291.526 43.289C291.6 43.4122 291.698 43.5193 291.815 43.6039C291.931 43.6886 292.063 43.7491 292.204 43.7819C311.298 48.8497 315.211 66.0984 288.037 72.618C273.74 75.9318 275.624 81.944 279.801 89.408C283.979 96.8721 291.577 102.987 306.538 93.8336C325.945 81.944 334.203 63.1409 327.986 50.5659Z" fill="white"/>
<path d="M268.106 69.0781C259.73 70.5515 252.023 76.8498 241.979 100.132C231.935 123.415 232.308 136.902 234.688 148.813C235.36 152.134 237.053 155.163 239.53 157.475C242.007 159.788 245.145 161.269 248.504 161.712C251.516 162.117 255.051 162.549 259.017 162.959C258.213 120.56 266.579 81.394 268.106 69.0781Z" fill="white"/>
<path d="M239.298 106.537C244.236 89.358 260.319 71.2295 262.478 70.7654C250.238 68.6497 236.589 86.8862 239.298 106.537Z" fill="#6F69DB"/>
<path d="M252.078 32.4743C253.222 31.546 256.433 30.7148 256.433 30.7148" stroke="black" stroke-width="0.809548" stroke-linecap="round" stroke-linejoin="round"/>
<path d="M326.232 47.9099C319.696 35.9609 299.786 33.1221 294.578 32.4637C294.301 32.4245 294.018 32.495 293.792 32.6603C293.565 32.8255 293.412 33.0724 293.364 33.3488L291.712 41.7303C291.658 42.0149 291.718 42.3093 291.878 42.5505C292.039 42.7917 292.287 42.9603 292.571 43.0202C311.854 47.2946 314.11 63.9551 287.228 71.5864C273.077 75.4885 275.187 81.4198 279.672 88.7003C284.157 95.9808 291.993 101.783 306.565 92.0195C325.503 79.3311 332.962 60.2204 326.232 47.9099Z" fill="#9AC1FB"/>
<path d="M327.986 50.5659C321.952 38.3579 299.824 34.1861 294.648 33.2956C294.373 33.2442 294.088 33.3023 293.854 33.4574C293.62 33.6126 293.456 33.8526 293.396 34.1267L291.405 42.4596C291.369 42.599 291.361 42.7441 291.381 42.8866C291.402 43.029 291.451 43.1658 291.526 43.289C291.6 43.4122 291.698 43.5193 291.815 43.6039C291.931 43.6886 292.063 43.7491 292.204 43.7819C311.298 48.8497 315.211 66.0984 288.037 72.618C273.74 75.9318 275.624 81.944 279.801 89.408C283.979 96.8721 291.577 102.987 306.538 93.8336C325.945 81.944 334.203 63.1409 327.986 50.5659Z" stroke="black" stroke-width="0.809548" stroke-linecap="round" stroke-linejoin="round"/>
<path d="M287.218 70.6953C294.601 67.9968 312.838 78.073 312.249 109.489C307.425 87.4745 297.165 74.7214 287.218 70.6953Z" fill="#6F69DB"/>
<path d="M276.23 69.0773C264.896 68.6347 256.212 69.8167 243.702 98.8093C231.192 127.802 237.512 143.383 241.047 157.955C241.047 157.955 267.929 163.589 303.841 161.528C316.642 139.6 309.346 103.24 305.077 91.3021C300.808 79.3639 290.062 69.3795 276.23 69.0773Z" fill="#FF6A5A"/>
<path d="M258.294 80.0898H292.49" stroke="white" stroke-width="2.15879" stroke-linecap="round" stroke-linejoin="round"/>
<path d="M258.294 87.5195H292.49" stroke="white" stroke-width="2.15879" stroke-linecap="round" stroke-linejoin="round"/>
<path d="M258.294 94.9492H292.49" stroke="white" stroke-width="2.15879" stroke-linecap="round" stroke-linejoin="round"/>
<path d="M258.294 102.375H292.49" stroke="white" stroke-width="2.15879" stroke-linecap="round" stroke-linejoin="round"/>
<path d="M258.294 109.809H292.49" stroke="white" stroke-width="2.15879" stroke-linecap="round" stroke-linejoin="round"/>
<path d="M258.294 117.238H292.49" stroke="white" stroke-width="2.15879" stroke-linecap="round" stroke-linejoin="round"/>
<path d="M258.294 124.664H292.49" stroke="white" stroke-width="2.15879" stroke-linecap="round" stroke-linejoin="round"/>
<path d="M258.294 132.098H292.49" stroke="white" stroke-width="2.15879" stroke-linecap="round" stroke-linejoin="round"/>
<path d="M258.294 139.523H292.49" stroke="white" stroke-width="2.15879" stroke-linecap="round" stroke-linejoin="round"/>
<path d="M258.294 146.953H292.49" stroke="white" stroke-width="2.15879" stroke-linecap="round" stroke-linejoin="round"/>
<path d="M258.294 154.387H292.49" stroke="white" stroke-width="2.15879" stroke-linecap="round" stroke-linejoin="round"/>
<path d="M276.536 38.5391H276.53C271.958 38.5391 268.251 42.2457 268.251 46.818V67.8015C268.251 72.3739 271.958 76.0805 276.53 76.0805H276.536C281.108 76.0805 284.815 72.3739 284.815 67.8015V46.818C284.815 42.2457 281.108 38.5391 276.536 38.5391Z" fill="white"/>
<path d="M278.194 38.5391H278.189C273.616 38.5391 269.91 42.2457 269.91 46.818V67.8015C269.91 72.3739 273.616 76.0805 278.189 76.0805H278.194C282.766 76.0805 286.473 72.3739 286.473 67.8015V46.818C286.473 42.2457 282.766 38.5391 278.194 38.5391Z" fill="#BDBFF4"/>
<path d="M284.809 41.136C284.809 35.0375 279.866 30.0938 273.77 30.0938C267.673 30.0938 262.73 35.0375 262.73 41.136V49.9655C262.73 56.0639 267.673 61.0077 273.77 61.0077C279.866 61.0077 284.809 56.0639 284.809 49.9655V41.136Z" fill="white"/>
<path d="M286.467 41.136C286.467 35.0375 281.525 30.0938 275.428 30.0938C269.331 30.0938 264.388 35.0375 264.388 41.136V49.9655C264.388 56.0639 269.331 61.0077 275.428 61.0077C281.525 61.0077 286.467 56.0639 286.467 49.9655V41.136Z" fill="#BDBFF4"/>
<path d="M270.21 41.8278C269.52 41.6875 268.51 45.719 270.21 45.6596C271.91 45.6003 270.896 41.9681 270.21 41.8278Z" fill="#6F69DB"/>
<path d="M275.608 47.9414C275.665 47.9415 275.722 47.9541 275.774 47.9781C275.826 48.0021 275.872 48.037 275.91 48.0806C275.947 48.1241 275.975 48.1752 275.991 48.2303C276.006 48.2855 276.01 48.3434 276.002 48.4002C275.705 50.2621 273.638 51.7031 271.144 51.7031C268.651 51.7031 266.573 50.2621 266.287 48.4002C266.279 48.3434 266.282 48.2855 266.298 48.2303C266.314 48.1752 266.342 48.1241 266.379 48.0806C266.416 48.037 266.463 48.0021 266.515 47.9781C266.567 47.9541 266.624 47.9415 266.681 47.9414H275.608Z" fill="black"/>
<path d="M269.055 49.8636H273.216C273.294 49.8657 273.372 49.8509 273.444 49.8201C273.515 49.7894 273.58 49.7434 273.632 49.6855C273.873 49.4099 274.031 49.0709 274.085 48.7086C274.089 48.6755 274.086 48.6419 274.075 48.6102C274.065 48.5784 274.048 48.5493 274.026 48.5247C274.003 48.5001 273.976 48.4807 273.945 48.4677C273.914 48.4547 273.881 48.4485 273.848 48.4496H268.424C268.39 48.4477 268.356 48.4533 268.325 48.466C268.293 48.4786 268.265 48.4979 268.242 48.5226C268.219 48.5472 268.201 48.5767 268.191 48.6088C268.18 48.641 268.177 48.675 268.181 48.7086C268.24 49.0694 268.397 49.4072 268.634 49.6855C268.687 49.7441 268.752 49.7905 268.825 49.8213C268.898 49.8521 268.976 49.8665 269.055 49.8636Z" fill="white"/>
<path d="M284.809 41.136C284.809 35.0375 279.866 30.0938 273.77 30.0938C267.673 30.0938 262.73 35.0375 262.73 41.136V49.9655C262.73 56.0639 267.673 61.0077 273.77 61.0077C279.866 61.0077 284.809 56.0639 284.809 49.9655V41.136Z" stroke="black" stroke-width="0.809548" stroke-linecap="round" stroke-linejoin="round"/>
<path d="M286.689 48.5667C288.337 48.5667 289.674 47.2305 289.674 45.5822C289.674 43.9339 288.337 42.5977 286.689 42.5977C285.041 42.5977 283.705 43.9339 283.705 45.5822C283.705 47.2305 285.041 48.5667 286.689 48.5667Z" fill="#BDBFF4"/>
<path d="M283.607 46.9468C283.891 47.4098 284.307 47.778 284.801 48.0049C285.294 48.2318 285.844 48.3072 286.381 48.2215C286.917 48.1358 287.416 47.8929 287.815 47.5235C288.214 47.1541 288.494 46.6748 288.62 46.1463C288.746 45.6177 288.712 45.0636 288.523 44.5541C288.335 44.0446 287.999 43.6026 287.559 43.2838C287.119 42.9651 286.594 42.7841 286.051 42.7637C285.508 42.7432 284.971 42.8843 284.508 43.169" stroke="#121C2C" stroke-width="0.809548" stroke-linecap="round" stroke-linejoin="round"/>
<path d="M278.059 42.9609H276.656C276.265 42.9609 275.949 43.2763 275.949 43.6653C275.949 44.0542 276.265 44.3696 276.656 44.3696H278.059C278.449 44.3696 278.766 44.0542 278.766 43.6653C278.766 43.2763 278.449 42.9609 278.059 42.9609Z" fill="#8E8EE8"/>
<path d="M265.672 42.9609H264.269C263.879 42.9609 263.562 43.2763 263.562 43.6653C263.562 44.0542 263.879 44.3696 264.269 44.3696H265.672C266.063 44.3696 266.379 44.0542 266.379 43.6653C266.379 43.2763 266.063 42.9609 265.672 42.9609Z" fill="#8E8EE8"/>
<path d="M268.921 71.1967C268.956 70.954 268.932 70.7063 268.852 70.4746C268.771 70.2429 268.636 70.0341 268.457 69.8657C268.279 69.6974 268.063 69.5745 267.827 69.5074C267.591 69.4403 267.342 69.4311 267.102 69.4805C261.106 70.7272 255.164 73.2584 248.531 85.4825C246.701 88.8503 245.066 95.5317 243.08 100.141C233.063 123.348 233.414 136.916 235.789 148.827C236.462 152.146 238.154 155.173 240.63 157.484C243.106 159.796 246.242 161.277 249.599 161.72C252.616 162.125 256.151 162.557 260.118 162.967C259.357 122.738 266.837 85.434 268.921 71.1967Z" fill="#9AC1FB"/>
<path d="M306.792 92.2124C303.23 82.2711 295.404 73.5928 285.08 70.2305C286.386 81.4022 292.031 126.769 293.256 164.775C294.936 164.775 296.635 164.76 298.351 164.732C301.948 164.696 305.431 163.468 308.256 161.24C311.08 159.013 313.086 155.911 313.959 152.421C319.318 130.202 310.58 102.796 306.792 92.2124Z" fill="#9AC1FB"/>
<path d="M248.256 87.1871C245.946 91.3957 243.851 95.7188 241.979 100.14C232.032 123.19 232.302 136.726 234.639 148.578C235.323 151.974 237.053 155.072 239.588 157.434C242.122 159.797 245.332 161.307 248.768 161.752C251.726 162.146 255.18 162.567 259.023 162.966C258.218 120.557 266.578 81.3907 268.111 69.0586C265.518 69.4982 263.044 70.4663 260.841 71.9028C260.287 72.2626 259.731 72.662 259.174 73.1009" stroke="black" stroke-width="0.809548" stroke-linecap="round" stroke-linejoin="round"/>
<path d="M291.486 73.161C289.469 71.9442 287.319 70.961 285.08 70.2305C286.386 81.4022 292.031 126.769 293.256 164.775C294.843 164.775 296.451 164.775 298.07 164.737C301.818 164.679 305.439 163.364 308.35 161.002C311.262 158.641 313.296 155.37 314.126 151.714C319.135 129.624 310.543 102.688 306.792 92.2124C306.1 90.2844 305.255 88.4147 304.266 86.6211" stroke="black" stroke-width="0.809548" stroke-linecap="round" stroke-linejoin="round"/>
<path d="M257.912 165.728C257.191 165.728 256.498 165.445 255.983 164.941C255.467 164.436 255.17 163.75 255.154 163.029C254.501 128.812 259.823 96.4086 262.678 79.0033C263.395 74.6156 265.058 67.7452 268.247 66.5039C267.965 68.2195 268.208 69.9801 268.943 71.5555C269.483 75.1769 260.033 129.206 260.67 162.926C260.684 163.657 260.408 164.363 259.902 164.891C259.396 165.418 258.702 165.723 257.971 165.738L257.912 165.728Z" fill="#3E88F6"/>
<path d="M294.358 167.534C293.642 167.534 292.953 167.255 292.438 166.757C291.923 166.258 291.623 165.578 291.6 164.862C290.472 129.782 285.621 88.9157 283.796 73.5397C284.417 71.2678 284.883 68.9561 285.189 66.6208C286.846 66.4643 288.891 71.4781 289.539 75.2559C290.186 79.0338 295.983 129.328 297.095 164.668C297.107 165.03 297.048 165.391 296.92 165.73C296.793 166.07 296.6 166.381 296.352 166.645C296.105 166.91 295.807 167.123 295.477 167.273C295.147 167.422 294.791 167.506 294.428 167.517L294.358 167.534Z" fill="#3E88F6"/>
<path d="M291.404 42.4592C283.892 42.3188 277.372 39.7283 274.674 38.5895C271.975 37.4508 275.391 35.5024 277.879 36.7384C278.592 37.0837 279.395 37.198 280.175 37.0655C280.956 36.933 281.676 36.5601 282.235 35.999C282.613 34.7577 280.022 33.8402 280.022 33.8402C280.022 33.8402 276.152 29.3823 279.817 29.4902C283.481 29.5981 290.859 34.2557 292.727 35.8101C292.802 36.339 291.501 42.3135 291.404 42.4592Z" fill="#BDBFF4"/>
<path d="M290.704 34.1473C290.704 34.1473 286.591 30.6123 283.483 29.576C280.374 28.5398 273.12 27.1906 273.12 28.7449C273.012 30.8173 277.881 36.7378 277.881 36.7378C277.881 36.7378 279.856 41.2821 282.652 41.9028C284.616 42.3041 286.611 42.5388 288.615 42.6044L290.704 34.1473Z" fill="#BDBFF4"/>
<path d="M282.134 33.926C278.609 32.7872 273.121 30.2992 273.121 28.7449C273.121 27.1906 280.374 28.5398 283.483 29.576C286.591 30.6123 290.704 34.1473 290.704 34.1473L292.728 35.7934" stroke="black" stroke-width="0.809548" stroke-linecap="round" stroke-linejoin="round"/>
<path d="M282.683 31.5773C277.4 30.023 275.845 28.9867 276.466 31.3668" stroke="black" stroke-width="0.809548" stroke-linecap="round" stroke-linejoin="round"/>
<path d="M267.987 36.0421L266.087 28.7238C265.997 27.7313 265.67 26.7748 265.134 25.9347C264.598 25.0946 263.868 24.3953 263.006 23.8954C262.144 23.3955 261.174 23.1097 260.179 23.0619C259.183 23.014 258.191 23.2056 257.285 23.6205C256.378 24.0354 255.585 24.6615 254.971 25.4464C254.356 26.2312 253.939 27.1519 253.754 28.1312C253.569 29.1106 253.622 30.12 253.908 31.0748C254.193 32.0296 254.704 32.902 255.396 33.6189L255.288 33.6675L260.313 39.7661C260.807 40.7838 261.684 41.5636 262.753 41.9341C263.822 42.3045 264.994 42.2352 266.012 41.7414C267.03 41.2475 267.809 40.3697 268.18 39.3008C268.55 38.232 268.481 37.0599 267.987 36.0421Z" fill="white"/>
<path d="M266.886 36.1537C266.346 33.8168 264.992 28.8408 264.992 28.8408C264.901 27.8486 264.575 26.8925 264.039 26.0526C263.503 25.2126 262.774 24.5134 261.912 24.0135C261.05 23.5135 260.081 23.2275 259.086 23.1792C258.091 23.1309 257.098 23.3219 256.192 23.7361C255.286 24.1503 254.493 24.7757 253.878 25.5598C253.263 26.3439 252.846 27.2639 252.66 28.2427C252.474 29.2216 252.525 30.2307 252.81 31.1855C253.094 32.1403 253.604 33.013 254.295 33.7305C254.295 33.7305 257.582 37.6433 259.212 39.883C260.841 42.1228 262.795 42.8838 264.911 41.8529C267.026 40.8221 267.442 38.4744 266.886 36.1537Z" fill="#3E88F6"/>
<path d="M258.78 33.6828C261.15 33.6828 263.071 31.7618 263.071 29.3922C263.071 27.0225 261.15 25.1016 258.78 25.1016C256.411 25.1016 254.49 27.0225 254.49 29.3922C254.49 31.7618 256.411 33.6828 258.78 33.6828Z" fill="white"/>
<path d="M259.882 33.5812C262.252 33.5812 264.172 31.6602 264.172 29.2906C264.172 26.921 262.252 25 259.882 25C257.512 25 255.591 26.921 255.591 29.2906C255.591 31.6602 257.512 33.5812 259.882 33.5812Z" stroke="black" stroke-width="0.809548" stroke-linecap="round" stroke-linejoin="round"/>
<path d="M259.881 35.5217C263.324 35.5217 266.115 32.7309 266.115 29.2882C266.115 25.8455 263.324 23.0547 259.881 23.0547C256.439 23.0547 253.648 25.8455 253.648 29.2882C253.648 32.7309 256.439 35.5217 259.881 35.5217Z" stroke="black" stroke-width="0.809548" stroke-linecap="round" stroke-linejoin="round"/>
<path d="M266.088 28.7227C266.088 28.7227 267.475 33.8984 267.988 36.041C268.5 38.1836 268.133 40.7094 266.012 41.7402C263.891 42.771 261.592 41.3192 260.313 39.7649C259.034 38.2106 255.083 33.2885 255.083 33.2885" stroke="black" stroke-width="0.809548" stroke-linecap="round" stroke-linejoin="round"/>
<path d="M259.688 26.5391C259.319 26.5723 258.961 26.6778 258.634 26.8497C258.306 27.0215 258.016 27.2563 257.779 27.5406C257.543 27.8248 257.364 28.153 257.255 28.5062C257.145 28.8595 257.106 29.2309 257.14 29.5992" stroke="#3E87F5" stroke-width="1.0794" stroke-linecap="round" stroke-linejoin="round"/>
<path d="M281.405 36.7366L281.599 29.1808C281.787 28.2018 281.737 27.1919 281.454 26.2361C281.171 25.2803 280.662 24.4063 279.972 23.6875C279.281 22.9688 278.428 22.4262 277.484 22.1052C276.54 21.7843 275.533 21.6945 274.547 21.8432C273.561 21.9919 272.626 22.3749 271.819 22.96C271.011 23.5451 270.356 24.3153 269.908 25.2059C269.461 26.0965 269.233 27.0815 269.244 28.0783C269.255 29.0752 269.506 30.0547 269.974 30.9348H269.855L273.002 38.183C273.196 39.2973 273.824 40.289 274.749 40.9398C275.675 41.5906 276.82 41.8472 277.935 41.6533C279.049 41.4593 280.041 40.8306 280.691 39.9056C281.342 38.9805 281.599 37.8347 281.405 36.7204V36.7366Z" fill="white"/>
<path d="M280.32 36.5291C280.428 34.1329 280.514 28.9733 280.514 28.9733C280.698 27.9942 280.644 26.9852 280.358 26.031C280.071 25.0768 279.56 24.2051 278.867 23.4891C278.175 22.7731 277.32 22.2335 276.376 21.9156C275.432 21.5978 274.425 21.5108 273.441 21.6622C272.456 21.8135 271.522 22.1986 270.717 22.7853C269.911 23.372 269.258 24.1432 268.813 25.0342C268.367 25.9252 268.141 26.91 268.154 27.9062C268.168 28.9024 268.419 29.8809 268.889 30.7597C268.889 30.7597 270.967 35.4227 271.916 38.0241C272.866 40.6254 274.534 41.8991 276.855 41.4944C279.175 41.0896 280.212 38.9308 280.32 36.5291Z" fill="#3E88F6"/>
<path d="M274.394 32.1007C276.763 32.1007 278.684 30.1798 278.684 27.8101C278.684 25.4405 276.763 23.5195 274.394 23.5195C272.024 23.5195 270.103 25.4405 270.103 27.8101C270.103 30.1798 272.024 32.1007 274.394 32.1007Z" fill="white"/>
<path d="M275.474 32.3078C277.843 32.3078 279.764 30.3868 279.764 28.0172C279.764 25.6475 277.843 23.7266 275.474 23.7266C273.104 23.7266 271.183 25.6475 271.183 28.0172C271.183 30.3868 273.104 32.3078 275.474 32.3078Z" stroke="black" stroke-width="0.809548" stroke-linecap="round" stroke-linejoin="round"/>
<path d="M275.473 34.2483C278.916 34.2483 281.707 31.4575 281.707 28.0148C281.707 24.5721 278.916 21.7812 275.473 21.7812C272.031 21.7812 269.24 24.5721 269.24 28.0148C269.24 31.4575 272.031 34.2483 275.473 34.2483Z" stroke="black" stroke-width="0.809548" stroke-linecap="round" stroke-linejoin="round"/>
<path d="M281.6 29.1836C281.6 29.1836 281.508 34.5374 281.405 36.7394C281.303 38.9413 280.256 41.2675 277.94 41.6722C275.625 42.077 273.806 40.0531 273.002 38.202C272.198 36.3508 269.796 30.6462 269.796 30.6462" stroke="black" stroke-width="0.809548" stroke-linecap="round" stroke-linejoin="round"/>
<path d="M276.051 25.3169C275.687 25.2465 275.313 25.2486 274.95 25.3232C274.588 25.3978 274.243 25.5433 273.937 25.7514C273.63 25.9595 273.368 26.2262 273.165 26.536C272.962 26.8457 272.822 27.1926 272.753 27.5566" stroke="#3E87F5" stroke-width="1.0794" stroke-linecap="round" stroke-linejoin="round"/>
<path d="M271.77 36.3118H264.511L265.758 32.793H270.34L271.77 36.3118Z" fill="#3E88F6"/>
<path d="M266.886 36.6953H272.186" stroke="black" stroke-width="0.809548" stroke-linecap="round" stroke-linejoin="round"/>
<path d="M270.525 32.8906H265.759" stroke="black" stroke-width="0.809548" stroke-linecap="round" stroke-linejoin="round"/>
<path d="M266.585 34.9609L267.26 36.5692" stroke="black" stroke-width="0.809548" stroke-linecap="round" stroke-linejoin="round"/>
<path d="M282.722 36C282.162 36.5609 281.441 36.9335 280.66 37.066C279.878 37.1985 279.075 37.0843 278.361 36.7394C275.873 35.5035 272.463 37.4518 275.156 38.5906C277.849 39.7293 281.686 42.3199 289.188 42.4602H291.406" fill="#BDBFF4"/>
<path d="M282.722 36C282.162 36.5609 281.441 36.9335 280.66 37.066C279.878 37.1985 279.075 37.0843 278.361 36.7394C275.873 35.5035 272.463 37.4518 275.156 38.5906C277.849 39.7293 281.686 42.3199 289.188 42.4602H291.406" stroke="black" stroke-width="0.809548" stroke-linecap="round" stroke-linejoin="round"/>
<path d="M293.397 34.1484L291.406 42.4598" stroke="black" stroke-width="0.809548" stroke-linecap="round" stroke-linejoin="round"/>
<path d="M256.41 36.4688C256.949 37.0249 257.651 37.3956 258.414 37.5275C259.178 37.6594 259.963 37.5457 260.658 37.2027C263.086 35.9722 266.411 37.9151 263.782 39.0539C261.154 40.1927 257.096 43.1502 250.096 42.9236C249.422 42.9599 248.752 42.8045 248.164 42.4756" fill="#BDBFF4"/>
<path d="M256.41 36.4688C256.949 37.0249 257.651 37.3956 258.414 37.5275C259.178 37.6594 259.963 37.5457 260.658 37.2027C263.086 35.9722 266.411 37.9151 263.782 39.0539C261.154 40.1927 257.096 43.1502 250.096 42.9236C249.422 42.9599 248.752 42.8045 248.164 42.4756" stroke="black" stroke-width="0.809548" stroke-linecap="round" stroke-linejoin="round"/>
<path d="M268.251 59.5736V67.804C268.257 69.9989 269.131 72.1025 270.682 73.6556C272.233 75.2087 274.335 76.0852 276.53 76.0937V76.0937C278.725 76.0866 280.828 75.2115 282.381 73.6594C283.933 72.1074 284.808 70.0043 284.815 67.8094V56.7617" stroke="black" stroke-width="0.809548" stroke-linecap="round" stroke-linejoin="round"/>
<path d="M301.244 138.066C301.244 146.556 311.115 146.362 311.115 146.362" stroke="#3E88F6" stroke-width="2.69849" stroke-linecap="round" stroke-linejoin="round"/>
<path d="M247.534 136.289C247.534 142.604 241.02 145.96 238.451 145.96" stroke="#3E88F6" stroke-width="2.69849" stroke-linecap="round" stroke-linejoin="round"/>
<path d="M295.125 93.832L301.444 94.0317" stroke="#3E88F6" stroke-width="2.69849" stroke-linecap="round" stroke-linejoin="round"/>
<path d="M240.554 37.1328L242.929 43.6632" stroke="#3E88F6" stroke-width="2.69849" stroke-linecap="round" stroke-linejoin="round"/>
<path d="M297.979 36.1992L296.484 43.0264" stroke="#3E88F6" stroke-width="2.69849" stroke-linecap="round" stroke-linejoin="round"/>
<path d="M131.045 135.208C119.711 135.715 108.696 133.016 102.916 126.772C87.8043 110.43 111.114 94.4765 114.541 91.4111C117.968 88.3456 137.025 76.4236 133.495 60.5187C132.637 56.9567 135.994 55.7747 136.733 61.1555C137.473 66.5363 136.534 134.511 136.534 134.511L131.045 135.208Z" fill="white"/>
<path d="M152.261 43.0151C156.255 45.4221 157.345 52.7836 160.162 58.3857C177.486 92.7753 199.609 89.7206 203.084 103.629C206.393 116.851 194.336 126.944 185.479 127.915C176.623 128.887 143.62 60.9924 143.62 60.9924C143.62 60.9924 143.291 38.4222 152.261 43.0151Z" fill="#3E88F6"/>
<path d="M139.275 237.21C148.11 214.467 154.068 199.01 155.396 175.609C156.365 160.223 158.127 144.896 160.674 129.691C160.674 129.691 188.738 134.376 189.175 151.155C189.613 167.934 183.152 194.871 172.839 208.504C163.308 221.111 148.768 242.289 148.768 242.289L139.275 237.21Z" fill="#3E88F6"/>
<path d="M171.054 208.504C162.418 221.753 146.983 242.289 146.983 242.289L137.49 237.21C146.325 214.467 152.283 199.01 153.611 175.609C154.58 160.223 156.342 144.896 158.889 129.691" stroke="black" stroke-width="0.809548" stroke-linecap="round" stroke-linejoin="round"/>
<path d="M141.91 165.229C142.131 201.659 166.196 229.038 175.911 240.738L186.732 237.651C186.732 237.651 178.782 196.801 176.132 180.686C173.482 164.571 182.096 135.643 162.666 133.192C143.237 130.742 142.368 160.825 141.91 165.229Z" fill="#3E88F6"/>
<path d="M164.446 133.214C145.017 130.785 144.132 160.814 143.689 165.229C143.91 201.658 167.975 229.037 177.69 240.738L188.511 237.651" stroke="black" stroke-width="0.809548" stroke-linecap="round" stroke-linejoin="round"/>
<path d="M226.334 11.7941L226.134 11.9884C226.07 10.8118 225.503 9.65149 224.305 9.71626L224.208 9.84578C224.078 9.71086 223.932 9.57593 223.776 9.4356C223.643 9.30225 223.485 9.19715 223.311 9.12665C223.136 9.05616 222.949 9.02174 222.761 9.02544L222.929 8.85814C222.929 8.85814 226.037 4.05481 225.309 2.75414C224.688 1.64236 217.915 9.4518 212.739 19.0692L211.978 19.9112L215.831 23.5757L216.603 23.1062C218.762 22.6366 221.768 20.3213 223.679 17.6498C223.679 17.6498 225.967 17.8117 226.221 15.993C226.237 15.8387 226.237 15.6831 226.221 15.5288C227.284 14.5681 227.721 11.983 226.334 11.7941Z" fill="white"/>
<path d="M225.174 10.8874L224.974 11.0817C224.965 10.801 224.9 10.5248 224.784 10.2692C224.668 10.0136 224.502 9.78355 224.296 9.59237C224.09 9.40119 223.849 9.25265 223.585 9.15535C223.322 9.05804 223.042 9.0139 222.761 9.02544L222.929 8.85814C222.929 8.85814 226.037 4.05481 225.309 2.75414C224.688 1.64236 217.915 9.4518 212.739 19.0692L211.978 19.9112L214.677 22.669L215.443 22.1995C217.602 21.73 220.608 19.4146 222.518 16.7431C222.518 16.7431 224.812 16.905 225.06 15.0863C225.079 14.9321 225.079 14.7763 225.06 14.6221C226.129 13.6345 226.561 11.0763 225.174 10.8874Z" fill="#C4C7D6"/>
<path d="M212.728 19.0853C217.904 9.46246 224.688 1.64223 225.308 2.75401C226.037 4.05469 222.928 8.85801 222.928 8.85801" stroke="black" stroke-width="0.809548" stroke-linecap="round" stroke-linejoin="round"/>
<path d="M219.263 11.4967C221.109 10.0935 222.356 8.16137 223.775 9.43506C225.108 10.5954 225.437 11.5669 224.887 12.2091C224.626 12.4619 224.282 12.6107 223.919 12.6276C223.556 12.6445 223.2 12.5283 222.917 12.3009" stroke="black" stroke-width="0.809548" stroke-linecap="round" stroke-linejoin="round"/>
<path d="M221.855 17.8069C223.63 15.7345 222.394 13.9697 221.693 13.3652L223.355 11.7461" stroke="black" stroke-width="0.809548" stroke-linecap="round" stroke-linejoin="round"/>
<path d="M224.305 9.70932C226.221 9.61217 226.523 12.6345 225.741 13.865C224.958 15.0955 222.767 14.5342 221.693 13.3631" stroke="black" stroke-width="0.809548" stroke-linecap="round" stroke-linejoin="round"/>
<path d="M226.334 11.793C227.899 12.0088 227.144 15.247 225.794 15.8299C225.312 16.0748 224.763 16.1577 224.229 16.0663C223.695 15.975 223.205 15.7142 222.832 15.3226" stroke="black" stroke-width="0.809548" stroke-linecap="round" stroke-linejoin="round"/>
<path d="M226.22 15.9922C225.967 17.811 223.101 17.7246 222.599 16.8827" stroke="black" stroke-width="0.809548" stroke-linecap="round" stroke-linejoin="round"/>
<path d="M223.678 17.6484C221.768 20.3469 218.778 22.6353 216.603 23.1048" stroke="black" stroke-width="0.809548" stroke-linecap="round" stroke-linejoin="round"/>
<path d="M161.225 66.4061C184.853 47.4627 207.995 23.2302 211.617 19.2688C211.755 19.1181 211.939 19.0181 212.141 18.9848C212.342 18.9516 212.549 18.9869 212.728 19.0853C214.687 20.2445 216.453 21.7011 217.964 23.4029C218.102 23.5537 218.184 23.747 218.198 23.9509C218.212 24.1549 218.156 24.3575 218.039 24.5255C209.102 37.4782 182.09 84.432 178.447 91.243C174.755 98.1728 161.959 93.3155 157.685 85.7381C153.41 78.1607 151.246 73.9835 161.225 66.4061Z" fill="white"/>
<path d="M159.459 65.7206C183.087 46.7771 206.991 21.9078 210.612 17.968C210.75 17.8173 210.935 17.7173 211.136 17.6841C211.338 17.6508 211.545 17.6862 211.724 17.7845C213.681 18.9451 215.447 20.4016 216.959 22.1021C217.095 22.2538 217.177 22.4469 217.19 22.6504C217.204 22.8538 217.149 23.0561 217.034 23.2247C208.097 36.1775 180.335 83.7303 176.681 90.5575C172.984 97.4872 160.193 92.6353 155.919 85.0526C151.644 77.4698 149.464 73.2979 159.459 65.7206Z" fill="#6F69DB"/>
<path d="M161.225 66.4061C184.853 47.4627 207.995 23.2302 211.617 19.2688C211.755 19.1181 211.939 19.0181 212.141 18.9848C212.342 18.9516 212.549 18.9869 212.728 19.0853C214.687 20.2445 216.453 21.7011 217.964 23.4029C218.102 23.5537 218.184 23.747 218.198 23.9509C218.212 24.1549 218.156 24.3575 218.039 24.5255C209.102 37.4782 182.09 84.432 178.447 91.243C174.755 98.1728 161.959 93.3155 157.685 85.7381C153.41 78.1607 151.246 73.9835 161.225 66.4061Z" stroke="black" stroke-width="0.809548" stroke-linecap="round" stroke-linejoin="round"/>
<path d="M167.166 71.9003C168.508 71.9003 169.595 70.8129 169.595 69.4716C169.595 68.1303 168.508 67.043 167.166 67.043C165.825 67.043 164.738 68.1303 164.738 69.4716C164.738 70.8129 165.825 71.9003 167.166 71.9003Z" fill="white"/>
<path d="M185.645 68.787C186.986 68.787 188.074 67.6996 188.074 66.3583C188.074 65.017 186.986 63.9297 185.645 63.9297C184.304 63.9297 183.216 65.017 183.216 66.3583C183.216 67.6996 184.304 68.787 185.645 68.787Z" fill="white"/>
<path d="M188.188 54.0839C189.529 54.0839 190.617 52.9965 190.617 51.6552C190.617 50.3139 189.529 49.2266 188.188 49.2266C186.847 49.2266 185.759 50.3139 185.759 51.6552C185.759 52.9965 186.847 54.0839 188.188 54.0839Z" fill="white"/>
<path d="M201.426 46.5214C202.768 46.5214 203.855 45.434 203.855 44.0927C203.855 42.7514 202.768 41.6641 201.426 41.6641C200.085 41.6641 198.998 42.7514 198.998 44.0927C198.998 45.434 200.085 46.5214 201.426 46.5214Z" fill="white"/>
<path d="M206.366 33.701C207.707 33.701 208.794 32.6137 208.794 31.2724C208.794 29.9311 207.707 28.8438 206.366 28.8438C205.024 28.8438 203.937 29.9311 203.937 31.2724C203.937 32.6137 205.024 33.701 206.366 33.701Z" fill="white"/>
<path d="M178.485 82.3378C179.826 82.3378 180.913 81.2504 180.913 79.9091C180.913 78.5678 179.826 77.4805 178.485 77.4805C177.143 77.4805 176.056 78.5678 176.056 79.9091C176.056 81.2504 177.143 82.3378 178.485 82.3378Z" fill="white"/>
<path d="M133.862 56.5185C141.644 75.1219 119.101 88.4416 116.192 91.41C113.283 94.3783 89.4448 110.429 104.573 126.771C119.7 143.113 170.821 135.147 168.894 109.096C166.967 83.0446 140.83 45.0391 140.83 45.0391L133.862 56.5185Z" fill="#3E88F6"/>
<path d="M145.082 68.6406C137.645 74.8903 129.015 74.5773 129.118 79.4346C129.22 84.2919 135.054 87.7621 140.127 87.665C145.201 87.5679 153.318 72.71 145.082 68.6406Z" fill="#6F69DB"/>
<path d="M145.558 75.0473C153.238 83.9146 159.051 93.3593 162.343 101.547C165.635 109.734 170.087 118.731 170.838 140.653C177.211 140.961 182.959 141.463 182.959 141.463C182.959 141.463 181.961 129.222 181.146 123.113C180.331 117.004 179.77 112.119 175.085 97.6229C170.4 83.1266 160.011 68.1284 159.677 67.5077C159.342 66.8871 157.032 67.7614 157.032 67.7614C157.032 67.7614 148.224 73.2178 145.558 75.0473Z" fill="white"/>
<path d="M147.666 77.3164C160.419 91.2244 167.878 114.448 170.193 133.882C172.509 153.317 165.223 184.787 162.902 195.365C138.891 196.029 127.633 191.889 122.166 191.889C125.479 157.775 140.213 132.441 139.884 122.009C139.555 111.576 130.293 94.4411 134.444 86.0649C138.594 77.6888 147.666 77.3164 147.666 77.3164Z" fill="white"/>
<path d="M145.557 75.0469C159.794 90.7791 169.644 113.274 171.959 132.708C174.274 152.143 166.983 183.613 164.668 194.234C140.656 194.898 129.398 190.758 123.931 190.758C127.245 156.649 141.979 131.31 141.649 120.878C141.32 110.446 127.078 95.6256 131.217 87.2657C135.357 78.9057 145.557 75.0469 145.557 75.0469Z" fill="#6F69DB"/>
<path d="M152.82 83.8281C162.449 97.8009 168.213 117.235 170.193 133.885C172.509 153.314 165.223 184.79 162.902 195.411C138.891 196.075 127.633 191.935 122.166 191.935C125.479 157.821 140.213 132.487 139.884 122.055C139.739 119.638 139.358 117.241 138.745 114.899" stroke="black" stroke-width="0.809548" stroke-linecap="round" stroke-linejoin="round"/>
<path d="M181.685 146.431C179.629 114.443 169.936 89.7622 157.609 67.4403C159.876 64.6231 167.01 70.4248 169.946 69.8366C184.621 112.975 189.316 123.542 190.196 150.252C191.076 176.961 181.388 194.858 181.388 194.858L180.4 194.545C180.4 194.545 183.736 178.419 181.685 146.431Z" fill="#6F69DB"/>
<path d="M188.513 237.65C188.513 237.65 180.563 196.8 177.913 180.685C177.426 177.109 177.245 173.497 177.373 169.891" stroke="black" stroke-width="0.809548" stroke-linecap="round" stroke-linejoin="round"/>
<path d="M146.08 117.389C147.422 117.389 148.509 116.301 148.509 114.96C148.509 113.619 147.422 112.531 146.08 112.531C144.739 112.531 143.652 113.619 143.652 114.96C143.652 116.301 144.739 117.389 146.08 117.389Z" fill="white"/>
<path d="M156.95 123.873C158.291 123.873 159.378 122.786 159.378 121.444C159.378 120.103 158.291 119.016 156.95 119.016C155.608 119.016 154.521 120.103 154.521 121.444C154.521 122.786 155.608 123.873 156.95 123.873Z" fill="white"/>
<path d="M141.379 144.822C142.721 144.822 143.808 143.735 143.808 142.393C143.808 141.052 142.721 139.965 141.379 139.965C140.038 139.965 138.951 141.052 138.951 142.393C138.951 143.735 140.038 144.822 141.379 144.822Z" fill="white"/>
<path d="M146.368 163.037C147.709 163.037 148.796 161.95 148.796 160.608C148.796 159.267 147.709 158.18 146.368 158.18C145.026 158.18 143.939 159.267 143.939 160.608C143.939 161.95 145.026 163.037 146.368 163.037Z" fill="white"/>
<path d="M158.397 152.658C159.738 152.658 160.826 151.571 160.826 150.229C160.826 148.888 159.738 147.801 158.397 147.801C157.056 147.801 155.968 148.888 155.968 150.229C155.968 151.571 157.056 152.658 158.397 152.658Z" fill="white"/>
<path d="M162.336 167.951C163.678 167.951 164.765 166.864 164.765 165.522C164.765 164.181 163.678 163.094 162.336 163.094C160.995 163.094 159.908 164.181 159.908 165.522C159.908 166.864 160.995 167.951 162.336 167.951Z" fill="white"/>
<path d="M151.143 179.439C152.484 179.439 153.572 178.352 153.572 177.011C153.572 175.669 152.484 174.582 151.143 174.582C149.802 174.582 148.714 175.669 148.714 177.011C148.714 178.352 149.802 179.439 151.143 179.439Z" fill="white"/>
<path d="M134.795 169.267C136.137 169.267 137.224 168.18 137.224 166.839C137.224 165.497 136.137 164.41 134.795 164.41C133.454 164.41 132.367 165.497 132.367 166.839C132.367 168.18 133.454 169.267 134.795 169.267Z" fill="white"/>
<path d="M168.7 77.6893C170.041 77.6893 171.128 76.602 171.128 75.2607C171.128 73.9194 170.041 72.832 168.7 72.832C167.358 72.832 166.271 73.9194 166.271 75.2607C166.271 76.602 167.358 77.6893 168.7 77.6893Z" fill="white"/>
<path d="M177.485 95.2049C178.826 95.2049 179.913 94.1176 179.913 92.7763C179.913 91.435 178.826 90.3477 177.485 90.3477C176.143 90.3477 175.056 91.435 175.056 92.7763C175.056 94.1176 176.143 95.2049 177.485 95.2049Z" fill="white"/>
<path d="M178.965 111.873C180.307 111.873 181.394 110.786 181.394 109.444C181.394 108.103 180.307 107.016 178.965 107.016C177.624 107.016 176.537 108.103 176.537 109.444C176.537 110.786 177.624 111.873 178.965 111.873Z" fill="white"/>
<path d="M189.18 147.291C190.521 147.291 191.609 146.204 191.609 144.862C191.609 143.521 190.521 142.434 189.18 142.434C187.839 142.434 186.751 143.521 186.751 144.862C186.751 146.204 187.839 147.291 189.18 147.291Z" fill="white"/>
<path d="M185.862 162.803C187.203 162.803 188.29 161.715 188.29 160.374C188.29 159.033 187.203 157.945 185.862 157.945C184.52 157.945 183.433 159.033 183.433 160.374C183.433 161.715 184.52 162.803 185.862 162.803Z" fill="white"/>
<path d="M186.829 177.279C188.17 177.279 189.257 176.192 189.257 174.851C189.257 173.509 188.17 172.422 186.829 172.422C185.487 172.422 184.4 173.509 184.4 174.851C184.4 176.192 185.487 177.279 186.829 177.279Z" fill="white"/>
<path d="M156.329 105.974C157.67 105.974 158.757 104.887 158.757 103.546C158.757 102.205 157.67 101.117 156.329 101.117C154.987 101.117 153.9 102.205 153.9 103.546C153.9 104.887 154.987 105.974 156.329 105.974Z" fill="white"/>
<path d="M183.152 194.853C183.152 194.853 192.84 176.951 191.96 150.247C191.08 123.543 186.38 112.976 171.711 69.8321C168.775 70.4203 164.668 71.0086 159.675 67.4844C172.002 89.7901 181.393 114.438 183.449 146.426C185.505 178.414 181.225 188.571 181.225 188.571" stroke="black" stroke-width="0.809548" stroke-linecap="round" stroke-linejoin="round"/>
<path d="M132.388 77.37C134.968 77.37 141.612 73.7972 143.495 72.4102" stroke="black" stroke-width="0.809548" stroke-linecap="round" stroke-linejoin="round"/>
<path d="M144.549 69.2492C141.661 72.7842 145.79 78.1272 150.485 83.821C160.114 97.7938 165.878 117.228 167.858 133.878L186.872 124.984C186.872 124.984 184.713 130.921 180.579 115.545C176.445 100.169 164.517 67.3602 156.238 66.3672" stroke="#FF6A5A" stroke-width="1.0794" stroke-linecap="round" stroke-linejoin="round"/>
<path d="M150.571 40.2709C145.39 36.6981 139.907 35.4136 134.493 39.3642C128.557 43.6818 130.138 51.6585 131.87 54.4379C133.603 57.2174 154.084 43.2878 150.571 40.2709Z" fill="white"/>
<path d="M158.391 69.9185C156.772 66.173 155.741 63.3504 155.741 63.3504L155.282 63.5069C160.679 60.5224 159.6 54.5317 155.768 48.1849C151.073 40.4726 142.902 38.0547 137.478 43.6082C132.054 49.1617 137.019 57.4353 142.713 65.8978C143.385 66.9805 143.998 68.0994 144.548 69.2493C145.473 71.0153 146.216 72.8706 146.766 74.7866C147.845 78.3432 159.719 72.9462 158.391 69.9185Z" fill="white"/>
<path d="M157.3 70.4239C155.622 66.7486 154.386 63.3323 154.386 63.3323L153.927 63.4888C159.324 60.5042 158.271 54.5082 154.413 48.1667C149.717 40.4491 141.546 38.0366 136.122 43.5901C130.698 49.1436 135.663 57.4118 141.363 65.8796C142.033 66.9606 142.644 68.0777 143.192 69.2258C144.102 70.9922 144.851 72.8363 145.432 74.7361C146.468 78.174 158.277 72.5557 157.3 70.4239Z" fill="#C4C7D6"/>
<path d="M158.284 69.6165C156.8 66.2704 155.742 63.3398 155.742 63.3398" stroke="#121C2C" stroke-width="0.809548" stroke-linecap="round" stroke-linejoin="round"/>
<path d="M146.663 74.3533C146.101 72.5955 145.394 70.8877 144.547 69.2478C143.998 68.0978 143.385 66.979 142.712 65.8962C137.019 57.4338 132.059 49.1656 137.477 43.6067C142.896 38.0478 151.083 40.471 155.768 48.1833C160.452 55.8956 161.008 63.0952 150.84 64.9895" stroke="#121C2C" stroke-width="0.809548" stroke-linecap="round" stroke-linejoin="round"/>
<path d="M155.817 55.173C155.007 55.5778 153.453 56.2956 152.487 56.6895C152.452 56.7049 152.421 56.7274 152.395 56.7556C152.37 56.7839 152.351 56.8172 152.339 56.8533C152.327 56.8895 152.323 56.9278 152.327 56.9656C152.331 57.0034 152.343 57.0399 152.363 57.0727C153.485 59.0319 157.042 57.9201 156.189 55.3457C156.179 55.3081 156.16 55.2733 156.135 55.2435C156.11 55.2138 156.078 55.1899 156.043 55.1735C156.007 55.1571 155.969 55.1485 155.93 55.1484C155.891 55.1484 155.852 55.1567 155.817 55.173Z" fill="white" stroke="#121C2C" stroke-width="0.809548" stroke-linecap="round" stroke-linejoin="round"/>
<path d="M152.848 51.2C153.161 50.86 155.299 53.0296 154.387 53.5909C153.474 54.1522 152.541 51.5346 152.848 51.2Z" fill="#3E88F6"/>
<path d="M156.42 51.9083C156.54 51.9083 156.636 51.8117 156.636 51.6924C156.636 51.5732 156.54 51.4766 156.42 51.4766C156.301 51.4766 156.205 51.5732 156.205 51.6924C156.205 51.8117 156.301 51.9083 156.42 51.9083Z" fill="#3E88F6"/>
<path d="M156.028 52.8533C156.186 52.8533 156.314 52.7253 156.314 52.5673C156.314 52.4093 156.186 52.2812 156.028 52.2812C155.87 52.2812 155.742 52.4093 155.742 52.5673C155.742 52.7253 155.87 52.8533 156.028 52.8533Z" fill="#3E88F6"/>
<path d="M156.967 52.7387C157.104 52.7387 157.215 52.6276 157.215 52.4904C157.215 52.3533 157.104 52.2422 156.967 52.2422C156.829 52.2422 156.718 52.3533 156.718 52.4904C156.718 52.6276 156.829 52.7387 156.967 52.7387Z" fill="#3E88F6"/>
<path d="M148.251 56.0099C148.37 56.0099 148.466 55.9132 148.466 55.794C148.466 55.6748 148.37 55.5781 148.251 55.5781C148.131 55.5781 148.035 55.6748 148.035 55.794C148.035 55.9132 148.131 56.0099 148.251 56.0099Z" fill="#3E88F6"/>
<path d="M149.157 55.8936C149.387 55.8936 149.573 55.7076 149.573 55.4781C149.573 55.2486 149.387 55.0625 149.157 55.0625C148.928 55.0625 148.742 55.2486 148.742 55.4781C148.742 55.7076 148.928 55.8936 149.157 55.8936Z" fill="#3E88F6"/>
<path d="M148.553 57.2235C148.714 57.2235 148.844 57.093 148.844 56.9321C148.844 56.7711 148.714 56.6406 148.553 56.6406C148.392 56.6406 148.261 56.7711 148.261 56.9321C148.261 57.093 148.392 57.2235 148.553 57.2235Z" fill="#3E88F6"/>
<path d="M148.987 52.1475L148.949 52.1691C148.704 52.3109 148.62 52.6245 148.762 52.8696L149.021 53.3181C149.163 53.5633 149.477 53.6471 149.722 53.5053L149.759 53.4837C150.004 53.3419 150.088 53.0283 149.946 52.7832L149.687 52.3347C149.545 52.0895 149.232 52.0057 148.987 52.1475Z" fill="black"/>
<path d="M154.869 49.3584L154.832 49.3801C154.587 49.5218 154.503 49.8354 154.645 50.0806L154.904 50.5291C155.046 50.7742 155.36 50.858 155.605 50.7163L155.642 50.6946C155.887 50.5529 155.971 50.2393 155.829 49.9941L155.57 49.5456C155.428 49.3005 155.115 49.2167 154.869 49.3584Z" fill="black"/>
<path d="M152.666 46.5368C152.996 46.8322 153.382 47.0585 153.801 47.2022C154.22 47.3458 154.663 47.4041 155.105 47.3734L153.831 45.3711L152.666 46.5368Z" fill="#121C2C"/>
<path d="M148.785 40.8087C143.75 37.3709 138.412 36.1457 133.134 39.9344C127.37 44.0847 128.903 51.7808 130.587 54.4523C132.271 57.1238 152.207 43.7123 148.785 40.8087Z" fill="#8990AB"/>
<path d="M150.571 40.2709C145.39 36.6981 139.907 35.4136 134.493 39.3642C128.557 43.6818 130.138 51.6585 131.87 54.4379C133.603 57.2174 154.084 43.2878 150.571 40.2709Z" stroke="#121C2C" stroke-width="0.809548" stroke-linecap="round" stroke-linejoin="round"/>
<path d="M137.758 58.2839C145.394 53.8368 154.882 44.6349 155.843 43.712C156.804 42.7891 152.114 39.157 150.894 39.3513C149.674 39.5456 143.905 44.3758 139.474 47.5925C135.043 50.8091 130.623 52.8113 130.752 54.4196C130.882 56.0279 132.431 59.169 133.008 60.0055C133.586 60.8421 136.155 59.4658 137.758 58.2839Z" fill="white"/>
<path d="M136.862 57.741C143.997 53.4557 153.053 44.7882 153.981 43.9463C154.91 43.1043 150.862 39.9363 149.75 40.1684C148.638 40.4004 143.16 44.9555 138.988 48.021C134.817 51.0865 130.715 53.0456 130.742 54.4974C130.769 55.9492 131.999 58.7556 132.48 59.495C132.96 60.2344 135.351 58.8204 136.862 57.741Z" fill="#8990AB"/>
<path d="M137.758 58.2839C145.394 53.8368 154.882 44.6349 155.843 43.712C156.804 42.7891 152.114 39.157 150.894 39.3513C149.674 39.5456 143.905 44.3758 139.474 47.5925C135.043 50.8091 130.623 52.8113 130.752 54.4196C130.882 56.0279 132.431 59.169 133.008 60.0055C133.586 60.8421 136.155 59.4658 137.758 58.2839Z" stroke="#121C2C" stroke-width="0.809548" stroke-linecap="round" stroke-linejoin="round"/>
<path d="M137.705 62.2855C139.353 62.2855 140.689 60.9493 140.689 59.301C140.689 57.6526 139.353 56.3164 137.705 56.3164C136.056 56.3164 134.72 57.6526 134.72 59.301C134.72 60.9493 136.056 62.2855 137.705 62.2855Z" fill="#C4C7D6"/>
<path d="M140.786 60.6578C140.502 61.1208 140.087 61.489 139.593 61.7159C139.099 61.9427 138.549 62.0181 138.013 61.9324C137.476 61.8467 136.977 61.6038 136.578 61.2344C136.18 60.865 135.9 60.3858 135.774 59.8572C135.648 59.3287 135.681 58.7746 135.87 58.2651C136.059 57.7556 136.394 57.3135 136.835 56.9948C137.275 56.6761 137.799 56.4951 138.342 56.4746C138.885 56.4542 139.422 56.5952 139.885 56.8799" stroke="#121C2C" stroke-width="0.809548" stroke-linecap="round" stroke-linejoin="round"/>
<path d="M146.227 52.1719C144.257 55.885 141.057 58.6213 139.443 57.0993L146.227 52.1719Z" fill="#121C2C"/>
<path d="M172.968 125.941C175.084 124.511 179.148 123.199 179.148 123.199L182.289 132.061L176.514 134.22L172.968 125.941Z" fill="#FF6A5A"/>
<path d="M184.443 135.998C185.587 138.059 188.836 138.448 191.691 136.861C194.546 135.275 195.933 132.317 194.789 130.25" stroke="#121C2C" stroke-width="0.809548" stroke-linecap="round" stroke-linejoin="round"/>
<path d="M191.903 138.799C194.241 137.501 195.375 135.08 194.437 133.391C193.499 131.703 190.844 131.386 188.507 132.684C186.17 133.983 185.035 136.404 185.973 138.092C186.911 139.781 189.566 140.097 191.903 138.799Z" fill="#FF6A5A"/>
<path d="M179.878 121.558C181.194 120.827 181.65 119.134 180.896 117.776C180.142 116.419 178.464 115.911 177.148 116.641C175.832 117.372 175.376 119.065 176.13 120.423C176.885 121.78 178.563 122.288 179.878 121.558Z" fill="#FF6A5A"/>
<path d="M184.701 119.499C183.848 117.961 181.43 117.67 179.304 118.851C177.178 120.033 176.293 122.09 177.145 123.628L183.373 135.884C184.523 137.951 187.767 138.34 190.622 136.753C193.477 135.167 194.864 132.204 193.719 130.142L184.701 119.499Z" fill="#FF6A5A"/>
<path d="M192.791 132.91C192.127 131.717 190.033 131.61 188.112 132.678C186.19 133.747 185.176 135.576 185.84 136.769" stroke="#121C2C" stroke-width="0.809548" stroke-linecap="round" stroke-linejoin="round"/>
<path d="M180.33 116.969C179.79 116.019 178.306 115.841 176.989 116.569C175.672 117.298 175.041 118.663 175.564 119.613" stroke="#121C2C" stroke-width="0.809548" stroke-linecap="round" stroke-linejoin="round"/>
<path d="M191.766 126.624L184.68 118.264C183.827 116.726 181.409 116.434 179.283 117.621C177.156 118.809 176.973 120.536 177.831 122.074" stroke="#121C2C" stroke-width="0.809548" stroke-linecap="round" stroke-linejoin="round"/>
<path d="M183.925 135.08C182.781 133.018 184.162 130.061 187.023 128.474C189.883 126.887 193.121 127.271 194.271 129.338" stroke="#121C2C" stroke-width="0.809548" stroke-linecap="round" stroke-linejoin="round"/>
<path d="M187.519 136.699C188.059 137.692 189.802 137.779 191.394 136.894" stroke="white" stroke-width="0.809548" stroke-linecap="round" stroke-linejoin="round"/>
<path d="M191.266 138.206C192.855 137.323 193.698 135.805 193.148 134.814C192.598 133.824 190.863 133.737 189.274 134.62C187.685 135.503 186.842 137.021 187.392 138.012C187.942 139.002 189.676 139.089 191.266 138.206Z" stroke="#121C2C" stroke-width="0.809548" stroke-linecap="round" stroke-linejoin="round"/>
<path d="M167.578 140.819C167.847 143.167 170.702 144.765 173.946 144.387C177.19 144.009 179.608 141.807 179.343 139.465" stroke="#121C2C" stroke-width="0.809548" stroke-linecap="round" stroke-linejoin="round"/>
<path d="M171.472 146.201C174.119 145.907 176.092 144.118 175.88 142.206C175.667 140.294 173.349 138.982 170.702 139.276C168.055 139.57 166.082 141.359 166.294 143.271C166.507 145.183 168.825 146.495 171.472 146.201Z" fill="#FF6A5A"/>
<path d="M168.605 124.145C170.1 123.973 171.212 122.957 171.087 121.876C170.963 120.795 169.65 120.059 168.154 120.231C166.659 120.403 165.548 121.419 165.672 122.5C165.797 123.581 167.11 124.317 168.605 124.145Z" fill="#FF6A5A"/>
<path d="M174.022 124.664C173.811 122.823 171.68 121.555 169.256 121.836C166.833 122.116 165.052 123.833 165.262 125.678L166.617 140.04C166.903 142.512 169.726 144.428 172.975 144.05C176.224 143.672 178.658 141.157 178.372 138.685L174.022 124.664Z" fill="#FF6A5A"/>
<path d="M176.477 141.143C176.321 139.788 174.426 138.887 172.246 139.14C170.065 139.394 168.425 140.695 168.587 142.055" stroke="#121C2C" stroke-width="0.809548" stroke-linecap="round" stroke-linejoin="round"/>
<path d="M171.052 121.648C170.928 120.568 169.617 119.829 168.122 120.002C166.627 120.174 165.515 121.189 165.645 122.268" stroke="#121C2C" stroke-width="0.809548" stroke-linecap="round" stroke-linejoin="round"/>
<path d="M178.851 137.792L174.587 124.51C174.388 122.762 172.261 121.569 169.843 121.85C167.425 122.13 165.623 123.771 165.828 125.519" stroke="#121C2C" stroke-width="0.809548" stroke-linecap="round" stroke-linejoin="round"/>
<path d="M170.162 142.633C170.291 143.755 171.856 144.5 173.664 144.29" stroke="white" stroke-width="0.809548" stroke-linecap="round" stroke-linejoin="round"/>
<path d="M173.028 145.472C174.835 145.263 176.194 144.183 176.064 143.057C175.935 141.932 174.365 141.189 172.559 141.397C170.753 141.605 169.394 142.686 169.523 143.811C169.653 144.936 171.222 145.68 173.028 145.472Z" stroke="#121C2C" stroke-width="0.809548" stroke-linecap="round" stroke-linejoin="round"/>
<path d="M178.727 133.01C178.596 132.263 178.365 131.537 178.041 130.851L178.128 130.511C178.246 129.88 178.516 129.712 177.82 128.978L177.28 128.061C177.151 127.608 177.28 127.775 176.789 127.214L176.088 126.285C175.548 124.375 171.149 121.59 168.877 122.804C166.605 124.019 163.329 130.419 160.258 130.603L159.746 136.745C159.746 136.745 160.96 136.685 163.772 137.614C166.584 138.542 170.469 133.296 175.186 131.86C176.989 131.38 178.921 134.737 178.727 133.01Z" fill="#C4C7D6"/>
<path d="M160.107 129.71C163.178 129.527 166.454 123.142 168.742 121.922C171.03 120.703 175.656 124.232 176.19 126.137" stroke="#121C2C" stroke-width="0.809548" stroke-linecap="round" stroke-linejoin="round"/>
<path d="M170.06 123.807C172.332 122.587 176.725 126.165 177.26 128.07" stroke="#121C2C" stroke-width="0.809548" stroke-linecap="round" stroke-linejoin="round"/>
<path d="M171.275 126.075C173.547 124.861 178.663 128.417 178.291 130.446" stroke="#121C2C" stroke-width="0.809548" stroke-linecap="round" stroke-linejoin="round"/>
<path d="M172.991 128.291C176.229 127.525 178.388 130.396 178.571 132.118C178.755 133.84 176.844 130.499 175.036 130.968C170.319 132.399 166.433 137.65 163.621 136.722C160.81 135.793 159.595 135.853 159.595 135.853" stroke="#121C2C" stroke-width="0.809548" stroke-linecap="round" stroke-linejoin="round"/>
<path d="M178.63 124.855L181.95 132.978" stroke="#121C2C" stroke-width="0.809548" stroke-linecap="round" stroke-linejoin="round"/>
<path d="M150.447 99.458C135.432 114.472 134.768 115.109 135.432 118.007C136.096 120.906 140.737 128.051 159.314 128.375C159.665 128.381 160.001 128.521 160.254 128.765C160.506 129.01 160.656 129.341 160.674 129.692L160.971 135.397C160.99 135.763 160.863 136.123 160.619 136.397C160.374 136.671 160.031 136.837 159.665 136.859C128.395 138.575 114.222 124.7 113.353 114.251C112.473 103.657 130.354 87.3148 133.667 83.7851C134.844 82.5384 137.985 87.2392 142.643 92.2044C145.028 94.7464 154.419 95.0271 150.447 99.458Z" fill="white"/>
<path d="M154.786 96.6015C139.771 111.616 135.357 116.883 136.02 119.755C136.684 122.626 141.326 129.798 159.902 130.122C160.253 130.129 160.588 130.267 160.84 130.511C161.092 130.754 161.243 131.084 161.262 131.434L161.559 137.144C161.578 137.51 161.452 137.87 161.207 138.144C160.962 138.418 160.619 138.584 160.253 138.606C128.983 140.323 114.81 126.447 113.941 115.998C113.062 105.404 133.37 83.9618 136.684 80.4322C138.433 78.7213 141.288 77.194 143.49 76.0552C144.294 75.6504 142.508 76.7406 144.629 80.9125C147.192 85.9857 156.572 94.3024 154.786 96.6015Z" fill="#6F69DB"/>
<path d="M140.602 102.744C141.943 102.744 143.031 101.657 143.031 100.315C143.031 98.9741 141.943 97.8867 140.602 97.8867C139.261 97.8867 138.173 98.9741 138.173 100.315C138.173 101.657 139.261 102.744 140.602 102.744Z" fill="white"/>
<path d="M129.782 117.537C131.123 117.537 132.21 116.45 132.21 115.108C132.21 113.767 131.123 112.68 129.782 112.68C128.44 112.68 127.353 113.767 127.353 115.108C127.353 116.45 128.44 117.537 129.782 117.537Z" fill="white"/>
<path d="M126.354 104.986C127.695 104.986 128.783 103.899 128.783 102.558C128.783 101.216 127.695 100.129 126.354 100.129C125.013 100.129 123.925 101.216 123.925 102.558C123.925 103.899 125.013 104.986 126.354 104.986Z" fill="white"/>
<path d="M131.989 130.787C133.33 130.787 134.417 129.7 134.417 128.358C134.417 127.017 133.33 125.93 131.989 125.93C130.647 125.93 129.56 127.017 129.56 128.358C129.56 129.7 130.647 130.787 131.989 130.787Z" fill="white"/>
<path d="M148.33 132.994C149.672 132.994 150.759 131.907 150.759 130.565C150.759 129.224 149.672 128.137 148.33 128.137C146.989 128.137 145.902 129.224 145.902 130.565C145.902 131.907 146.989 132.994 148.33 132.994Z" fill="white"/>
<path d="M140.381 89.0565C141.723 89.0565 142.81 87.9692 142.81 86.6279C142.81 85.2866 141.723 84.1992 140.381 84.1992C139.04 84.1992 137.953 85.2866 137.953 86.6279C137.953 87.9692 139.04 89.0565 140.381 89.0565Z" fill="white"/>
<path d="M150.447 99.4564C135.432 114.471 134.768 115.108 135.432 118.006C136.096 120.904 140.737 128.05 159.314 128.373C159.665 128.38 160.001 128.519 160.254 128.764C160.506 129.008 160.656 129.339 160.674 129.69L160.971 135.395C160.99 135.762 160.863 136.121 160.619 136.395C160.374 136.669 160.031 136.835 159.665 136.857C128.395 138.574 114.222 124.698 113.353 114.25C112.473 103.655 130.354 87.3132 133.667 83.7835C136.684 80.4482 140.225 77.3719 143.495 76.082" stroke="black" stroke-width="0.809548" stroke-linecap="round" stroke-linejoin="round"/>
<path d="M133.495 60.5156C137.025 76.4205 117.963 88.3425 114.541 91.408C111.119 94.4735 87.7882 110.427 102.916 126.769C108.696 133.013 119.722 135.712 131.045 135.205" stroke="#121C2C" stroke-width="0.809548" stroke-linecap="round" stroke-linejoin="round"/>
<path d="M183.757 86.6211C193.31 93.3565 201.136 95.8229 203.084 103.627C206.392 116.85 194.335 126.942 185.479 127.913" stroke="#121C2C" stroke-width="0.809548" stroke-linecap="round" stroke-linejoin="round"/>
<path d="M160.162 58.3867C160.82 59.6892 161.484 60.9485 162.153 62.1646" stroke="#121C2C" stroke-width="0.809548" stroke-linecap="round" stroke-linejoin="round"/>
</g>
</svg>
