<svg width="322" height="258" viewBox="0 0 322 258" fill="none" xmlns="http://www.w3.org/2000/svg">
<path d="M222.619 30.1566C165.213 -10.033 44.9172 31.3972 35.7166 127.099C26.5161 222.801 103.771 291.691 211.438 240.022C319.105 188.353 280.024 70.3412 222.613 30.1566H222.619Z" fill="#E1EFFF"/>
<path d="M148.447 46.2332C149.667 45.4129 150.32 43.6356 148.619 42.1621C146.918 40.6886 144.806 42.0557 144.472 43.9039C144.138 45.7521 146.801 47.6257 148.447 46.2332Z" stroke="white" stroke-width="1.01272" stroke-linecap="round" stroke-linejoin="round"/>
<path d="M221.139 71.4344C222.36 70.6141 223.013 68.8367 221.311 67.3632C219.61 65.8897 217.499 67.2569 217.164 69.1051C216.83 70.9533 219.494 72.8268 221.139 71.4344Z" stroke="#9EC4FB" stroke-width="1.01272" stroke-linecap="round" stroke-linejoin="round"/>
<path d="M102.338 197.782C103.558 196.962 104.211 195.184 102.51 193.711C100.808 192.237 98.6969 193.605 98.3627 195.453C98.0285 197.301 100.692 199.175 102.338 197.782Z" stroke="#9EC4FB" stroke-width="1.01272" stroke-linecap="round" stroke-linejoin="round"/>
<path d="M246.873 141.926C248.407 140.898 249.227 138.665 247.09 136.811C244.954 134.958 242.295 136.675 241.875 139.004C241.455 141.328 244.802 143.683 246.873 141.931V141.926Z" stroke="white" stroke-width="1.01272" stroke-linecap="round" stroke-linejoin="round"/>
<path d="M92.5749 185.422C94.1091 184.394 94.9294 182.161 92.7926 180.308C90.6558 178.454 87.9974 180.171 87.5771 182.5C87.1568 184.824 90.5038 187.179 92.5749 185.427V185.422Z" stroke="#9EC4FB" stroke-width="1.01272" stroke-linecap="round" stroke-linejoin="round"/>
<path d="M222.457 111.28C224.821 109.695 226.087 106.252 222.791 103.396C219.494 100.54 215.403 103.183 214.755 106.774C214.107 110.359 219.272 113.984 222.457 111.285V111.28Z" stroke="#9EC4FB" stroke-width="1.01272" stroke-linecap="round" stroke-linejoin="round"/>
<path d="M263.101 232.007C281.573 180.587 261.688 157.152 244.335 165.573C224.04 175.417 238.001 214.629 263.101 232.007Z" fill="#BDBFF4"/>
<path d="M251.601 170.221C251.029 188.004 257.404 217.53 261.789 227.616" stroke="white" stroke-width="1.51907" stroke-linecap="round" stroke-linejoin="round"/>
<path d="M261.202 173.078C259.617 179.934 254.802 186.912 252.938 189.803C245.287 188.968 238.938 180.375 238.938 180.375" stroke="white" stroke-width="1.51907" stroke-linecap="round" stroke-linejoin="round"/>
<path d="M266.164 185.412C264.371 193.078 256.811 204.482 255.92 205.535C248.735 203.16 241.96 197.377 241.96 197.377" stroke="white" stroke-width="1.51907" stroke-linecap="round" stroke-linejoin="round"/>
<path d="M249.069 211.743C252.452 215.51 258.877 219.262 258.877 219.262C258.877 219.262 264.569 211.773 265.597 207.621" stroke="white" stroke-width="1.51907" stroke-linecap="round" stroke-linejoin="round"/>
<path d="M187.466 198.592C151.5 153.637 119.498 158.559 117.478 178.783C115.113 202.43 158.017 211.534 187.466 198.592Z" fill="white"/>
<path d="M125.665 174.828C141.312 185.153 171.328 195.72 182.808 197.351" stroke="#EAEEF5" stroke-width="1.51907" stroke-linecap="round" stroke-linejoin="round"/>
<path d="M133.524 167.785C138.8 172.991 142.411 181.163 143.975 184.429C139.003 190.835 127.787 191.797 127.787 191.797" stroke="#EAEEF5" stroke-width="1.51907" stroke-linecap="round" stroke-linejoin="round"/>
<path d="M147.333 170.135C153.227 175.973 159.293 189.052 159.743 190.43C153.647 195.569 144.72 198.46 144.72 198.46" stroke="#EAEEF5" stroke-width="1.51907" stroke-linecap="round" stroke-linejoin="round"/>
<path d="M161.535 200.004C166.781 199.047 173.693 195.351 173.693 195.351C173.693 195.351 170.113 186.11 166.948 182.895" stroke="#EAEEF5" stroke-width="1.51907" stroke-linecap="round" stroke-linejoin="round"/>
<path d="M218.659 207.215C220.026 208.035 219.717 210.101 218.167 210.486C182.915 219.256 158.265 218.279 158.726 202.547C159.187 186.86 189.457 189.771 218.654 207.215H218.659Z" fill="#1F87FF"/>
<path d="M242.867 212.77C242.649 214.284 240.761 214.851 239.753 213.707C215.296 185.882 215.19 159.37 227.894 157.344C240.568 155.324 247.799 178.297 242.867 212.775V212.77Z" fill="#1F87FF"/>
<path d="M213.762 181.032C213.818 182.566 211.96 183.366 210.886 182.272C186.475 157.354 183.269 141.48 192.764 136.887C202.258 132.29 212.456 146.047 213.762 181.037V181.032Z" fill="#1F87FF"/>
<path d="M195.543 179.861C196.769 180.975 196.009 183.016 194.353 183.057C166.656 183.705 153.313 183.122 154.766 170.965C156.199 158.949 178.433 164.316 195.543 179.861Z" fill="#1F87FF"/>
<path d="M242.057 227.505C227.419 204.613 197.083 173.537 179.775 159.334" stroke="#1F87FF" stroke-width="3.03815" stroke-linecap="round" stroke-linejoin="round"/>
<path d="M176.22 153.891C177.041 155.248 175.957 156.954 174.377 156.797C155.085 154.873 146.816 147.673 151.156 140.229C155.485 132.806 166.65 138.027 176.215 153.886L176.22 153.891Z" fill="#1F87FF"/>
<path d="M274.185 235.724C217.564 183.614 176.276 196.597 177.704 223.728C179.37 255.451 237.9 258.788 274.185 235.724Z" fill="#9EC4FB"/>
<path d="M187.715 216.842C210.476 227.318 252.281 235.197 267.775 235.03" stroke="white" stroke-width="1.51907" stroke-linecap="round" stroke-linejoin="round"/>
<path d="M196.672 205.945C204.703 211.753 211.124 221.82 213.853 225.82C208.577 235.289 193.953 238.833 193.953 238.833" stroke="white" stroke-width="1.51907" stroke-linecap="round" stroke-linejoin="round"/>
<path d="M215.396 206.254C224.364 212.776 235.028 228.827 235.904 230.559C228.886 238.585 217.68 244.216 217.68 244.216" stroke="white" stroke-width="1.51907" stroke-linecap="round" stroke-linejoin="round"/>
<path d="M243.899 219.141C248.73 222.751 255.333 234.235 255.333 234.235C255.333 234.235 246.948 240.524 240.208 242.848" stroke="white" stroke-width="1.51907" stroke-linecap="round" stroke-linejoin="round"/>
<path d="M40.0146 129.021C55.2054 134.759 56.8511 150.162 77.9611 157.585" stroke="white" stroke-width="1.01272" stroke-linecap="round" stroke-linejoin="round"/>
<path d="M42.79 122.945C54.6186 127.913 61.1759 139.154 64.5736 143.164" stroke="white" stroke-width="1.01272" stroke-linecap="round" stroke-linejoin="round"/>
<path d="M24.3525 118.703C27.2489 119.594 30.5453 120.308 34.2873 120.729" stroke="#9EC4FB" stroke-width="1.01272" stroke-linecap="round" stroke-linejoin="round"/>
<path d="M6.55469 107.896C8.19022 109.542 11.8461 113.38 18.5908 116.505" stroke="#9EC4FB" stroke-width="1.01272" stroke-linecap="round" stroke-linejoin="round"/>
<path d="M112.035 246.537C105.781 244.365 99.6389 241.413 93.7246 237.479" stroke="#9EC4FB" stroke-width="1.01272" stroke-linecap="round" stroke-linejoin="round"/>
<path d="M119.113 242.76C105.684 239.367 88.5489 228.399 85.9209 224.678" stroke="white" stroke-width="1.01272" stroke-linecap="round" stroke-linejoin="round"/>
<path d="M168.356 22.2363C174.969 22.6161 181.679 23.7706 188.444 25.9378" stroke="#9EC4FB" stroke-width="1.01272" stroke-linecap="round" stroke-linejoin="round"/>
<path d="M162.584 27.8056C176.433 27.3955 195.907 33.254 199.457 36.12" stroke="#9EC4FB" stroke-width="1.01272" stroke-linecap="round" stroke-linejoin="round"/>
<path d="M281.922 136.035C291.892 139.038 301.432 140.992 304.617 145.869" stroke="#9EC4FB" stroke-width="1.01272" stroke-linecap="round" stroke-linejoin="round"/>
<path d="M255.364 120.045C258.777 125.65 267.821 131.154 276.135 134.041" stroke="white" stroke-width="1.01272" stroke-linecap="round" stroke-linejoin="round"/>
<path d="M264.048 132.713C266.737 135.052 272.565 137.447 276.084 138.202" stroke="white" stroke-width="1.01272" stroke-linecap="round" stroke-linejoin="round"/>
<path d="M208.962 239.84C43.6659 223.778 14.049 128.158 22.7382 107.245C51.6613 39.8689 150.609 105.351 205.979 161.127C241.966 197.372 304.111 204.147 317.434 174.818C326.477 154.903 316.32 122.243 285.715 112.258" stroke="#9EC4FB" stroke-width="1.01272" stroke-linecap="round" stroke-linejoin="round"/>
<path d="M141.459 96.4387L157.03 109.219L177.456 119.919C178.226 120.324 178.697 121.124 178.671 121.995C178.621 123.742 178.104 126.663 175.497 128.699C171.557 131.767 150.746 125.463 150.746 125.463L94.2209 100.302C92.2107 99.4059 89.8511 100.236 88.8434 102.191C88.0434 103.745 88.3016 105.634 89.4916 106.915C91.4107 108.986 94.8134 112.485 100.009 117.275C108.419 125.023 112.095 139.591 101.659 144.624C100.733 145.069 99.6238 144.826 98.9605 144.041C94.9299 139.272 79.8252 121.924 63.004 109.493C43.3319 94.95 28.9767 85.2229 28.9767 62.8975L0.797852 36.8454L29.5084 0.691406C40.7191 11.5022 55.2415 24.4194 61.733 30.1412C63.966 32.1109 66.4776 33.7414 69.1815 34.987L127.448 61.8291C135.666 65.1356 135.575 73.1412 136.158 85.8659L141.464 96.4387H141.459Z" fill="white"/>
<path d="M28.9769 53.4534C28.9769 75.7838 43.3322 85.5109 63.0042 100.048C79.8254 112.485 94.9402 129.843 98.9657 134.602C99.624 135.382 100.733 135.625 101.655 135.185C112.101 130.151 108.425 115.578 100.009 107.831C94.8085 103.041 91.4058 99.5421 89.4918 97.4711C88.3018 96.19 88.0436 94.3013 88.8436 92.7468C89.8513 90.7923 92.2109 89.9618 94.2212 90.8581L150.746 116.019C150.746 116.019 172.565 126.151 176.504 123.078C179.112 121.047 177.796 121.857 177.851 120.115C177.877 119.25 177.406 118.444 176.636 118.039L155.207 103.512L139.636 90.7315L136.163 85.8603C135.581 73.1355 133.844 59.4284 125.626 56.1219L67.3589 29.2798C66.0221 28.6621 61.0395 25.6391 55.6316 22.0997C46.4665 16.0943 34.2532 18.0387 27.3566 26.5556C27.2502 26.6822 27.149 26.8139 27.0477 26.9405C20.6422 34.9257 21.4676 46.496 28.987 53.4483L28.9769 53.4534Z" fill="#C4C7D7"/>
<path d="M10.7529 46.0469L28.9768 62.8934C28.9768 85.2238 43.332 94.951 63.004 109.489C79.8202 121.92 94.9299 139.267 98.9606 144.037C99.6239 144.822 100.733 145.065 101.659 144.62C112.095 139.586 108.419 125.013 100.009 117.271C94.8084 112.481 91.4057 108.982 89.4916 106.911C88.3017 105.63 88.0435 103.741 88.8435 102.187C89.8512 100.232 92.2108 99.4019 94.221 100.298L150.746 125.459C150.746 125.459 171.557 131.763 175.497 128.695C178.104 126.664 178.621 123.737 178.671 121.991C178.697 121.125 178.226 120.32 177.456 119.914L108.505 83.7908" stroke="#2D3142" stroke-width="2.02543" stroke-linecap="round" stroke-linejoin="round"/>
<path d="M44.4658 14.666C51.4485 21.036 57.9501 26.8085 61.7276 30.1403C63.9606 32.1101 66.4721 33.7405 69.1761 34.9862L127.443 61.8282C135.661 65.1348 135.57 73.1403 136.152 85.8651" stroke="#2D3142" stroke-width="2.02543" stroke-linecap="round" stroke-linejoin="round"/>
<path d="M118.628 75.5625C130.097 87.2948 144.665 99.9487 157.881 109.666" stroke="#2D3142" stroke-width="2.02543" stroke-linecap="round" stroke-linejoin="round"/>
<path d="M141.717 96.1045C136.153 85.8659 131.848 77.2882 124.932 69.6523" stroke="#2D3142" stroke-width="2.02543" stroke-linecap="round" stroke-linejoin="round"/>
<path d="M219.084 88.8273L220.633 88.9083C223.18 89.04 225.834 89.6223 228.335 90.5895L279.786 109.259C280.768 109.613 280.444 110.489 279.447 110.175L218.35 90.9692L219.084 88.8223V88.8273Z" fill="#1F87FF"/>
<path d="M219.54 87.405L221.17 87.2379C223.849 86.9645 226.553 87.3797 229.019 88.4532L280.054 108.419C281.027 108.799 280.515 110.262 279.518 109.953L218.35 90.9748L219.54 87.405Z" stroke="#2D3142" stroke-width="2.02543" stroke-linecap="round" stroke-linejoin="round"/>
<path d="M216.469 84.0211L213.932 83.2078C211.879 82.5494 209.681 83.6789 209.023 85.7308C208.365 87.7826 209.497 89.9796 211.55 90.638L214.086 91.4514C216.139 92.1098 218.337 90.9802 218.995 88.9284C219.653 86.8766 218.522 84.6795 216.469 84.0211Z" fill="white"/>
<path d="M218.968 80.2088L248.017 55.5542C251.106 52.9313 255.739 53.3111 258.362 56.3999C260.783 59.2507 260.671 63.4686 258.104 66.1878L252.767 71.8336C247.015 77.9251 239.232 81.7026 230.887 82.452L220.309 83.4039C219.722 83.4546 219.145 83.2216 218.76 82.771C218.112 82.0064 218.203 80.857 218.968 80.2088Z" fill="#BDE9EF"/>
<path d="M214.832 85.3217L212.744 84.6522C211.056 84.1108 209.249 85.0405 208.707 86.7288C208.166 88.4172 209.096 90.2247 210.784 90.7661L212.872 91.4357C214.56 91.9771 216.368 91.0473 216.909 89.359C217.45 87.6707 216.521 85.8631 214.832 85.3217Z" fill="#1F87FF"/>
<path d="M208.757 89.6017C209.332 87.8082 208.345 85.888 206.551 85.3129C204.758 84.7377 202.837 85.7254 202.262 87.5189C201.687 89.3124 202.675 91.2326 204.468 91.8077C206.262 92.3829 208.182 91.3952 208.757 89.6017Z" fill="#1F87FF"/>
<path d="M217.225 79.596L238.781 48.1816C241.075 44.8396 245.642 43.9889 248.989 46.2827C252.073 48.3993 253.076 52.5008 251.308 55.7972L247.642 62.6482C243.688 70.036 237.171 75.7224 229.317 78.639L219.357 82.3354C218.805 82.5431 218.183 82.462 217.696 82.1278C216.866 81.5607 216.658 80.4265 217.225 79.6011V79.596Z" fill="#8290E0"/>
<path d="M218.405 81.85C217.519 81.3791 217.18 80.2803 217.651 79.3891L235.495 45.7264C237.394 42.1465 241.834 40.7793 245.419 42.6781" stroke="#1F87FF" stroke-width="2.02543" stroke-linecap="round" stroke-linejoin="round"/>
<path d="M219.778 80.985L245.065 52.4872C247.754 49.4541 252.397 49.1756 255.425 51.8694C258.225 54.3506 258.706 58.5432 256.544 61.5966L252.058 67.9412C247.217 74.7821 240.047 79.6179 231.89 81.5319L221.55 83.9624C220.973 84.0991 220.37 83.9472 219.924 83.5523C219.175 82.8839 219.104 81.7344 219.772 80.985H219.778Z" stroke="#1F87FF" stroke-width="2.02543" stroke-linecap="round" stroke-linejoin="round"/>
<path d="M211.2 80.3661L181.623 56.3444C178.479 53.7873 173.856 54.2684 171.299 57.4128C168.939 60.3193 169.142 64.5322 171.77 67.1957L177.223 72.7251C183.107 78.69 190.971 82.2953 199.331 82.8675L209.929 83.5916C210.521 83.6321 211.093 83.384 211.463 82.9232C212.096 82.1434 211.98 80.999 211.2 80.3661Z" fill="#BDE9EF"/>
<path d="M212.926 79.7125L190.692 48.769C188.327 45.4777 183.74 44.7232 180.448 47.0929C177.41 49.2753 176.499 53.3971 178.337 56.658L182.15 63.4281C186.261 70.7297 192.9 76.2744 200.819 79.0188L210.855 82.4975C211.412 82.6899 212.03 82.5988 212.511 82.2545C213.326 81.6671 213.514 80.5328 212.926 79.7176V79.7125Z" fill="#8290E0"/>
<path d="M211.797 81.991C212.673 81.4998 212.987 80.3909 212.501 79.5149L193.933 46.2472C191.958 42.7077 187.487 41.4368 183.947 43.4166" stroke="#1F87FF" stroke-width="2.02543" stroke-linecap="round" stroke-linejoin="round"/>
<path d="M210.405 81.1557L184.505 53.2098C181.75 50.2375 177.107 50.0603 174.13 52.8148C171.385 55.3568 170.995 59.5595 173.218 62.5673L177.841 68.8107C182.829 75.5453 190.105 80.224 198.298 81.9608L208.689 84.1686C209.266 84.2901 209.868 84.123 210.304 83.723C211.043 83.0394 211.084 81.8899 210.4 81.1507L210.405 81.1557Z" stroke="#1F87FF" stroke-width="2.02543" stroke-linecap="round" stroke-linejoin="round"/>
<path d="M208.732 89.6811C209.154 88.3656 208.43 86.9572 207.114 86.5353C205.799 86.1135 204.39 86.8379 203.969 88.1534L203.448 89.7783C203.026 91.0938 203.75 92.5023 205.066 92.9241C206.381 93.346 207.79 92.6215 208.211 91.306L208.732 89.6811Z" stroke="#2D3142" stroke-width="2.02543" stroke-linecap="round" stroke-linejoin="round"/>
<path d="M216.469 84.0211L213.932 83.2078C211.879 82.5494 209.681 83.6789 209.023 85.7308C208.365 87.7826 209.497 89.9796 211.55 90.638L214.086 91.4514C216.139 92.1098 218.337 90.9802 218.995 88.9284C219.653 86.8766 218.522 84.6795 216.469 84.0211Z" stroke="#2D3142" stroke-width="2.02543" stroke-linecap="round" stroke-linejoin="round"/>
</svg>
