<svg width="290" height="264" viewBox="0 0 290 264" fill="none" xmlns="http://www.w3.org/2000/svg">
<path d="M273.82 130.496C276.77 192.903 185.99 295.026 98.9991 243.967C12.0078 192.908 2.5505 90.1533 78.1983 37.2029C153.846 -15.7475 281.591 11.3548 273.825 130.501L273.82 130.496Z" fill="#E1EFFF"/>
<path d="M19.8975 143.463H53.3268" stroke="white" stroke-width="1.02796" stroke-linecap="round" stroke-linejoin="round"/>
<path d="M41.6025 149.539H62.0076" stroke="#9EC4FB" stroke-width="1.02796" stroke-linecap="round" stroke-linejoin="round"/>
<path d="M210.138 129.221H230.543" stroke="#9EC4FB" stroke-width="1.02796" stroke-linecap="round" stroke-linejoin="round"/>
<path d="M219.286 171.225H239.691" stroke="white" stroke-width="1.02796" stroke-linecap="round" stroke-linejoin="round"/>
<path d="M194.122 82.8398H214.527" stroke="#9EC4FB" stroke-width="1.02796" stroke-linecap="round" stroke-linejoin="round"/>
<path d="M204.324 201.225H224.729" stroke="white" stroke-width="1.02796" stroke-linecap="round" stroke-linejoin="round"/>
<path d="M66.7725 196.691H100.202" stroke="white" stroke-width="1.02796" stroke-linecap="round" stroke-linejoin="round"/>
<path d="M187.609 210.262H221.039" stroke="white" stroke-width="1.02796" stroke-linecap="round" stroke-linejoin="round"/>
<path d="M166.207 42.8828H199.636" stroke="white" stroke-width="1.02796" stroke-linecap="round" stroke-linejoin="round"/>
<path d="M182.922 139.527H216.351" stroke="#9EC4FB" stroke-width="1.02796" stroke-linecap="round" stroke-linejoin="round"/>
<path d="M107.917 236.242H141.346" stroke="#9EC4FB" stroke-width="1.02796" stroke-linecap="round" stroke-linejoin="round"/>
<path d="M78.2803 169.045H98.6853" stroke="#9EC4FB" stroke-width="1.02796" stroke-linecap="round" stroke-linejoin="round"/>
<path d="M189.435 49.8828H209.84" stroke="white" stroke-width="1.02796" stroke-linecap="round" stroke-linejoin="round"/>
<path d="M66.5615 109.664H86.9666" stroke="white" stroke-width="1.02796" stroke-linecap="round" stroke-linejoin="round"/>
<path d="M98.7676 53.2598H119.173" stroke="#9EC4FB" stroke-width="1.02796" stroke-linecap="round" stroke-linejoin="round"/>
<path d="M3.57817 182.479H68.1856C69.4449 182.479 70.3238 181.245 69.9332 180.043C68.5197 175.679 61.5604 172.477 56.9809 173.489C55.9478 173.716 54.8992 173.089 54.7296 172.045C52.9718 161.483 41.5408 156.091 34.782 161.981C34.2166 162.475 33.4302 162.588 32.7569 162.254C24.4818 158.137 15.1736 165.065 14.7161 170.524C14.6288 171.583 13.7242 172.369 12.6756 172.225C7.91617 171.577 2.8586 176.188 1.79465 180.145C1.48113 181.323 2.3549 182.479 3.57303 182.479H3.57817Z" fill="white"/>
<path d="M60.4756 126.265C69.4395 122.857 81.3587 126.085 82.7927 140.698C84.2267 155.305 68.9923 161.401 57.8749 156.204C46.7626 151.008 46.85 129.765 60.4756 126.27V126.265Z" fill="#FF6A5A"/>
<path d="M8.66671 186.482H71.5318C72.7602 186.482 73.6083 185.279 73.2331 184.113C71.8607 179.867 65.0865 176.752 60.6302 177.734C59.6228 177.955 58.6051 177.343 58.4355 176.331C56.724 166.051 45.6014 160.804 39.0276 166.54C38.4776 167.018 37.7118 167.126 37.059 166.802C29.005 162.798 19.9486 169.541 19.5066 174.851C19.4192 175.879 18.5454 176.644 17.5226 176.506C12.8916 175.879 7.96769 180.361 6.93459 184.21C6.6262 185.356 7.47941 186.482 8.66671 186.482Z" fill="#9EC4FB"/>
<path d="M97.9194 151.568H67.8669C66.2787 151.568 65.7031 148.433 67.0908 147.297C69.4962 145.328 73.2175 145.37 74.9136 146.084C75.1706 146.192 75.4379 145.997 75.5355 145.632C78.3367 134.956 88.5136 137.583 91.1503 145.596C91.2736 145.976 91.5923 146.135 91.8493 145.945C95.5551 143.206 97.8526 145.442 99.1427 147.857C99.9445 149.363 99.2249 151.573 97.9297 151.573L97.9194 151.568Z" fill="white"/>
<path d="M3.57817 182.479H68.1856C69.4449 182.479 70.3238 181.245 69.9332 180.043C68.5197 175.679 61.5604 172.477 56.9809 173.489C55.9478 173.716 54.8992 173.089 54.7296 172.045C52.9718 161.483 41.5408 156.091 34.782 161.981C34.2166 162.475 33.4302 162.588 32.7569 162.254C24.4818 158.137 15.1736 165.065 14.7161 170.524C14.6288 171.583 13.7242 172.369 12.6756 172.225C7.91617 171.577 2.8586 176.188 1.79465 180.145C1.48113 181.323 2.3549 182.479 3.57303 182.479H3.57817Z" stroke="#4C5980" stroke-width="1.54194" stroke-linecap="round" stroke-linejoin="round"/>
<path d="M257.896 168.205C274.523 132.705 261.879 114.638 248.922 119.495C233.765 125.175 241.125 154.117 257.896 168.205Z" fill="white"/>
<path d="M251.944 125.57C252.427 139.494 254.653 154.554 256.801 161.102" stroke="#EAEEF5" stroke-width="1.54194" stroke-linecap="round" stroke-linejoin="round"/>
<path d="M261.411 129.559C258.266 134.94 254.031 140.152 253.388 140.784C250.263 139.417 247.297 137.294 245.118 135.511" stroke="#EAEEF5" stroke-width="1.54194" stroke-linecap="round" stroke-linejoin="round"/>
<path d="M246.712 145.781C249.431 149.446 254.889 153.352 254.889 153.352C254.889 153.352 260.625 147.107 261.9 143.463" stroke="#EAEEF5" stroke-width="1.54194" stroke-linecap="round" stroke-linejoin="round"/>
<path d="M152.443 12.4235C132.552 -11.3944 114.11 9.34988 116.418 26.2547C118.72 43.1596 146.403 56.9857 153.167 60.8303C167.425 53.9172 184.428 39.3201 184.998 22.4153C185.569 5.51044 169.245 -10.6234 152.443 12.4286V12.4235Z" fill="#FF6A5A"/>
<path d="M264.557 88.915C265.005 89.9584 266.495 89.9327 266.917 88.879C276.441 64.8144 278.075 47.3134 266.927 46.1518C255.804 44.9953 255.003 66.6493 264.563 88.915H264.557Z" fill="#7365E3"/>
<path d="M266.192 106.539C267.282 106.528 267.863 105.249 267.148 104.426C249.806 84.5248 231.092 81.9498 228.466 90.7234C225.845 99.4817 241.382 106.76 266.192 106.534V106.539Z" fill="#7365E3"/>
<path d="M246.527 82.9898C247.606 83.1748 248.347 81.9412 247.673 81.0726C232.382 61.4796 221.476 57.7173 217.333 63.9879C213.19 70.2584 221.943 78.7597 246.527 82.9898Z" fill="#7365E3"/>
<path d="M247.422 70.006C248.095 70.9774 249.606 70.6331 249.791 69.4663C252.865 49.9659 253.713 40.4932 244.99 40.3698C236.371 40.2465 238.057 56.4575 247.422 70.006Z" fill="#7365E3"/>
<path d="M276.678 107.357C261.895 94.8571 242.816 70.4995 234.418 56.9355" stroke="#7365E3" stroke-width="2.05593" stroke-linecap="round" stroke-linejoin="round"/>
<path d="M230.912 53.9129C231.791 54.6171 233.102 54.0157 233.138 52.885C233.6 39.0794 229.298 32.5621 223.634 34.9213C217.97 37.2805 220.612 45.6533 230.912 53.9078V53.9129Z" fill="#7365E3"/>
<path d="M241.958 204.411C246.054 150.33 273.568 137.157 285.883 151.82C300.285 168.962 271.743 198.839 241.958 204.411Z" fill="#1F87FF"/>
<path d="M277.413 153.09C270.726 169.434 252.988 193.607 244.924 200.967" stroke="#4C5980" stroke-width="1.54194" stroke-linecap="round" stroke-linejoin="round"/>
<path d="M267.559 151.785C266.218 158.637 267.755 166.912 268.269 170.288C275.542 172.632 284.778 167.42 284.778 167.42" stroke="#4C5980" stroke-width="1.54194" stroke-linecap="round" stroke-linejoin="round"/>
<path d="M258.061 160.949C256.581 168.623 258.806 182.017 259.187 183.333C266.66 184.094 275.146 181.601 275.146 181.601" stroke="#4C5980" stroke-width="1.54194" stroke-linecap="round" stroke-linejoin="round"/>
<path d="M249.581 181.297C248.83 185.481 250.953 194.568 250.953 194.568C250.953 194.568 258.298 193.771 262.888 191.731" stroke="#4C5980" stroke-width="1.54194" stroke-linecap="round" stroke-linejoin="round"/>
<path d="M195.2 206.149L174.878 145.35L166.829 107.547V98.0328C166.829 97.0459 165.811 96.2441 164.552 96.2441C160.26 96.2441 156.354 98.187 154.519 101.235L153.547 102.844C152.19 105.244 151.486 107.845 151.486 110.476V124.811L151.584 124.924C151.522 125.459 151.486 125.999 151.486 126.543V190.19C151.486 201.441 158.338 212.013 169.918 218.623L192.528 258.184C204.832 254.581 216.644 249.585 227.766 243.536L195.195 206.154L195.2 206.149Z" fill="white"/>
<path d="M199.812 207.362L178.733 148.948L169.877 112.507L169.523 103.286C169.487 102.33 168.515 101.579 167.349 101.61C163.375 101.718 159.829 103.707 158.236 106.709L157.398 108.292C156.231 110.656 155.676 113.195 155.774 115.745L156.303 129.643L156.401 129.746C156.365 130.27 156.349 130.789 156.37 131.313L158.729 193.012C159.145 203.918 165.884 213.987 176.857 220.098L197.041 254.119C197.797 255.399 199.585 255.954 201.138 255.409C210.343 252.176 219.235 248.177 227.721 243.567C229.304 242.708 229.689 240.884 228.553 239.609L199.812 207.367V207.362Z" fill="#C4C7D7"/>
<path d="M150.053 126.537C150.053 125.998 150.017 125.458 149.955 124.918L150.053 124.805V110.47C150.053 107.839 149.349 105.243 147.992 102.838L147.021 101.229C145.181 98.1811 141.274 96.2383 136.988 96.2383C135.734 96.2383 134.711 97.0401 134.711 98.0269V107.541L126.662 145.344L106.339 206.143L73.624 243.694C76.7285 245.416 79.9049 247.102 83.1738 248.737C91.6648 252.982 100.176 256.297 108.672 258.775L131.622 218.617C143.202 212.007 150.053 201.435 150.053 190.184V126.537Z" fill="white"/>
<path d="M150.053 131.168C150.053 130.643 150.022 130.119 149.966 129.6L150.053 129.492V115.589C150.053 113.039 149.431 110.516 148.223 108.187L147.36 106.625C145.725 103.67 142.256 101.783 138.447 101.783C137.332 101.783 136.427 102.559 136.427 103.515V112.741L129.278 149.409L111.227 208.378L82.1303 244.845C81.092 246.145 81.5546 247.929 83.1479 248.725C83.1582 248.725 83.1685 248.736 83.1788 248.741C92.1889 253.248 101.23 256.708 110.245 259.231C111.808 259.668 113.509 259.031 114.177 257.751L133.688 220.477C143.973 214.068 150.058 203.814 150.058 192.902V131.173L150.053 131.168Z" fill="#9EC4FB"/>
<path d="M135.302 151.193L139.151 125.468V117.301C139.151 116.432 140.051 115.723 141.156 115.723C144.157 115.723 146.876 117.11 148.095 119.269C149.39 121.556 150.058 124.034 150.058 126.537V190.183C150.058 201.434 143.207 212.007 131.627 218.617L106.693 262.238" stroke="#2D3142" stroke-width="2.05593" stroke-linecap="round" stroke-linejoin="round"/>
<path d="M131.621 145.349L138.596 109.354V100.776C138.596 99.8612 139.536 99.1211 140.703 99.1211C143.854 99.1211 146.712 100.581 147.991 102.847C149.348 105.248 150.052 107.849 150.052 110.48V124.815" stroke="#2D3142" stroke-width="2.05593" stroke-linecap="round" stroke-linejoin="round"/>
<path d="M70.6016 247.169L106.344 206.143L126.667 145.344L134.716 107.541V98.0269C134.716 97.0401 135.733 96.2383 136.993 96.2383C141.284 96.2383 145.191 98.1811 147.025 101.229L147.997 102.838" stroke="#2D3142" stroke-width="2.05593" stroke-linecap="round" stroke-linejoin="round"/>
<path d="M166.249 151.194L162.399 125.47V117.303C162.399 116.434 161.499 115.725 160.394 115.725C157.393 115.725 154.674 117.112 153.456 119.271C152.16 121.558 151.492 124.036 151.492 126.539V190.185C151.492 201.436 158.344 212.009 169.924 218.619L194.857 262.24" stroke="#2D3142" stroke-width="2.05593" stroke-linecap="round" stroke-linejoin="round"/>
<path d="M169.924 145.351L162.949 109.356V100.778C162.949 99.8632 162.008 99.123 160.842 99.123C157.691 99.123 154.833 100.583 153.553 102.849C152.196 105.25 151.492 107.85 151.492 110.482V124.817" stroke="#2D3142" stroke-width="2.05593" stroke-linecap="round" stroke-linejoin="round"/>
<path d="M230.635 246.815L195.201 206.149L174.878 145.35L166.829 107.547V98.0328C166.829 97.0459 165.811 96.2441 164.552 96.2441C160.26 96.2441 156.354 98.187 154.519 101.235L153.548 102.844" stroke="#2D3142" stroke-width="2.05593" stroke-linecap="round" stroke-linejoin="round"/>
<path d="M153.553 84.1299V73.3105" stroke="#7365E3" stroke-width="2.05593" stroke-linecap="round" stroke-linejoin="round"/>
<path d="M131.621 75.6602L135.209 84.1306" stroke="#7365E3" stroke-width="2.05593" stroke-linecap="round" stroke-linejoin="round"/>
<path d="M109.628 96.4648L120.766 99.117" stroke="#7365E3" stroke-width="2.05593" stroke-linecap="round" stroke-linejoin="round"/>
<path d="M178.543 86.7922L184.043 79.8945" stroke="#7365E3" stroke-width="2.05593" stroke-linecap="round" stroke-linejoin="round"/>
<path d="M185.42 104.104L199.739 97.9668" stroke="#7365E3" stroke-width="2.05593" stroke-linecap="round" stroke-linejoin="round"/>
<path d="M78.5833 81.6216C77.2778 60.9903 83.0652 44.4504 85.8921 38.1747C86.221 37.4448 85.9383 36.5814 85.2291 36.201C78.6141 32.6186 62.2746 33.1737 57.8441 51.127C53.1103 70.314 70.4983 82.7523 70.4983 82.7523" fill="#1F87FF"/>
<path d="M61.0832 98.0538C69.5536 97.5192 60.1015 95.4222 57.8657 92.6518C56.077 90.4366 63.9461 87.1522 72.2828 92.3589" stroke="#4C5980" stroke-width="1.54194" stroke-linecap="round" stroke-linejoin="round"/>
<path d="M54.6424 95.2224C63.1179 95.6953 53.9793 92.4932 52.0879 89.4813C50.5716 87.0655 58.7748 84.7423 66.4382 90.8998" stroke="#4C5980" stroke-width="1.54194" stroke-linecap="round" stroke-linejoin="round"/>
<path d="M81.7292 81.6214C80.4237 60.9902 86.2112 44.4503 89.0381 38.1746C89.367 37.4447 89.0843 36.5812 88.375 36.2009C86.1855 35.0136 82.9268 34.2837 79.3906 34.4842" stroke="#4C5980" stroke-width="1.54194" stroke-linecap="round" stroke-linejoin="round"/>
<path d="M92.8001 76.5338C95.591 75.7012 98.3254 75.6652 97.9347 74.6681C97.5441 73.6709 92.209 73.3574 92.209 73.3574L92.8052 76.5287L92.8001 76.5338Z" fill="#FF6A5A"/>
<path d="M18.6635 91.4069C18.3911 90.9238 18.6635 90.3173 19.2083 90.2093C23.5515 89.3715 39.5877 86.1591 46.8965 83.2192C55.3926 79.7961 81.5646 58.5481 87.7066 68.4885C93.8487 78.4289 85.3629 92.3732 71.7732 94.1824C58.1835 95.9916 49.965 87.439 45.9765 87.8502C42.4917 88.2099 29.2669 99.4713 25.9775 102.319C25.592 102.653 24.9958 102.55 24.7439 102.103L18.6686 91.4069H18.6635Z" fill="#1F87FF"/>
<path d="M78.5988 68.7713C83.9905 66.7514 88.5392 66.4378 90.6722 69.8918C96.8143 79.8322 88.3285 93.7765 74.7388 95.5857C61.1491 97.3949 52.5245 88.9142 48.942 89.2535C45.8068 89.5464 32.2788 100.9 28.943 103.732C28.5575 104.061 27.9665 103.958 27.7146 103.516L21.6342 92.8154C21.3618 92.3322 21.6342 91.7257 22.179 91.6178C26.5222 90.78 42.5584 87.5676 49.8672 84.6276C52.2572 83.6665 56.0401 81.297 60.3833 78.6089" stroke="#4C5980" stroke-width="1.54194" stroke-linecap="round" stroke-linejoin="round"/>
<path d="M74.2611 76.8159C68.3452 56.6729 71.0488 39.2849 72.7398 32.6597C72.9351 31.9042 72.529 31.128 71.7992 30.8505C64.5674 28.0801 46.1412 32.0738 45.252 50.6028C44.3063 70.3448 65.7804 79.4115 65.7804 79.4115" fill="#1F87FF"/>
<path d="M86.8229 75.3196C87.4985 75.3196 88.0462 74.7719 88.0462 74.0963C88.0462 73.4207 87.4985 72.873 86.8229 72.873C86.1473 72.873 85.5996 73.4207 85.5996 74.0963C85.5996 74.7719 86.1473 75.3196 86.8229 75.3196Z" fill="#2D3142"/>
<path d="M77.4067 76.8159C71.4907 56.6729 74.1943 39.2849 75.8853 32.6597C76.0806 31.9042 75.6745 31.128 74.9447 30.8505C67.713 28.0801 49.2867 32.0738 48.3975 50.6028C47.4518 70.3448 68.926 79.4115 68.926 79.4115" stroke="#4C5980" stroke-width="1.54194" stroke-linecap="round" stroke-linejoin="round"/>
</svg>
