<?xml version="1.0" encoding="utf-8"?>
<!-- Generator: Adobe Illustrator 25.4.1, SVG Export Plug-In . SVG Version: 6.00 Build 0)  -->
<svg version="1.1" id="Layer_1" xmlns="http://www.w3.org/2000/svg" xmlns:xlink="http://www.w3.org/1999/xlink" x="0px" y="0px"
	 viewBox="0 0 211.8 103.7" style="enable-background:new 0 0 211.8 103.7;" xml:space="preserve">
<style type="text/css">
	.st0{fill:#FFFFFF;}
</style>
<g id="Layer_2_00000159463855384013270370000011274218287036798602_">
	<g id="Layer_1-2">
		<path class="st0" d="M18.3,97c4.5,0,6.3-1.4,6.3-4.3c0-2.6-2-4.4-6.5-4.4H8.1V97H18.3z M8.1,74.8v7.3h10.4c3.6,0,4.8-1.7,4.8-3.6
			s-1.6-3.7-5.4-3.7H8.1z M0.7,103.7c-0.4,0-0.7-0.3-0.7-0.7V68.7C0,68.3,0.3,68,0.7,68H19c8.1,0,12.4,4.3,12.4,9.8
			c0.1,2.6-1.1,5.1-3.1,6.7v0.1c2.9,1.8,4.6,5,4.5,8.3c0,6.8-5,10.7-13.6,10.7L0.7,103.7z"/>
		<path class="st0" d="M44,68h6.7c0.4,0,0.7,0.3,0.7,0.7V103c0,0.4-0.3,0.7-0.7,0.7H44c-0.4,0-0.7-0.3-0.7-0.7V68.7
			C43.3,68.3,43.6,68,44,68C44,68,44,68,44,68z"/>
		<path class="st0" d="M72.7,74.8v11.3h8.6c4.5,0,7.3-2.1,7.3-5.6s-2.9-5.7-7.3-5.7H72.7z M64.6,68.7c0-0.4,0.3-0.7,0.7-0.7h16.5
			c8.7,0,14.9,4.7,14.9,12.5c0,5.4-3.3,9.1-8,10.7v0.1c0.7,0.7,1.3,1.5,1.9,2.4l6,8.8c0.2,0.2,0.3,0.5,0.4,0.8
			c0,0.2-0.1,0.4-0.5,0.4h-7.9c-0.4,0-0.8-0.3-1-0.6l-7.3-10.6h-7.6V103c0,0.4-0.3,0.7-0.7,0.7h-6.7c-0.4,0-0.7-0.3-0.7-0.7V68.7z"
			/>
		<path class="st0" d="M116.2,74.8V97h7.8c7.6,0,11.6-4.3,11.6-11.1s-4.9-11.1-11.6-11.1H116.2z M108.9,103.7
			c-0.4,0-0.7-0.3-0.7-0.7V68.7c0-0.4,0.3-0.7,0.7-0.7h15.1c11.3,0,19.8,7,19.8,17.9s-7.1,17.9-19.7,17.9H108.9z"/>
		<path class="st0" d="M162,91.2h11.8l-3.2-6.6c-1-2.1-1.8-4.2-2.5-6.4h-0.4c-0.7,2.2-1.5,4.3-2.5,6.4L162,91.2z M176.5,97.5h-17.4
			l-2.6,5.5c-0.4,0.7-0.5,0.8-1.2,0.8h-7.1c-0.2,0-0.4-0.1-0.5-0.4c0,0,0,0,0,0c0-0.3,0.1-0.5,0.2-0.7L164.8,68h6.2l16.8,34.6
			c0.1,0.2,0.2,0.5,0.2,0.7c0,0.2-0.2,0.4-0.4,0.4c0,0,0,0,0,0h-7.1c-0.7,0-0.9-0.1-1.2-0.8L176.5,97.5z"/>
		<path class="st0" d="M131.8,65.2c0.9-0.5,1.6-1,2.4-1.5c5-3.3,9.7-7,13.9-11.2c0.6-0.6,1.2-1.2,1.8-1.7c0.4-0.2,0.5-0.7,0.3-1.1
			c-0.1-0.4-0.2-0.8-0.4-1.2c-0.1-0.2-0.2-0.5-0.4-0.6c-0.3-0.3-0.7-0.7-1.1-1c-0.1-0.1-0.1-0.1-0.2-0.1c-1.1-0.3-2-0.9-2.8-1.7
			c-0.4-0.4-0.9-0.7-1.4-1c-0.2-0.2-0.4-0.3-0.6-0.5c-0.1-0.1-0.2-0.3-0.3-0.4c-0.5-0.5-1.1-1-1.6-1.6c-0.1-0.2-0.3-0.5-0.3-0.7
			c-1,0-1.9-0.7-2.1-1.7c-0.1-0.2-0.3-0.3-0.5-0.3c-0.8-0.2-1.6-0.5-1.8-1.4c0-0.1-0.2-0.2-0.4-0.3s-0.6-0.4-0.6-0.6
			c-0.1-0.7-0.6-0.8-1.1-0.9c-0.8-0.2-1.3-0.8-1.4-1.6c0-0.4-0.3-0.7-0.6-0.8c-0.7-0.3-1.2-0.7-1.6-1.3c-0.4-0.8-1-1.1-1.5-1.7
			c0,0-0.1-0.1-0.1-0.2c0-0.9-0.8-1-1.4-1.4c-0.7-0.4-1.2-1.1-1.4-1.8c-0.1-0.2-0.2-0.4-0.4-0.5c-1-0.3-1.8-1.1-2.1-2.1
			c-0.2-1-0.9-1.2-1.5-1.7c-0.4-0.3-0.8-0.6-1.1-1c-0.2-0.2-0.3-0.4-0.3-0.6c0-0.5-0.3-0.9-0.7-1.2c-0.5-0.3-1-0.7-1.4-1
			c-0.7-0.5-1.1-1.2-1.1-2.1c0-0.1-0.2-0.3-0.3-0.4c-0.6-0.4-1.2-0.8-1.8-1.2c-0.6-0.6-1.2-1.3-1.8-2.1c0,0-0.1-0.1,0-0.1
			c0.1-0.8-0.6-1-1.1-1.3c-1.3-0.7-2.5-1.7-3.5-2.9c-0.3-0.4-0.5-0.8-0.6-1.2c3.6,1.8,7.4,3.3,11.3,4.5c-4.3-2.1-8.3-4.3-10.4-8.8
			l0.2-0.2c0.9,0.8,1.8,1.7,2.8,2.5c1,0.8,2.1,1.5,3.3,2.1c1.1,0.6,2.3,1.2,3.4,1.8s2.3,1.1,3.4,1.6c0-0.1,0.1-0.1,0.1-0.2l-0.9-0.6
			c-2.7-1.7-5.1-3.9-7-6.4c-0.7-1-1.1-2.1-1.4-3.3c0-0.1,0-0.2,0-0.2c0,0,0-0.1,0.1-0.2c1.4,2.2,2.8,4.3,5,5.9c2,1.6,4.1,3,6.3,4.3
			c-1.1-1.1-2.2-2.2-3.2-3.4c-1.3-1.3-2.2-3-2.5-4.8c-0.1-0.6-0.1-1.2,0-1.7c0.5,2.6,2.2,4.5,4,6.3c1.9,2,4.2,3.7,6.6,5
			c0.2,0.1,0.4,0.2,0.7,0.2c-2.5-2.4-5-4.7-5.4-8.4l0.2-0.1c0.1,0.1,0.2,0.2,0.2,0.3c2.1,4.3,4.9,8,9.3,10.3c0.8,0.4,1.6,1,2.4,1.4
			c0.2,0.1,0.4,0.1,0.5,0.2c0.2,0,0.5,0.1,0.7,0.2c2.1,1.4,4.3,2.8,6.4,4.1c1.6,1.1,3.1,2.4,4.5,3.9c3.1,3.3,6.4,6.4,9.7,9.5
			c1.1,1.1,2.7,1.4,4.1,0.8c1.6-0.7,3.3-0.9,4.9-0.5c0.7,0.1,1.2,0.6,1.2,1.3c0.2,1,0.4,2,0.7,3c0.1,0.4,0.4,0.6,0.8,0.7
			c1,0.3,1.9,0.4,2.9,0.5c3,0,6-0.1,9-0.2c0.9,0,1.8-0.1,2.7-0.3c2-0.4,3.9,0.1,5.9,0.3c1.4,0.1,2.9,0.2,4.3,0.2
			c0.6,0.1,1.2,0.2,1.8,0.4c1.2,0.4,2.4,0.6,3.7,0.7c0.9,0,1.8,0,2.7-0.1c1.6-0.2,2.6-1.2,3.6-2.4c0.2-0.3,0.4-0.6,0.6-0.9
			c0.2-0.2,0.5-0.3,0.7-0.4c0,0.3,0,0.5,0,0.8c-0.8,1.9-2.6,3.3-4.6,3.6c-0.3,0-0.7,0.1-1,0.3c0.6,0.1,1.3,0.2,1.9,0.1
			c1.1-0.1,2.2-0.5,3.2-1c0.7-0.4,1-1.4,1.5-2.2c0.2-0.4,0.3-0.9,0.6-1.3c0.1-0.2,0.5-0.3,0.7-0.5c0.1,0.3,0.3,0.5,0.3,0.8
			c-0.2,1.9-1.5,3.6-3.4,4.2c-1,0.3-1.9,0.6-2.9,0.8V42c0.9,0.1,1.7,0.2,2.6,0.3s1.7,0,2.5,0c-1.5,0.7-3.1,1.1-4.7,1.2
			c2,0.9,4.2,1.3,6.4,1c-2.2,1-4.5,1.6-6.9,0.8c1.8,1.1,3.8,1.9,5.9,2.4c-0.2,0.2-0.3,0.2-0.4,0.3l-4.2,0.4c-0.3,0-0.5,0.1-0.8,0.2
			c-1.2,0.7-2.7,1-4.1,0.8c-0.4,0-0.7,0.1-1,0.3c-0.8,0.7-1.9,0.9-2.9,0.7c-0.3,0-0.7,0-1,0.1c-0.8,0.2-1.6,0.3-2.5,0.5
			c-0.3,0-0.6,0.1-0.9,0.2c-0.9,0.5-2,0.7-3.1,0.4c-0.1,0-0.3,0-0.4,0.1c-0.6,0.7-1.6,0.9-2.5,0.6c-0.1,0-0.4,0-0.4,0.1
			c-0.3,0.5-0.8,0.7-1.4,0.7c-0.7,0-1.4,0.3-1.9,0.8c-0.5,0.4-1.3,0.4-1.8,0c-0.2-0.1-0.5-0.1-0.7,0c-0.7,0.5-1.6,0.5-2.3,0
			c-0.1-0.1-0.5,0-0.7,0.1c-0.9,0.6-2,0.7-3,0.4c-0.8-0.2-1.7-0.3-2.5-0.1c-0.2,0-0.5,0-0.6-0.2c-0.3-0.5-0.6-0.3-1-0.3
			c-0.4,0-0.7,0-1.1-0.1c-0.1,0-0.2-0.1-0.2-0.1c-1.3,0-2.6,0.1-3.9,0.1c-0.6,0-1.3-0.1-1.9-0.2c-0.8-0.1-1.5-0.4-2.2-0.4
			c-0.8,0-1.6,0.5-1.8,1.3c-1.1,3.8-2.2,7.5-3.3,11.3c-0.6,2.1-1.2,4.1-1.7,6.2c-0.2,1.4-0.4,2.7-0.4,4.1c0,0.7-0.3,0.9-1,0.7
			c-1.2-0.4-2.1-1.4-2.1-2.7c0-0.3-0.2-0.6-0.4-0.8c-0.4-0.5-0.6-1.2-0.6-1.8c-0.1-0.3-0.2-0.5-0.4-0.8c-0.3-0.5-0.5-1-0.7-1.6
			c-0.1-0.6-0.4-1.1-0.8-1.5c-0.3-0.3-0.6-0.6-0.7-1c-0.2-0.4-0.5-0.7-1-0.8c-0.8-0.1-1.5-0.4-2.3-0.5c-1.2-0.2-2.3-0.1-3.5,0.2
			c-0.6,0.2-1.3,0-1.8-0.5c-0.2-0.1-0.4-0.1-0.5-0.1c-0.9,0.3-1.8,0.4-2.7,0.4c-0.6-0.1-1.2,0.4-1.8,0.5
			C133.2,66,132.4,65.8,131.8,65.2"/>
	</g>
</g>
</svg>
