<svg width="113" height="166" viewBox="0 0 113 166" fill="none" xmlns="http://www.w3.org/2000/svg">
<path d="M36.8365 163.709C60.0155 163.709 85.4728 163.709 94.652 163.709C103.831 163.709 113.34 159.383 112.119 154.331C110.897 149.313 96.1708 146.836 96.1708 146.836C105.68 144.096 108.421 120.19 100.76 116.195C93.1001 112.2 86.6615 125.704 86.6615 125.704C89.1048 106.686 87.2558 88.1953 75.3031 86.4123C63.3504 84.6293 54.9636 111.605 52.2561 126.332C45.2562 109.459 21.3508 101.403 15.5065 108.337C9.69521 115.271 21.4168 135.841 21.4168 135.841C21.4168 135.841 6.29431 129.402 1.11039 136.766C-4.10654 144.129 21.4168 151.129 21.4168 151.129C21.4168 151.129 5.69998 151.195 5.69998 155.487C5.76601 159.746 24.0913 163.709 36.8365 163.709Z" fill="white"/>
<path d="M62.4922 154.496C67.6101 141.454 76.6241 92.3555 76.6241 92.3555" stroke="#9AC1FB" stroke-width="0.660371" stroke-miterlimit="10" stroke-linecap="round" stroke-linejoin="round"/>
<path d="M84.6808 106.818C84.6808 106.818 76.5253 115.568 71.5395 118.342C71.5395 118.342 63.2848 107.281 62.5254 102.988" stroke="#9AC1FB" stroke-width="0.660371" stroke-miterlimit="10" stroke-linecap="round" stroke-linejoin="round"/>
<path d="M100.067 122.766C97.2939 130.987 86.3318 150.534 81.7422 154.496" stroke="#9AC1FB" stroke-width="0.660371" stroke-miterlimit="10" stroke-linecap="round" stroke-linejoin="round"/>
<path d="M92.8689 122.766C92.2415 125.539 94.85 134.223 94.85 134.223C98.2839 133.596 102.477 131.218 102.477 131.218" stroke="#9AC1FB" stroke-width="0.660371" stroke-miterlimit="10" stroke-linecap="round" stroke-linejoin="round"/>
<path d="M87.4542 129.832C86.7939 133.497 89.3363 144.03 89.3363 144.03C92.7372 143.568 100.067 138.615 100.067 138.615" stroke="#9AC1FB" stroke-width="0.660371" stroke-miterlimit="10" stroke-linecap="round" stroke-linejoin="round"/>
<path d="M82.3037 98.1005C79.8603 101.204 74.2141 105.001 74.2141 105.001C70.9783 100.313 70.9453 92.3223 70.9453 92.3223" stroke="#9AC1FB" stroke-width="0.660371" stroke-miterlimit="10" stroke-linecap="round" stroke-linejoin="round"/>
<path d="M57.4736 115.402C58.9264 120.553 68.5018 132.44 68.5018 132.44C74.7423 131.02 82.6998 123.063 83.5913 121.742" stroke="#9AC1FB" stroke-width="0.660371" stroke-miterlimit="10" stroke-linecap="round" stroke-linejoin="round"/>
<path d="M56.1201 129.832C56.8465 133.068 64.837 147.167 64.837 147.167C72.6954 143.634 78.6718 135.841 80.818 134.257" stroke="#9AC1FB" stroke-width="0.660371" stroke-miterlimit="10" stroke-linecap="round" stroke-linejoin="round"/>
<path d="M20.2617 112.002C26.4692 117.747 53.4784 151.723 55.0963 154.497" stroke="#9AC1FB" stroke-width="0.660371" stroke-miterlimit="10" stroke-linecap="round" stroke-linejoin="round"/>
<path d="M49.4827 130.723C50.8034 134.124 51.3317 149.411 51.3317 149.411C51.3317 149.411 35.879 144.888 32.5771 143.138" stroke="#9AC1FB" stroke-width="0.660371" stroke-miterlimit="10" stroke-linecap="round" stroke-linejoin="round"/>
<path d="M23.3652 130.723C25.8746 132.341 41.4924 136.964 41.4924 136.964C41.8226 127.355 38.8509 117.747 37.8274 116.129" stroke="#9AC1FB" stroke-width="0.660371" stroke-miterlimit="10" stroke-linecap="round" stroke-linejoin="round"/>
<path d="M19.2383 119.826C23.0684 122.038 31.2901 124.482 31.2901 124.482C31.2901 124.482 29.5731 112.76 28.2523 110.713" stroke="#9AC1FB" stroke-width="0.660371" stroke-miterlimit="10" stroke-linecap="round" stroke-linejoin="round"/>
<path d="M5.20508 138.516C9.79466 140.464 41.9217 153.275 41.9217 153.275" stroke="#9AC1FB" stroke-width="0.660371" stroke-miterlimit="10" stroke-linecap="round" stroke-linejoin="round"/>
<path d="M12.0069 136.039C14.5163 138.119 19.2379 144.195 19.2379 144.195C19.2379 144.195 12.304 145.912 10.0918 144.888" stroke="#9AC1FB" stroke-width="0.660371" stroke-miterlimit="10" stroke-linecap="round" stroke-linejoin="round"/>
<path d="M23.3653 140.066C25.2804 142.543 28.7143 147.991 28.7143 147.991C28.7143 147.991 23.4974 149.774 21.2852 149.411" stroke="#9AC1FB" stroke-width="0.660371" stroke-miterlimit="10" stroke-linecap="round" stroke-linejoin="round"/>
<path d="M10.0918 155.52C15.2427 156.84 40.2707 158.359 40.2707 158.359" stroke="#9AC1FB" stroke-width="0.660371" stroke-miterlimit="10" stroke-linecap="round" stroke-linejoin="round"/>
<path d="M16.7288 153.275C18.2146 154.2 23.5966 157.139 23.5966 157.139C23.5966 157.139 15.1109 158.063 14.6816 158.327" stroke="#9AC1FB" stroke-width="0.660371" stroke-miterlimit="10" stroke-linecap="round" stroke-linejoin="round"/>
<path d="M26.0068 153.439C27.3276 154.463 29.4738 157.6 29.4738 157.6" stroke="#9AC1FB" stroke-width="0.660371" stroke-miterlimit="10" stroke-linecap="round" stroke-linejoin="round"/>
<path d="M106.869 155.52C102.28 156.114 88.4448 155.619 79.959 159.68" stroke="#9AC1FB" stroke-width="0.660371" stroke-miterlimit="10" stroke-linecap="round" stroke-linejoin="round"/>
<path d="M102.445 151.689C99.638 153.01 97.5908 156.081 97.5908 156.081C97.5908 156.081 103.006 159.779 104.327 159.251" stroke="#9AC1FB" stroke-width="0.660371" stroke-miterlimit="10" stroke-linecap="round" stroke-linejoin="round"/>
<path d="M96.0396 149.643C93.299 151.69 90.8887 156.94 90.8887 156.94C90.8887 156.94 96.832 161.331 98.1528 160.935" stroke="#9AC1FB" stroke-width="0.660371" stroke-miterlimit="10" stroke-linecap="round" stroke-linejoin="round"/>
<path d="M51.5962 163.974C60.181 163.974 75.8648 144.493 73.7516 141.356C71.6384 138.219 57.5065 152.219 57.5065 152.219C57.5065 152.219 66.4545 129.833 62.7564 128.215C59.0584 126.597 53.5443 151.361 53.5443 151.361C53.5443 151.361 49.4169 136.37 46.9406 137.427C44.4642 138.483 48.7236 158.162 48.7236 158.162C48.7236 158.162 40.1718 156.974 39.6435 158.922C39.1482 160.837 40.2708 163.974 51.5962 163.974Z" fill="#E3F0FF"/>
<path d="M81.3788 164.435C86.5958 162.421 98.5485 150.237 95.3457 149.774C92.1429 149.312 82.9307 159.086 82.9307 159.086C82.9307 159.086 93.4637 138.152 89.9967 137.161C86.5298 136.171 77.9779 159.086 77.9779 159.086C77.9779 159.086 77.1525 128.411 72.3978 129.468C67.6431 130.525 73.8506 160.439 73.8506 160.439C73.8506 160.439 64.6715 137.822 61.6007 138.977C58.53 140.133 66.2564 157.303 68.8318 159.119C71.4403 160.935 52.4216 153.44 51.299 157.435C50.2093 161.43 76.1619 166.449 81.3788 164.435Z" fill="#9AC1FB"/>
<path d="M43.5725 165.095C32.8745 164.138 21.3511 150.567 20.2284 146.605C19.1058 142.643 40.4028 158.062 40.4028 158.062C40.4028 158.062 27.6576 125.506 31.1245 123.195C34.5915 120.884 44.365 149.114 45.0254 152.482C46.8084 147.166 49.2847 142.775 50.9687 142.742C52.6526 142.643 50.8366 163.973 43.5725 165.095Z" fill="#9AC1FB"/>
<path d="M44.6592 105.768C45.9501 116.829 49.0601 142.618 49.5882 149.924C50.1163 157.229 57.8032 154.119 57.3338 149.073C56.8937 144.027 58.214 125.015 57.3338 118.56C56.4536 112.105 53.9891 104.154 53.9891 104.154L44.6592 105.768Z" fill="white"/>
<path d="M46.1553 105.768C47.2995 116.829 50.0574 142.618 50.5268 149.924C50.9963 157.229 57.7737 154.119 57.3923 149.073C57.0109 144.027 58.1551 125.015 57.3923 118.56C56.6294 112.105 54.429 104.154 54.429 104.154L46.1553 105.768Z" fill="#8990AB"/>
<path d="M44.6592 105.768C45.9501 116.829 49.0601 142.618 49.5882 149.924C50.1163 157.229 57.8032 154.119 57.3338 149.073C56.8937 144.027 58.214 125.015 57.3338 118.56C56.4536 112.105 53.9891 104.154 53.9891 104.154L44.6592 105.768Z" stroke="black" stroke-width="0.586788" stroke-miterlimit="10" stroke-linecap="round" stroke-linejoin="round"/>
<path d="M57.7147 156.936C58.3014 153.914 58.3014 147.049 58.3014 147.049C58.3014 147.049 50.5558 147.254 48.4141 147.049C48.5314 152.741 49.1769 158.11 49.705 159.313C50.2331 160.486 56.7171 162.305 57.7147 156.936Z" fill="white" stroke="black" stroke-width="0.586788" stroke-miterlimit="10" stroke-linecap="round" stroke-linejoin="round"/>
<path d="M31.5439 159.401C38.7321 158.022 45.6268 158.227 46.155 156.408C46.6831 154.589 46.595 152.564 46.595 152.564C46.595 152.564 49.8224 152.741 50.3505 155.528C50.8786 158.315 52.4923 158.872 53.3431 157.67C54.2233 156.496 58.2428 154.765 59.1816 154.97C60.1205 155.176 59.7978 164.799 59.7978 164.799C59.7978 164.799 42.3408 164.799 39.1428 164.799C35.9449 164.799 31.5439 162.511 31.5439 159.401Z" fill="white"/>
<path d="M33.1572 160.045C40.3454 158.666 47.2401 158.872 47.7682 157.052C48.2963 155.233 48.2083 153.209 48.2083 153.209C48.2083 153.209 49.822 152.74 50.3794 155.556C50.9076 158.343 52.5212 158.901 53.3721 157.698C54.2522 156.524 58.2717 154.793 59.2106 154.999C60.1495 155.204 59.8267 164.827 59.8267 164.827C59.8267 164.827 42.3698 164.827 39.1718 164.827C35.9738 164.827 33.1572 163.155 33.1572 160.045Z" fill="#6F69DB"/>
<path d="M31.5439 159.401C38.7321 158.022 45.6268 158.227 46.155 156.408C46.6831 154.589 46.595 152.564 46.595 152.564C46.595 152.564 49.8224 152.741 50.3505 155.528C50.8786 158.315 52.4923 158.872 53.3431 157.67C54.2233 156.496 58.2428 154.765 59.1816 154.97C60.1205 155.176 59.7978 164.799 59.7978 164.799C59.7978 164.799 42.3408 164.799 39.1428 164.799C35.9449 164.799 31.5439 162.511 31.5439 159.401Z" stroke="black" stroke-width="0.586788" stroke-miterlimit="10" stroke-linecap="round" stroke-linejoin="round"/>
<path d="M33.1572 161.013C34.7709 160.25 36.1792 160.016 37.6755 162.421C39.1718 164.827 42.9859 163.507 46.5066 163.507C50.0274 163.507 58.8292 163.507 58.8292 163.507" stroke="white" stroke-width="0.586788" stroke-miterlimit="10" stroke-linecap="round" stroke-linejoin="round"/>
<path d="M41.8418 158.696C41.8418 158.696 46.7708 159.077 47.4163 159.84C48.0617 160.603 46.1253 158.109 46.1253 158.109H49.8808L47.7097 157.023" stroke="white" stroke-width="0.586788" stroke-miterlimit="10" stroke-linecap="round" stroke-linejoin="round"/>
<path d="M49.5879 149.953H57.1281" stroke="#DEDFF7" stroke-width="0.586788" stroke-miterlimit="10" stroke-linecap="round" stroke-linejoin="round"/>
<path d="M83.005 151.245C79.6603 138.453 72.5895 120.497 70.9758 115.891C69.3622 111.255 67.4258 102.893 67.4258 102.893L76.6677 100.957C76.6677 100.957 80.2178 108.263 83.8558 121.905C87.5233 135.548 89.0196 147.812 89.3423 150.277C89.665 152.741 84.1199 155.235 83.005 151.245Z" fill="white"/>
<path d="M83.9735 151.01C80.6288 138.218 73.7633 120.497 72.1497 115.861C70.536 111.226 68.5996 102.864 68.5996 102.864L76.6679 100.928C76.6679 100.928 80.218 108.233 83.8561 121.876C87.5235 135.519 89.0198 147.783 89.3426 150.247C89.6653 152.741 85.0884 155.03 83.9735 151.01Z" fill="#8990AB"/>
<path d="M83.005 151.245C79.6603 138.453 72.5895 120.497 70.9758 115.891C69.3622 111.255 67.4258 102.893 67.4258 102.893L76.6677 100.957C76.6677 100.957 80.2178 108.263 83.8558 121.905C87.5233 135.548 89.0196 147.812 89.3423 150.277C89.665 152.741 84.1199 155.235 83.005 151.245Z" stroke="black" stroke-width="0.586788" stroke-miterlimit="10" stroke-linecap="round" stroke-linejoin="round"/>
<path d="M80.834 147.05C83.2105 146.521 87.7581 145.553 89.3717 145.759C90.6333 151.979 90.5453 158.022 88.6089 158.873C86.6725 159.724 85.939 159.842 83.9733 156.937C82.6824 155.03 80.834 147.05 80.834 147.05Z" fill="white" stroke="black" stroke-width="0.586788" stroke-miterlimit="10" stroke-linecap="round" stroke-linejoin="round"/>
<path d="M84.9419 156.409C83.6509 154.032 82.3893 153.622 86.7316 153.182C91.0738 152.742 92.3647 151.187 92.3647 154.267C92.3647 157.348 98.4086 159.284 100.022 159.842C101.636 160.37 103.895 160.164 103.895 162.306C103.895 164.448 98.4673 164.829 92.3354 164.829C86.2328 164.829 81.8319 164.829 81.8319 164.829C81.8319 164.829 82.0372 159.519 81.8319 157.377C81.6265 155.206 83.6509 155.001 84.9419 156.409Z" fill="white"/>
<path d="M86.1446 157.789C84.8536 155.412 85.9392 153.828 87.9636 153.798C92.3058 153.74 90.1347 153.3 92.0418 155.735C93.9195 158.141 98.4084 159.285 100.022 159.813C101.636 160.341 103.895 160.136 103.895 162.277C103.895 164.419 98.4671 164.801 92.3352 164.801C86.2326 164.801 82.7119 164.801 82.7119 164.801C82.7119 164.801 82.9172 159.49 82.7119 157.348C82.5065 155.207 84.8536 156.41 86.1446 157.789Z" fill="#6F69DB"/>
<path d="M84.9419 156.409C83.6509 154.032 82.3893 153.622 86.7316 153.182C91.0738 152.742 92.3647 151.187 92.3647 154.267C92.3647 157.348 98.4086 159.284 100.022 159.842C101.636 160.37 103.895 160.164 103.895 162.306C103.895 164.448 98.4673 164.829 92.3354 164.829C86.2328 164.829 81.8319 164.829 81.8319 164.829C81.8319 164.829 82.0372 159.519 81.8319 157.377C81.6265 155.206 83.6509 155.001 84.9419 156.409Z" stroke="black" stroke-width="0.586788" stroke-miterlimit="10" stroke-linecap="round" stroke-linejoin="round"/>
<path d="M102.897 162.248C102.369 161.515 101.812 161.162 100.11 161.515C98.3792 161.867 99.0246 163.598 96.3547 163.598C93.6555 163.598 82.7119 163.598 82.7119 163.598" stroke="white" stroke-width="0.586788" stroke-miterlimit="10" stroke-linecap="round" stroke-linejoin="round"/>
<path d="M90.6335 160.487C91.6017 159.724 95.2691 158.698 95.2691 158.698L88.609 158.874L92.0417 155.764L86.1445 157.817L93.3033 156.967L90.6335 160.487Z" stroke="white" stroke-width="0.586788" stroke-miterlimit="10" stroke-linecap="round" stroke-linejoin="round"/>
<path d="M82.7119 149.513L88.6091 148.34" stroke="#DEDFF7" stroke-width="0.586788" stroke-miterlimit="10" stroke-linecap="round" stroke-linejoin="round"/>
<path d="M82.418 148.34L88.3152 147.166" stroke="#DEDFF7" stroke-width="0.586788" stroke-miterlimit="10" stroke-linecap="round" stroke-linejoin="round"/>
<path d="M71.8264 68.2441L40.6387 69.8578C40.6387 69.8578 41.7536 94.5029 43.0738 112.429C43.1032 112.723 43.3086 112.987 43.602 113.045C47.0053 113.867 55.279 112.987 58.0663 112.077C58.3597 111.989 58.5357 111.696 58.5357 111.402C58.4477 108.527 58.0369 93.8574 58.565 87.2561C60.0613 90.6888 65.1077 107.588 65.9586 110.464C66.0466 110.728 66.252 110.904 66.5453 110.962C70.3008 111.432 77.8703 110.082 80.3642 108.322C80.5989 108.175 80.6869 107.882 80.6283 107.618L71.8264 68.2441Z" fill="white"/>
<path d="M71.8266 68.2441L41.8711 69.8578C41.8711 69.8578 43.0153 94.943 44.3356 112.899C47.5629 114.014 56.3061 112.899 58.5652 111.901C58.5652 111.901 58.0078 94.5909 58.5652 87.2561C60.2082 91.0408 66.1054 110.904 66.1054 110.904C69.8902 111.578 78.6333 110.023 80.7458 108.028L71.8266 68.2441Z" fill="#DEDFF7"/>
<path d="M43.1915 67.0996C43.4556 72.2633 43.5729 75.2266 41.1084 75.5493" stroke="#6F69DB" stroke-width="0.586788" stroke-miterlimit="10" stroke-linecap="round" stroke-linejoin="round"/>
<path d="M67.6897 111.05C67.0736 111.02 66.5455 110.991 66.076 110.903C66.076 110.903 60.2081 91.0401 58.5358 87.2553C57.1275 83.9106 54.0175 75.7542 53.3721 75.5195C55.3378 77.0158 60.2668 89.1917 61.9392 94.2381C63.5822 98.991 66.9855 109.201 67.6897 111.05Z" fill="white"/>
<path d="M56.7169 82.9121C56.3942 89.7188 56.0128 107.293 56.4822 112.486" stroke="#6F69DB" stroke-width="0.586788" stroke-miterlimit="10" stroke-linecap="round" stroke-linejoin="round"/>
<path d="M69.2148 65.9258C70.3884 71.0602 78.4274 105.299 79.3369 108.732" stroke="#6F69DB" stroke-width="0.586788" stroke-miterlimit="10" stroke-linecap="round" stroke-linejoin="round"/>
<path d="M58.5357 87.285C58.0369 93.7984 58.4183 108.175 58.5063 111.314C58.5063 111.695 58.2716 112.047 57.9195 112.135C55.0443 113.016 47.152 113.837 43.7193 113.074C43.3672 112.986 43.1031 112.693 43.0738 112.312C41.7535 94.3852 40.668 69.8574 40.668 69.8574" stroke="black" stroke-width="0.586788" stroke-miterlimit="10" stroke-linecap="round" stroke-linejoin="round"/>
<path d="M65.2246 66.3945C65.9581 71.6463 68.4226 74.6682 71.2099 74.5509" stroke="#6F69DB" stroke-width="0.586788" stroke-miterlimit="10" stroke-linecap="round" stroke-linejoin="round"/>
<path d="M53.1074 75.2856C53.9583 75.6084 56.8629 83.5007 58.5352 87.2561C60.0315 90.6595 64.9605 107.207 65.8994 110.376C65.9874 110.698 66.2808 110.933 66.6035 110.962C70.359 111.373 77.6645 110.082 80.2464 108.351C80.5397 108.146 80.6571 107.794 80.5984 107.471L71.8259 68.2148" stroke="black" stroke-width="0.586788" stroke-miterlimit="10" stroke-linecap="round" stroke-linejoin="round"/>
<path d="M39.9053 64.3708C39.9346 68.6543 40.9908 70.8548 40.9908 70.8548C40.9908 70.8548 49.0298 72.2924 57.1568 71.8523C65.2838 71.4122 71.8265 69.4171 71.8265 69.4171V63.2559L39.9053 64.3708Z" fill="white"/>
<path d="M41.1377 64.3708C41.167 68.6543 42.1646 70.8548 42.1646 70.8548C42.1646 70.8548 49.8808 72.2924 57.7144 71.8523C65.5481 71.4122 71.8267 69.4171 71.8267 69.4171V63.2559L41.1377 64.3708Z" fill="#FF6A5A"/>
<path d="M39.9053 64.3708C39.9346 66.982 40.316 68.8304 40.6094 69.8573C40.7855 70.4734 41.3136 70.9135 41.9297 71.0308C44.3062 71.3829 50.6728 72.2044 57.1275 71.8523C63.2007 71.5296 68.3938 70.3267 70.6236 69.7399C71.3278 69.5639 71.7972 68.9477 71.7972 68.2143V63.2266L39.9053 64.3708Z" stroke="black" stroke-width="0.586788" stroke-miterlimit="10" stroke-linecap="round" stroke-linejoin="round"/>
<path d="M62.4965 27.2549C69.2152 29.0153 70.8875 29.8954 71.7677 38.9026C72.6186 47.5871 75.4351 64.1345 70.7115 66.4523C66.0759 68.6528 50.4086 69.2982 39.6118 67.0978C35.8857 66.2176 35.2108 55.5087 34.9175 47.7338C34.5654 38.9026 33.4211 32.1839 38.0861 29.9248C42.7511 27.6656 52.6971 25.1425 62.4965 27.2549Z" fill="white"/>
<path d="M62.8188 28.4569C69.3614 30.1586 70.9458 31.0094 71.7966 39.7526C72.6181 48.2023 75.3467 63.6642 70.7697 65.894C66.2808 68.0357 50.5549 68.2705 40.0807 66.1287C36.472 65.2779 35.005 52.6619 34.7116 45.0924C34.3889 36.5253 34.5356 33.2099 39.0832 31.0094C43.6308 28.809 53.3128 26.4325 62.8188 28.4569Z" fill="#FF6A5A"/>
<path d="M62.4965 27.2549C69.2152 29.0153 70.8875 29.8954 71.7677 38.9026C72.6186 47.5871 75.4351 64.1345 70.7115 66.4523C66.0759 68.6528 50.4086 69.2982 39.6118 67.0978C35.8857 66.2176 35.2108 55.5087 34.9175 47.7338C34.5654 38.9026 33.4211 32.1839 38.0861 29.9248C42.7511 27.6656 52.6971 25.1425 62.4965 27.2549Z" stroke="black" stroke-width="0.586788" stroke-miterlimit="10" stroke-linecap="round" stroke-linejoin="round"/>
<path d="M32.1302 8.36108C34.184 8.88919 34.2133 9.68135 34.2133 9.68135C34.272 9.76937 34.3013 9.88672 34.3307 10.0041C34.6241 10.0921 34.8881 10.1801 35.0642 10.2975C36.1204 11.0896 35.4162 12.4979 34.7708 12.7913C34.7121 13.5248 33.7732 14.1116 32.9517 14.3463C32.9224 14.4343 32.8637 14.5223 32.8344 14.6104C32.3649 16.9282 30.9273 18.8352 29.9885 19.0993C29.0496 19.3633 28.4628 24.087 28.4628 24.087L25.1475 21.7105C25.1475 21.7105 25.2061 21.4171 25.3235 20.9183C25.7929 18.8352 27.0252 13.1727 27.1425 11.4124C27.5239 9.32927 27.7587 7.92099 28.4041 7.24618C29.0496 6.54203 29.7831 6.01393 30.6046 6.39534C31.4261 6.77675 32.3063 7.12882 32.1302 8.36108Z" fill="white"/>
<path d="M31.1034 8.53713C33.1571 9.06524 33.1865 9.8574 33.1865 9.8574C33.2451 9.94542 33.2745 10.0628 33.3038 10.1801C33.5972 10.2682 33.8613 10.3562 34.0373 10.4735C35.0935 11.2657 35.1522 11.9112 34.5067 12.2046C34.448 12.938 33.7439 13.5248 32.8931 13.7595C32.3356 13.8769 31.7195 13.8769 31.7488 13.7009C31.3967 14.0236 31.6608 14.7277 32.8344 14.6397C32.3649 16.9575 30.9273 18.8646 29.9885 19.1287C29.0496 19.3927 28.4628 24.1163 28.4628 24.1163L25.1475 21.7399C25.1475 21.7399 25.2061 21.4465 25.3235 20.9477C25.7929 18.8646 27.0252 13.2021 27.1425 11.4417C27.876 10.1215 28.3748 8.41978 28.9909 7.74497C29.6364 7.07016 31.0153 7.33422 31.4554 7.74497C31.8955 8.12638 31.1034 8.53713 31.1034 8.53713Z" fill="#8990AB"/>
<path d="M25.0889 21.7104C25.0889 21.7104 26.9372 13.5833 27.0839 11.4122C27.1426 10.0333 28.0228 6.36586 29.6365 6.27784C31.2795 6.18982 31.9836 7.45141 31.9836 7.45141C31.9836 7.45141 32.0716 8.00886 30.9861 8.1849" stroke="black" stroke-width="0.440091" stroke-miterlimit="10" stroke-linecap="round" stroke-linejoin="round"/>
<path d="M28.3457 10.2094C28.6098 8.80116 30.0474 7.83295 32.1011 8.36106C34.1549 8.88917 34.1842 9.68134 34.1842 9.68134" stroke="black" stroke-width="0.440091" stroke-miterlimit="10" stroke-linecap="round" stroke-linejoin="round"/>
<path d="M29.666 11.2062C30.1941 9.70989 33.9789 9.50451 35.0351 10.2967C36.0913 11.0888 35.3872 12.4971 34.7417 12.7905" stroke="black" stroke-width="0.440091" stroke-miterlimit="10" stroke-linecap="round" stroke-linejoin="round"/>
<path d="M30.6045 12.6155C31.8661 11.0018 34.8294 11.6766 34.712 12.7915C34.624 13.9064 32.4822 14.6986 31.7781 14.3759C31.0739 14.0531 31.9541 13.1436 31.9541 13.1436" stroke="black" stroke-width="0.440091" stroke-miterlimit="10" stroke-linecap="round" stroke-linejoin="round"/>
<path d="M32.7759 14.6094C32.3064 16.9272 30.8688 18.8342 29.9299 19.0983C28.9911 19.3624 28.4043 24.086 28.4043 24.086" stroke="black" stroke-width="0.440091" stroke-miterlimit="10" stroke-linecap="round" stroke-linejoin="round"/>
<path d="M22.4484 19.3041C13.1185 33.2403 15.4363 41.1619 20.7174 44.2426C25.9985 47.3232 39.4652 44.2426 39.4652 44.2426C39.4652 44.2426 49.3233 31.6266 46.8588 28.546C44.4236 25.4654 38.145 29.7783 32.7465 30.8932C27.3481 31.9787 26.5266 30.7171 28.551 25.6414C30.5754 20.5657 30.7221 18.3652 30.7221 18.3652L22.4484 19.3041Z" fill="white"/>
<path d="M23.857 18.6293C14.5271 32.5655 16.2581 40.4871 21.5392 43.5678C26.8203 46.6484 34.742 45.0934 34.742 45.0934C34.742 45.0934 40.6979 45.4455 43.4264 42.5702C47.3579 38.4334 48.3554 30.3944 46.9178 28.546C44.4826 25.4654 38.204 29.7783 32.8056 30.8932C27.4071 31.9787 26.5856 30.7171 28.61 25.6414C30.6344 20.5657 30.7811 18.3652 30.7811 18.3652L23.857 18.6293Z" fill="#FF6A5A"/>
<path d="M46.8881 28.546C44.4529 25.4654 38.1743 29.7783 32.7759 30.8932C27.3774 31.9787 26.5559 30.7171 28.5803 25.6414C30.6047 20.5657 30.7514 18.3652 30.7514 18.3652L22.4484 19.3041C13.1185 33.2403 15.4363 41.1619 20.7174 44.2426C23.9741 46.1496 30.3114 45.7095 34.7123 45.0934" stroke="black" stroke-width="0.586788" stroke-miterlimit="10" stroke-linecap="round" stroke-linejoin="round"/>
<path d="M39.5825 67.0981C35.8564 66.2179 35.1816 55.5091 34.8882 47.7341C34.8001 45.387 34.6534 43.1572 34.5654 41.1621" stroke="black" stroke-width="0.586788" stroke-miterlimit="10" stroke-linecap="round" stroke-linejoin="round"/>
<path d="M43.6023 33.4468C38.1452 28.5764 40.2576 25.2024 45.8028 23.2953C48.8541 22.4445 53.255 22.2391 56.453 23.2953C66.0763 25.4078 62.7316 31.7744 56.7757 34.503" fill="white"/>
<path d="M43.6028 33.534C39.5833 28.2529 40.2581 25.9351 45.8032 24.1748C48.8545 23.4119 53.2554 23.1772 56.4534 24.1748C66.0767 26.1112 62.732 31.979 56.7762 34.5316" fill="#FF6A5A"/>
<path d="M43.6023 33.4468C38.1452 28.5764 40.2576 25.2024 45.8028 23.2953C48.8541 22.4445 53.255 22.2391 56.453 23.2953C65.1667 25.1437 63.9638 31.1876 58.0079 33.9162" stroke="black" stroke-width="0.586788" stroke-miterlimit="10" stroke-linecap="round" stroke-linejoin="round"/>
<path d="M56.746 13.7889C56.0125 19.334 57.0394 29.9549 56.0125 32.302C54.9856 34.6492 44.7462 37.8472 45.0396 34.2091C45.333 30.571 46.5652 23.6469 44.6288 20.6249C42.6924 17.6323 43.1032 13.1727 48.6483 10.3268C54.1641 7.4809 56.9513 11.295 56.746 13.7889Z" fill="white"/>
<path d="M51.4059 36.3801C54.2225 36.0867 56.3349 32.4193 56.4523 31.099C56.7457 27.813 56.0415 19.334 56.7457 13.7888C56.8337 12.7326 56.3642 11.4123 55.396 10.4735C54.0464 9.65196 52.022 9.47592 49.3521 10.8255C43.8363 13.6715 43.4256 18.131 45.3326 21.1237C47.269 24.1163 46.3302 27.461 46.0074 31.0697C45.6554 35.0892 45.2153 36.3508 45.2153 36.3508H46.2128H51.4059V36.3801Z" fill="#8990AB"/>
<path d="M51.4059 36.3802C54.1932 36.0281 56.7164 33.4169 56.4523 30.1016C56.2469 27.5784 56.0416 19.3047 56.7457 13.7889C56.9511 11.295 54.1638 7.4809 48.648 10.3268C43.1322 13.1727 42.7215 17.6323 44.6285 20.6249C46.5649 23.6176 45.5967 26.9622 45.3033 30.571C45.1566 32.7421 44.5699 35.9401 44.5699 35.9401L46.0662 35.8814C46.0955 35.8521 50.4964 36.4682 51.4059 36.3802Z" stroke="black" stroke-width="0.586788" stroke-miterlimit="10" stroke-linecap="round" stroke-linejoin="round"/>
<path d="M49.4696 3.02212C45.4501 2.31798 40.9318 4.92918 41.5479 14.5818C42.1641 24.2345 49.0882 22.7969 51.318 20.7724C53.5477 18.748 56.159 16.929 56.3057 11.2958C56.511 5.66267 53.5184 3.72627 49.4696 3.02212Z" fill="white"/>
<path d="M50.2918 3.02212C46.2723 2.31798 41.7541 4.92918 42.3702 14.5818C42.9863 24.2345 49.9104 22.7969 52.1402 20.7724C54.37 18.748 56.9812 16.929 57.1279 11.2958C57.2746 5.66267 54.3113 3.72627 50.2918 3.02212Z" fill="#8990AB"/>
<path d="M42.634 19.1877C44.8051 23.618 49.5287 22.3857 51.3184 20.7721C55.9247 17.5741 51.5531 16.5472 46.4774 16.6059C44.1303 16.6059 41.6364 17.6914 42.634 19.1877Z" fill="#3F6395"/>
<path d="M51.3183 20.7725C49.0885 22.7675 42.1938 24.2345 41.5483 14.5818C40.9028 4.92918 45.4211 2.31798 49.4699 3.02212C53.4894 3.72627 56.482 5.66267 56.306 11.2958" stroke="black" stroke-width="0.586788" stroke-miterlimit="10" stroke-linecap="round" stroke-linejoin="round"/>
<path d="M48.1502 18.3947C47.5047 18.7762 46.2138 18.6881 45.5977 18.248" stroke="black" stroke-width="0.586788" stroke-miterlimit="10" stroke-linecap="round" stroke-linejoin="round"/>
<path d="M46.3014 13.7587C46.0373 13.6413 45.5092 15.7244 46.184 15.7244C47.3283 15.7244 46.5948 13.876 46.3014 13.7587Z" fill="#3F6395"/>
<path d="M49.3232 10.3262C50.4968 10.5022 51.1423 11.5291 51.1423 11.5291" stroke="black" stroke-width="0.586788" stroke-miterlimit="10" stroke-linecap="round" stroke-linejoin="round"/>
<path d="M44.8935 10.2383C44.5414 10.3556 43.8373 10.7664 43.5732 11.3238" stroke="black" stroke-width="0.586788" stroke-miterlimit="10" stroke-linecap="round" stroke-linejoin="round"/>
<path d="M43.3676 14.2296C43.2209 14.2296 43.1035 14.1123 43.1035 13.9656L43.1329 13.7015C43.1329 13.5548 43.2502 13.4668 43.3969 13.4668H43.4263C43.5729 13.4668 43.661 13.5842 43.661 13.7309L43.6316 13.9949C43.6316 14.1416 43.5143 14.259 43.3676 14.2296Z" fill="black"/>
<path d="M48.7953 14.6691C48.6486 14.6691 48.5312 14.5517 48.5312 14.405L48.5606 14.141C48.5606 13.9943 48.6779 13.9062 48.8246 13.9062H48.854C49.0007 13.9062 49.0887 14.0236 49.0887 14.1703L49.0594 14.4344C49.0594 14.5811 48.942 14.6691 48.7953 14.6691Z" fill="black"/>
<path d="M57.4502 12.5861C57.9197 9.35875 58.8879 5.72067 56.0713 3.87229C53.2547 2.02391 50.5261 2.55201 50.5261 2.55201C49.7927 1.05571 47.5042 1.17306 46.8881 2.19994C45.6265 0.41024 41.9884 0.79165 40.8441 2.90409C39.6999 5.01652 40.4041 7.71575 43.25 7.89178C46.0959 8.06782 49.734 6.21944 49.734 6.21944C49.822 7.53971 52.2278 10.1803 53.3721 10.2389C52.9026 12.0286 54.2816 13.701 55.3378 13.8477L56.0713 13.2902C56.6581 13.0262 57.4502 12.5861 57.4502 12.5861Z" fill="white"/>
<path d="M57.4501 12.5856C57.9196 9.35822 58.8878 5.72014 56.0712 3.87176C53.2546 2.02338 50.526 2.55149 50.526 2.55149C49.1471 0.937821 47.8855 1.818 47.152 2.75686C47.0053 2.96224 46.7119 2.99158 46.5359 2.7862C45.3916 1.61263 43.0445 1.43659 41.8122 2.90356C40.3159 4.69326 41.3722 7.71522 44.2181 7.89125C47.064 8.06729 49.7045 6.21891 49.7045 6.21891C49.7926 7.53918 52.1984 10.1797 53.3426 10.2384C52.8732 12.0281 54.2521 13.7005 55.3084 13.8472L56.0418 13.2897C56.658 13.0256 57.4501 12.5856 57.4501 12.5856Z" fill="#3F6395"/>
<path d="M56.834 16.371C57.9358 16.371 58.829 15.4778 58.829 14.3759C58.829 13.2741 57.9358 12.3809 56.834 12.3809C55.7321 12.3809 54.8389 13.2741 54.8389 14.3759C54.8389 15.4778 55.7321 16.371 56.834 16.371Z" fill="#8990AB"/>
<path d="M54.7217 15.1098C55.1911 16.0193 56.306 16.3714 57.1862 15.902C58.0957 15.4326 58.4478 14.3177 57.9784 13.4375C57.5089 12.528 56.394 12.1759 55.5138 12.6453" stroke="black" stroke-width="0.586788" stroke-miterlimit="10" stroke-linecap="round" stroke-linejoin="round"/>
<path d="M57.4502 12.5861C57.9197 9.35875 58.8879 5.72067 56.0713 3.87229C53.2547 2.02391 50.5261 2.55201 50.5261 2.55201C49.7927 1.05571 47.5042 1.17306 46.8881 2.19994C45.6265 0.41024 41.9884 0.79165 40.8441 2.90409C39.6999 5.01652 40.4041 7.71575 43.25 7.89178C46.0959 8.06782 49.734 6.21944 49.734 6.21944C49.822 7.53971 52.2278 10.1803 53.3721 10.2389C52.9906 11.6766 53.8415 13.0555 54.7217 13.613" stroke="black" stroke-width="0.586788" stroke-miterlimit="10" stroke-linecap="round" stroke-linejoin="round"/>
<path d="M44.2472 26.4344C43.2204 26.8745 42.3988 27.4319 43.5431 28.9576C44.6873 30.4832 49.3229 31.158 49.675 33.7986C49.675 33.7986 49.7924 31.8035 54.6627 30.6006C59.533 29.3977 59.357 26.7571 57.0979 25.877C61.0587 27.4026 55.0441 36.2044 53.5185 37.9648C51.9635 39.6958 45.6555 38.5516 44.1886 37.9648C42.7509 37.378 44.9807 32.625 44.2472 31.6568C43.5137 30.6886 39.1715 27.784 44.2472 26.4344Z" fill="#FF6A5A"/>
<path d="M57.127 25.9355C59.4155 26.8157 59.5915 29.4563 54.6919 30.6592C49.8215 31.8621 49.7042 33.8572 49.7042 33.8572C49.3814 31.2166 44.7165 30.5712 43.5722 29.0162C42.428 27.4612 43.2495 26.9331 44.2764 26.493" stroke="black" stroke-width="0.586788" stroke-miterlimit="10" stroke-linecap="round" stroke-linejoin="round"/>
<path d="M52.6973 19.5994C54.7218 17.1056 54.3697 15.5799 53.5775 15.4626C52.7854 15.3452 52.3159 17.1349 49.5287 16.7242C47.9737 16.5188 52.0519 20.3623 52.6973 19.5994Z" fill="#3F6395"/>
<path d="M30.517 9.88596C30.3409 8.88842 31.1331 8.06692 31.9253 7.86154C32.7174 7.68551 32.6294 6.36523 34.9766 6.36523C37.3237 6.36523 38.2919 7.33343 39.3775 7.77353C40.463 8.21362 43.9251 7.92022 45.6268 9.35785C46.0375 9.68058 45.6268 18.9518 45.6268 19.7147C45.6268 20.4775 43.7784 20.9762 42.9862 20.8882C42.194 20.8002 36.3555 19.7147 36.3555 19.7147C33.3629 19.2159 31.0744 18.3944 30.9571 15.3724C30.8397 12.3211 30.517 9.88596 30.517 9.88596Z" fill="white"/>
<path d="M30.8685 10.4443C30.7218 9.50539 31.4552 8.71323 32.2474 8.53719C33.0396 8.36116 32.9515 7.12891 35.2107 7.12891C37.4698 7.12891 38.438 8.03843 39.4942 8.44918C40.5504 8.85993 43.9538 8.56653 45.5968 9.94548C46.0076 10.2682 45.5968 19.07 45.5968 19.8035C45.5968 20.537 43.7778 21.0064 43.015 20.9184C42.2228 20.8304 36.531 19.8035 36.531 19.8035C33.6264 19.3341 31.3672 18.5419 31.2792 15.6667C31.1912 12.7621 30.8685 10.4443 30.8685 10.4443Z" fill="#6F69DB"/>
<path d="M35.7392 9.4458L34.5657 9.29911C34.1842 9.24043 33.9202 8.91769 33.9789 8.53628C34.0375 8.18421 34.3603 7.92015 34.7417 7.94949L35.9153 8.09619C36.2967 8.15487 36.5607 8.4776 36.5021 8.85902C36.4727 9.24043 36.1206 9.47514 35.7392 9.4458Z" fill="white"/>
<path d="M40.4922 11.5592L39.7293 11.4712C39.4946 11.4419 39.3186 11.2365 39.3479 11.0018C39.3773 10.7671 39.612 10.591 39.8467 10.6204L40.6095 10.7084C40.8442 10.7377 41.0203 10.9431 40.9909 11.1778C40.9323 11.4125 40.7269 11.5886 40.4922 11.5592Z" fill="white"/>
<path d="M36.3262 19.7161C36.3262 19.7161 42.1647 20.8016 42.9569 20.8896C43.749 20.9776 45.5974 20.4789 45.5974 19.7161C45.5974 18.9532 46.0082 9.68198 45.5974 9.35925C45.1867 9.03652 43.1036 9.32991 42.3407 9.85802C41.5779 10.3861 42.018 18.5718 42.4874 19.7454" stroke="black" stroke-width="0.586788" stroke-miterlimit="10" stroke-linecap="round" stroke-linejoin="round"/>
<path d="M45.5975 9.35785C43.9251 7.92022 40.4337 8.21362 39.3482 7.77353C38.2626 7.33343 37.2944 6.36523 34.9473 6.36523C32.6295 6.36523 32.7175 7.65617 31.896 7.86154C31.1038 8.03758 30.3116 8.88842 30.4877 9.88596" stroke="black" stroke-width="0.586788" stroke-miterlimit="10" stroke-linecap="round" stroke-linejoin="round"/>
<path d="M35.4752 9.4171L34.2429 9.2704C33.7148 9.21173 33.3627 8.7423 33.4214 8.21419C33.4801 7.71542 33.9495 7.33401 34.4776 7.39269L35.7099 7.53938C36.238 7.59806 36.5901 8.06749 36.5314 8.5956C36.4727 9.12371 36.0033 9.47578 35.4752 9.4171Z" stroke="black" stroke-width="0.586788" stroke-miterlimit="10" stroke-linecap="round" stroke-linejoin="round"/>
<path d="M40.2573 11.5298L39.3771 11.4124C39.025 11.3537 38.761 11.031 38.7903 10.6789C38.849 10.3268 39.1717 10.0628 39.5238 10.1215L40.404 10.2388C40.7561 10.2975 41.0201 10.6202 40.9908 10.9723C40.9614 11.3244 40.6387 11.5591 40.2573 11.5298Z" stroke="black" stroke-width="0.586788" stroke-miterlimit="10" stroke-linecap="round" stroke-linejoin="round"/>
<path d="M38.0571 15.1083C37.7931 12.2624 35.622 10.15 33.2162 10.3554C32.9228 10.3847 32.6294 10.4434 32.3653 10.5314C31.4851 10.0326 30.4876 9.76857 29.4314 9.85658L25.7053 10.1793C22.6246 10.4434 20.3948 13.612 20.7176 17.2208C21.0403 20.8295 23.7982 23.5581 26.8788 23.294L30.6049 22.9713C32.1893 22.8246 33.5389 21.9444 34.4484 20.5948C36.7075 20.2134 38.3212 17.8076 38.0571 15.1083Z" fill="white"/>
<path d="M38.0571 15.8123C37.7931 13.2011 35.622 11.2647 33.2162 11.47C32.9228 11.4994 32.6294 11.5581 32.3653 11.6461C31.4851 11.1767 30.4876 10.9419 29.4314 11.03L25.7053 11.3233C22.6246 11.5581 20.3948 14.4627 20.7176 17.7487C21.0403 21.064 23.7982 23.5285 26.8788 23.2938L30.6049 23.0004C32.1893 22.8831 33.5389 22.0616 34.4484 20.8293C36.7075 20.4772 38.3212 18.2768 38.0571 15.8123Z" fill="#6F69DB"/>
<path d="M26.942 23.2616C30.0218 22.9555 32.2273 19.7793 31.8683 16.1675C31.5092 12.5556 28.7215 9.87585 25.6418 10.182C22.5621 10.4881 20.3565 13.6643 20.7155 17.2762C21.0746 20.888 23.8623 23.5678 26.942 23.2616Z" stroke="black" stroke-width="0.586788" stroke-miterlimit="10" stroke-linecap="round" stroke-linejoin="round"/>
<path d="M25.7051 10.1804L29.4312 9.85767C32.5118 9.59362 35.2697 12.2928 35.5924 15.9309C35.9152 19.5397 33.6854 22.7083 30.6048 22.9724L26.8787 23.2951" stroke="black" stroke-width="0.586788" stroke-miterlimit="10" stroke-linecap="round" stroke-linejoin="round"/>
<path d="M34.4483 20.595C36.7075 20.2136 38.2918 17.8371 38.0571 15.1086C37.793 12.2626 35.6219 10.1502 33.2161 10.3556C32.9227 10.3849 32.6293 10.4436 32.3652 10.5316" stroke="black" stroke-width="0.586788" stroke-miterlimit="10" stroke-linecap="round" stroke-linejoin="round"/>
<path d="M28.2733 21.599C30.563 21.3714 32.2021 19.0039 31.9344 16.3112C31.6668 13.6184 29.5936 11.62 27.304 11.8476C25.0143 12.0753 23.3752 14.4427 23.6429 17.1354C23.9106 19.8282 25.9837 21.8266 28.2733 21.599Z" fill="white"/>
<path d="M28.6387 21.5411C30.7348 21.3328 32.2366 19.177 31.9929 16.7261C31.7493 14.2752 29.8525 12.4573 27.7564 12.6657C25.6602 12.874 24.1584 15.0298 24.4021 17.4807C24.6457 19.9316 26.5425 21.7495 28.6387 21.5411Z" fill="#3F6395"/>
<path d="M30.4289 16.8687C30.5756 18.4824 29.578 19.8614 28.2284 19.9787C27.3776 20.0667 27.4656 20.8296 28.6392 20.7415C30.1942 20.5948 31.3091 19.0105 31.133 17.1915C31.0157 15.9886 30.3409 15.9592 30.4289 16.8687Z" fill="#DEDFF7"/>
<path d="M28.2733 21.599C30.563 21.3714 32.2021 19.0039 31.9344 16.3112C31.6668 13.6184 29.5936 11.62 27.304 11.8476C25.0143 12.0753 23.3752 14.4427 23.6429 17.1354C23.9106 19.8282 25.9837 21.8266 28.2733 21.599Z" stroke="black" stroke-width="0.586788" stroke-miterlimit="10" stroke-linecap="round" stroke-linejoin="round"/>
<path d="M27.3037 16.9224C27.7713 16.8759 28.1049 16.3808 28.0488 15.8164C27.9927 15.2521 27.5682 14.8322 27.1006 14.8787C26.633 14.9252 26.2994 15.4204 26.3555 15.9847C26.4116 16.5491 26.8361 16.9689 27.3037 16.9224Z" fill="#DEDFF7"/>
<path d="M49.0879 29.9261C49.0879 29.9261 48.9706 29.6327 48.7652 29.1633C47.9437 27.1682 45.7726 21.8284 45.3618 20.1268C44.8337 18.0143 44.7457 12.3812 43.4841 12.3225C42.5746 12.1171 42.5159 15.9019 42.692 17.5742L42.8386 17.8676C42.0758 17.4569 41.0783 17.4275 39.9047 17.9263C37.9683 18.7772 38.0857 19.5693 38.0857 19.5693C38.027 19.6573 38.027 19.7747 38.027 19.9214C37.7336 20.0387 37.5282 20.1854 37.3522 20.3321C36.4427 21.271 37.3815 22.5619 38.0563 22.738C38.2324 23.4421 39.2592 23.8822 40.1101 23.9702C40.1688 24.0582 40.2274 24.1463 40.2861 24.2049C41.1663 26.4054 42.868 28.0484 43.8362 28.1364C44.8044 28.2244 46.1833 32.8014 46.1833 32.8014L49.0879 29.9261Z" fill="white"/>
<path d="M40.3156 24.234C41.1957 26.4344 42.8974 28.0774 43.8656 28.1655C44.8338 28.2535 46.2128 32.8304 46.2128 32.8304L49.0587 29.9258C49.0587 29.9258 48.9413 29.6324 48.736 29.163C47.9145 27.1679 45.7433 21.8281 45.3326 20.1265C44.8045 18.014 45.1566 13.5251 43.895 13.4371C42.9854 13.2317 43.5135 15.8722 43.6896 17.5739L43.8363 17.8673C43.0735 17.4566 42.0759 17.4272 40.9023 17.926C38.9659 18.7768 39.0833 19.569 39.0833 19.569C39.0246 19.657 39.0246 19.7744 39.0246 19.9211C38.7312 20.0384 38.5259 20.1851 38.3498 20.3318C37.4403 21.2707 37.499 21.9455 38.2031 22.1215C38.3792 22.8257 39.1713 23.2951 40.0515 23.3831C40.6383 23.4125 41.2251 23.3245 41.1957 23.1191C41.6358 23.4125 41.4891 24.146 40.3156 24.234Z" fill="#8990AB"/>
<path d="M49.0884 29.9261C49.0884 29.9261 45.8904 22.2392 45.3623 20.1268C44.8342 18.0143 44.7462 12.3812 43.4846 12.3225C42.5751 12.1171 42.5164 15.9019 42.6924 17.5742" stroke="black" stroke-width="0.440091" stroke-miterlimit="10" stroke-linecap="round" stroke-linejoin="round"/>
<path d="M43.9249 19.1298C43.4261 17.7802 41.8418 17.0761 39.9054 17.9563C37.969 18.8071 38.0863 19.5993 38.0863 19.5993" stroke="black" stroke-width="0.440091" stroke-miterlimit="10" stroke-linecap="round" stroke-linejoin="round"/>
<path d="M42.8095 20.3613C42.0467 18.9823 38.2913 19.4224 37.3524 20.3613C36.4135 21.3001 37.3817 22.591 38.0566 22.7671" stroke="black" stroke-width="0.440091" stroke-miterlimit="10" stroke-linecap="round" stroke-linejoin="round"/>
<path d="M42.1052 21.9168C40.6089 20.5379 37.7923 21.6821 38.0857 22.7677C38.3791 23.8532 40.6089 24.2933 41.225 23.8532C41.8705 23.4131 40.8436 22.6503 40.8436 22.6503" stroke="black" stroke-width="0.440091" stroke-miterlimit="10" stroke-linecap="round" stroke-linejoin="round"/>
<path d="M40.3154 24.2344C41.1956 26.4348 42.8973 28.0778 43.8655 28.1659C44.8337 28.2539 46.2126 32.8308 46.2126 32.8308" stroke="black" stroke-width="0.440091" stroke-miterlimit="10" stroke-linecap="round" stroke-linejoin="round"/>
<path d="M44.2471 31.6575C45.3326 30.5719 48.736 28.1074 50.1736 28.1074C51.6113 28.1074 53.0196 32.8311 53.0196 32.8311L46.0661 35.853L44.2471 31.6575Z" fill="white"/>
<path d="M45.2441 32.1569C46.183 31.1887 49.2343 29.0176 50.4959 29.0176C51.7575 29.0176 53.0191 33.1838 53.0191 33.1838L46.8578 35.8537L45.2441 32.1569Z" fill="#FF6A5A"/>
<path d="M44.2471 31.6575C45.3326 30.5719 48.736 28.1074 50.1736 28.1074C51.6113 28.1074 53.0196 32.8311 53.0196 32.8311L46.0661 35.853L44.2471 31.6575Z" stroke="black" stroke-width="0.586788" stroke-miterlimit="10" stroke-linecap="round" stroke-linejoin="round"/>
<path d="M54.8385 59.4118C51.1417 57.6515 47.0929 45.6517 45.8313 40.576C44.5697 35.5003 45.0391 34.2093 49.1466 32.8597C53.4889 31.0407 55.3079 30.7179 56.4521 35.8817C57.215 39.3731 60.2076 45.0942 60.9704 47.4707" fill="white"/>
<path d="M55.2198 59.4126C51.7577 57.7402 47.973 46.2392 46.7994 41.3982C45.6258 36.5572 46.0366 35.0022 49.88 33.7113C53.9582 31.9509 55.6599 31.9509 56.7161 36.8799C57.4496 40.2246 60.2368 45.6818 60.941 47.9702" fill="#FF6A5A"/>
<path d="M71.8259 39.7545C70.6817 56.4192 58.5645 61.1722 54.8678 59.4118C51.171 57.6515 47.1222 45.6517 45.8606 40.576C44.599 35.5003 45.0684 34.2093 49.1759 32.8597C53.5182 31.0407 55.3372 30.7179 56.4814 35.8817C57.2443 39.3731 60.2369 45.0942 60.9997 47.4707" stroke="black" stroke-width="0.586788" stroke-miterlimit="10" stroke-linecap="round" stroke-linejoin="round"/>
<path d="M49.5869 148.486H57.1271" stroke="#DEDFF7" stroke-width="0.586788" stroke-miterlimit="10" stroke-linecap="round" stroke-linejoin="round"/>
</svg>
