<svg width="281" height="274" viewBox="0 0 281 274" fill="none" xmlns="http://www.w3.org/2000/svg">
<path d="M67.0611 35.4011C15.0572 83.507 28.9134 212.649 120.43 243.407C211.947 274.164 296.409 212.771 269.748 93.8865C243.086 -24.9978 119.065 -12.7048 67.0611 35.4011Z" fill="#E1EFFF"/>
<path d="M208.247 53.536H236.888C238.401 53.536 238.954 50.5466 237.63 49.4655C235.34 47.5875 231.793 47.6332 230.174 48.3082C229.93 48.4098 229.676 48.222 229.585 47.8768C226.915 37.7004 217.216 40.2077 214.703 47.8413C214.582 48.2067 214.282 48.3539 214.038 48.1712C210.506 45.5624 208.318 47.6941 207.09 49.9933C206.324 51.4297 207.009 53.536 208.247 53.536Z" fill="white"/>
<path d="M137.002 26.0677H76.76C76.1255 26.0677 75.5774 25.5957 75.5063 24.9663C74.7907 18.6625 80.5412 17.079 83.8302 19.0533C84.089 19.2107 84.424 19.033 84.419 18.7336C84.2667 7.61308 97.4377 4.55254 101.828 13.6479C101.975 13.9524 102.407 13.9321 102.534 13.6174C109.056 -2.31467 132.855 -0.436718 131.581 19.1142C131.566 19.3223 131.723 19.5051 131.936 19.5254C137.372 20.0177 138.235 23.0173 138.26 24.7786C138.27 25.4891 137.707 26.0677 136.996 26.0677H137.002Z" fill="#9EC4FB"/>
<path d="M239.355 231.434L183.037 132.806C172.815 114.905 151.589 106.434 131.85 112.367L54.453 135.649C40.0487 139.983 28.8368 151.332 24.6698 165.782L1.96184 244.61C-0.743418 254 3.11907 264.039 11.4125 269.196C15.9957 272.044 21.4671 273.099 26.7761 272.15L142.387 251.538C177.707 254.64 216.84 248.539 239.35 231.429L239.355 231.434Z" fill="white"/>
<path d="M234.396 232.612L179.814 136.938C169.907 119.575 149.346 111.347 130.221 117.103L55.2451 139.669C41.2924 143.866 30.4308 154.875 26.4008 168.888L4.41867 245.341C1.79969 254.447 5.54036 264.187 13.58 269.191C18.0211 271.957 23.32 272.978 28.4666 272.059L140.468 252.087C174.688 255.102 212.597 249.194 234.401 232.602L234.396 232.612Z" fill="#FF6A5A"/>
<path d="M142.392 251.539L137.352 223.284C137.103 221.878 135.814 220.903 134.393 221.04L42.6729 229.851L129.561 226.339C131.86 226.248 133.951 227.664 134.718 229.831L142.387 251.539H142.392Z" fill="white"/>
<path d="M130.221 117.102L87.7588 129.883L103.452 223.049L103.549 224.003L134.393 221.039C135.814 220.902 137.098 221.882 137.352 223.283L141.91 248.843C142.174 250.33 141.184 251.751 139.697 252.02L107.061 257.837L107.081 258.045L140.463 252.091C150.995 253.02 161.877 253.096 172.53 252.284L149.508 115.854C143.219 114.818 136.636 115.169 130.216 117.097L130.221 117.102Z" fill="#DEDFF7"/>
<path d="M164.673 205.711L102.401 216.816" stroke="#BDBFF4" stroke-width="5.07554" stroke-miterlimit="10"/>
<path d="M161.938 189.51L99.6709 200.615" stroke="#BDBFF4" stroke-width="5.07554" stroke-miterlimit="10"/>
<path d="M102.401 216.816L164.673 205.711" stroke="#BDBFF4" stroke-width="5.07554" stroke-miterlimit="10"/>
<path d="M167.409 221.912L138.042 227.145" stroke="#BDBFF4" stroke-width="5.07554" stroke-miterlimit="10"/>
<path d="M140.925 243.321L170.14 238.113" stroke="#BDBFF4" stroke-width="5.07554" stroke-miterlimit="10"/>
<path d="M159.207 173.309L96.9453 184.414" stroke="#BDBFF4" stroke-width="5.07554" stroke-miterlimit="10"/>
<path d="M99.6709 200.615L161.938 189.51" stroke="#BDBFF4" stroke-width="5.07554" stroke-miterlimit="10"/>
<path d="M91.4844 152.012L153.741 140.912" stroke="#BDBFF4" stroke-width="5.07554" stroke-miterlimit="10"/>
<path d="M151.005 124.711L88.7588 135.811" stroke="#BDBFF4" stroke-width="5.07554" stroke-miterlimit="10"/>
<path d="M153.741 140.912L91.4844 152.012" stroke="#BDBFF4" stroke-width="5.07554" stroke-miterlimit="10"/>
<path d="M94.2148 168.213L156.471 157.113" stroke="#BDBFF4" stroke-width="5.07554" stroke-miterlimit="10"/>
<path d="M156.471 157.113L94.2148 168.213" stroke="#BDBFF4" stroke-width="5.07554" stroke-miterlimit="10"/>
<path d="M96.9453 184.414L159.207 173.309" stroke="#BDBFF4" stroke-width="5.07554" stroke-miterlimit="10"/>
<path d="M88.7588 135.811L151.005 124.711" stroke="#BDBFF4" stroke-width="5.07554" stroke-miterlimit="10"/>
<path d="M166.922 252.63C156.344 240.733 155.806 236.307 138.042 227.15L142.392 251.543C142.392 251.543 140.316 252.112 141.509 252.218C145.554 252.569 154.233 253.452 166.922 252.635V252.63Z" fill="white"/>
<path d="M138.788 231.348L142.387 251.538C142.387 251.538 140.311 252.107 141.503 252.213C145.087 252.523 152.309 253.249 162.729 252.843C154.096 242.986 153.03 238.915 138.788 231.348Z" fill="#9EC4FB"/>
<path d="M87.1289 126.162L103.452 223.054" stroke="#2D3142" stroke-width="2.03021" stroke-linecap="round" stroke-linejoin="round"/>
<path d="M42.6725 229.851L134.393 221.04C135.814 220.903 137.098 221.883 137.352 223.284L141.909 248.844C142.173 250.331 141.184 251.752 139.696 252.021L26.781 272.156C21.472 273.105 15.9955 272.049 11.4174 269.202C3.12395 264.045 -0.738535 254.001 1.96673 244.616L24.6747 165.788C28.8366 151.338 40.0535 139.989 54.4579 135.655L131.855 112.373C151.594 106.435 172.819 114.911 183.042 132.812L239.36 231.44" stroke="#2D3142" stroke-width="2.03021" stroke-linecap="round" stroke-linejoin="round"/>
<path d="M149.173 113.434L172.957 254.813" stroke="#2D3142" stroke-width="2.03021" stroke-linecap="round" stroke-linejoin="round"/>
<path d="M139.313 156.681C148.776 148.709 149.454 133.945 140.827 123.704C132.2 113.462 117.535 111.622 108.072 119.594C98.6088 127.565 97.9311 142.33 106.558 152.571C115.185 162.812 129.85 164.652 139.313 156.681Z" fill="white"/>
<path d="M137.071 154.928C145.884 147.503 146.516 133.753 138.481 124.215C130.446 114.677 116.788 112.963 107.975 120.387C99.1613 127.812 98.53 141.562 106.565 151.1C114.599 160.638 128.257 162.352 137.071 154.928Z" fill="#9EC4FB"/>
<path d="M140.869 146.134C140.869 146.134 140.174 129.365 146.661 122.102C131.728 115.305 121.689 115.214 123.45 132.126C125.211 149.037 132.54 147.5 140.869 146.129V146.134Z" fill="#9EC4FB"/>
<path d="M146.661 122.102C140.174 129.36 140.869 146.134 140.869 146.134" stroke="#2D3142" stroke-width="2.03021" stroke-linecap="round" stroke-linejoin="round"/>
<path d="M139.313 156.681C148.776 148.709 149.454 133.945 140.827 123.704C132.2 113.462 117.535 111.622 108.072 119.594C98.6088 127.565 97.9311 142.33 106.558 152.571C115.185 162.812 129.85 164.652 139.313 156.681Z" stroke="#2D3142" stroke-width="2.03021" stroke-linecap="round" stroke-linejoin="round"/>
<path d="M102.29 99.4203L106.168 138.416L120.917 141.75L124.836 98.6133L102.29 99.4203Z" fill="#9EC4FB"/>
<path d="M102.29 99.4199L106.168 138.415" stroke="#2D3142" stroke-width="2.03021" stroke-linecap="round" stroke-linejoin="round"/>
<path d="M120.82 54.461L118.292 55.1464C102.76 59.3576 93.5828 75.3627 97.7941 90.8948L102.313 107.56C106.524 123.092 122.529 132.269 138.061 128.058L140.589 127.373C156.121 123.162 165.298 107.157 161.087 91.6245L156.568 74.9592C152.357 59.4271 136.352 50.2498 120.82 54.461Z" fill="white"/>
<path d="M117.818 56.5813L117.239 56.738C102.706 60.6786 94.1183 75.655 98.0588 90.1887L103.119 108.853C107.06 123.386 122.036 131.974 136.57 128.033L137.148 127.877C151.682 123.936 160.269 108.96 156.329 94.4259L151.268 75.762C147.328 61.2282 132.351 52.6407 117.818 56.5813Z" fill="#9EC4FB"/>
<path d="M138.082 102.019C141.3 103.268 147.33 102.044 149.776 99.4609" stroke="#2D3142" stroke-width="2.03021" stroke-linecap="round" stroke-linejoin="round"/>
<path d="M129.15 91.9645C128.881 90.7362 129.662 89.5232 130.896 89.2542C132.124 88.9852 133.337 89.7668 133.606 91.0001" stroke="#2D3142" stroke-width="2.03021" stroke-linecap="round" stroke-linejoin="round"/>
<path d="M147.817 87.5329C147.548 86.3046 148.329 85.0915 149.563 84.8225C150.791 84.5535 152.004 85.3351 152.273 86.5685" stroke="#2D3142" stroke-width="2.03021" stroke-linecap="round" stroke-linejoin="round"/>
<path d="M143.112 87.0455C144.163 86.3045 148.751 93.5118 145.914 94.5218C143.076 95.5318 142.061 87.7815 143.112 87.0455Z" fill="#7365E3"/>
<path d="M152.618 91.1306C152.957 91.1306 153.232 90.8557 153.232 90.5165C153.232 90.1773 152.957 89.9023 152.618 89.9023C152.279 89.9023 152.004 90.1773 152.004 90.5165C152.004 90.8557 152.279 91.1306 152.618 91.1306Z" fill="#7365E3"/>
<path d="M151.009 93.491C151.455 93.491 151.816 93.1297 151.816 92.684C151.816 92.2383 151.455 91.877 151.009 91.877C150.563 91.877 150.202 92.2383 150.202 92.684C150.202 93.1297 150.563 93.491 151.009 93.491Z" fill="#7365E3"/>
<path d="M153.634 93.7208C154.018 93.7208 154.329 93.4095 154.329 93.0254C154.329 92.6414 154.018 92.3301 153.634 92.3301C153.25 92.3301 152.938 92.6414 152.938 93.0254C152.938 93.4095 153.25 93.7208 153.634 93.7208Z" fill="#7365E3"/>
<path d="M127.789 97.5162C128.12 97.5162 128.388 97.248 128.388 96.9173C128.388 96.5865 128.12 96.3184 127.789 96.3184C127.459 96.3184 127.19 96.5865 127.19 96.9173C127.19 97.248 127.459 97.5162 127.789 97.5162Z" fill="#7365E3"/>
<path d="M130.453 97.7406C131.095 97.7406 131.616 97.2202 131.616 96.5783C131.616 95.9364 131.095 95.416 130.453 95.416C129.811 95.416 129.291 95.9364 129.291 96.5783C129.291 97.2202 129.811 97.7406 130.453 97.7406Z" fill="#7365E3"/>
<path d="M127.931 101.039C128.385 101.039 128.753 100.671 128.753 100.217C128.753 99.7627 128.385 99.3945 127.931 99.3945C127.477 99.3945 127.108 99.7627 127.108 100.217C127.108 100.671 127.477 101.039 127.931 101.039Z" fill="#7365E3"/>
<path d="M130.119 76.834C125.916 78.1689 124.16 82.1887 124.16 82.1887" stroke="#2D3142" stroke-width="2.03021" stroke-linecap="round" stroke-linejoin="round"/>
<path d="M146.183 73.9863C147.487 74.2249 150.294 75.3466 151.588 77.1788" stroke="#2D3142" stroke-width="2.03021" stroke-linecap="round" stroke-linejoin="round"/>
<path d="M144.98 58.6477C138.032 53.4352 126.906 52.552 117.917 54.9883L115.39 55.6735C99.9244 59.8659 90.6971 75.9502 94.8895 91.4205L95.397 93.2832L100.041 94.8515C114.841 92.0448 112.06 83.528 110.187 73.0216C108.629 64.2816 132.87 57.0083 144.98 58.6427V58.6477Z" fill="#7365E3"/>
<path d="M120.82 54.461L118.292 55.1464C102.76 59.3576 93.5828 75.3627 97.7941 90.8948L102.313 107.56C106.524 123.092 122.529 132.269 138.061 128.058L140.589 127.373C156.121 123.162 165.298 107.157 161.087 91.6245L156.568 74.9592C152.357 59.4271 136.352 50.2498 120.82 54.461Z" stroke="#2D3142" stroke-width="2.03021" stroke-linecap="round" stroke-linejoin="round"/>
<path d="M96.7932 108.631C101.413 108.631 105.158 104.886 105.158 100.267C105.158 95.6473 101.413 91.9023 96.7932 91.9023C92.1736 91.9023 88.4287 95.6473 88.4287 100.267C88.4287 104.886 92.1736 108.631 96.7932 108.631Z" fill="#9EC4FB"/>
<path d="M104.442 105.814C101.498 108.885 96.6205 108.991 93.5498 106.047C90.4791 103.104 90.3725 98.2259 93.3163 95.1552C96.2601 92.0845 101.138 91.9779 104.208 94.9218" stroke="#2D3142" stroke-width="2.03021" stroke-linecap="round" stroke-linejoin="round"/>
<path d="M186.98 180.283C185.98 204.686 200.217 248.524 200.811 249.843" stroke="#2D3142" stroke-width="2.03021" stroke-linecap="round" stroke-linejoin="round"/>
<path d="M63.6139 200.656C63.6139 200.656 57.2137 220.39 59.6449 228.221" stroke="#2D3142" stroke-width="2.03021" stroke-linecap="round" stroke-linejoin="round"/>
<path d="M138.042 227.145C155.806 236.301 156.207 240.305 166.785 252.202" stroke="#2D3142" stroke-width="2.03021" stroke-linecap="round" stroke-linejoin="round"/>
<path d="M223.935 63.724H276.528C278.223 63.724 279.35 61.907 278.533 60.4198C276.198 56.1818 269.838 52.6035 263.616 55.1057C262.986 55.3595 262.296 54.8418 262.408 54.1668C264.123 43.5995 255.129 34.9609 248.095 34.9609C241.06 34.9609 233.548 41.3206 234.411 49.1065C234.472 49.6597 234.03 50.1216 233.477 50.0911C226.3 49.6495 220.144 55.9026 221.773 62.0897C222.032 63.0642 222.94 63.724 223.945 63.724H223.935Z" fill="#9EC4FB"/>
<path d="M16.4627 104.916H62.5689C65.0051 104.916 65.8883 101.652 63.7616 100.475C60.0717 98.4245 54.3617 98.4701 51.7631 99.2112C51.3722 99.3228 50.9611 99.1198 50.8139 98.7391C46.5149 87.6339 30.9026 90.3645 26.8625 98.6985C26.6696 99.0944 26.1874 99.2568 25.7915 99.0589C20.1069 96.2115 16.5794 98.5361 14.6051 101.048C13.3717 102.617 14.4731 104.911 16.4678 104.911L16.4627 104.916Z" fill="#9EC4FB"/>
<path d="M155.532 13.5469C159.816 14.3488 161.694 17.2977 161.694 17.2977C161.694 17.2977 164.105 14.0849 166.516 13.5469" stroke="#1F87FF" stroke-width="1.52266" stroke-linecap="round" stroke-linejoin="round"/>
<path d="M171.921 25.9055C175.134 26.1745 176.743 28.5853 176.743 28.5853C176.743 28.5853 178.885 25.1035 180.762 25.1035" stroke="#1F87FF" stroke-width="1.52266" stroke-linecap="round" stroke-linejoin="round"/>
<path d="M186.123 27.3879C190.143 27.9259 191.747 30.0678 191.747 30.0678C191.747 30.0678 192.549 27.9259 194.696 26.5859" stroke="#1F87FF" stroke-width="1.52266" stroke-linecap="round" stroke-linejoin="round"/>
<path d="M203.552 31.9048C204.719 31.5495 206.095 32.0469 206.765 33.0671C206.897 32.859 206.836 30.9353 208.8 30.5293" stroke="#1F87FF" stroke-width="1.52266" stroke-linecap="round" stroke-linejoin="round"/>
<path d="M215.799 24.6519C216.763 24.4285 217.839 24.794 218.458 25.5655C218.321 24.4793 218.991 23.3424 220.006 22.9414" stroke="#1F87FF" stroke-width="1.52266" stroke-linecap="round" stroke-linejoin="round"/>
<path d="M232.041 9.14038C234.609 8.66328 237.396 9.6327 239.111 11.602C238.863 10.8153 240.883 6.07983 244.887 5.59766" stroke="#1F87FF" stroke-width="1.52266" stroke-linecap="round" stroke-linejoin="round"/>
<path d="M225.899 19.0373C227.732 18.6567 229.752 19.3926 230.909 20.8645C230.762 19.6921 231.914 16.6721 234.391 16.3828" stroke="#1F87FF" stroke-width="1.52266" stroke-linecap="round" stroke-linejoin="round"/>
<path d="M271.787 7.4707C266.184 8.97814 262.413 12.4295 262.2 13.6121C259.073 9.08473 253.256 8.87155 251.749 8.97814" stroke="#1F87FF" stroke-width="1.52266" stroke-linecap="round" stroke-linejoin="round"/>
<path d="M258.576 82.7726C242.826 78.6665 232.558 90.3047 210.987 84.143" stroke="white" stroke-width="1.01511" stroke-linecap="round" stroke-linejoin="round"/>
<path d="M259.829 76.195C247.273 73.4035 235.401 78.7988 230.295 80.1032" stroke="white" stroke-width="1.01511" stroke-linecap="round" stroke-linejoin="round"/>
<path d="M277.366 83.4116C274.483 82.4574 271.372 81.1327 268.067 79.3105" stroke="#9EC4FB" stroke-width="1.01511" stroke-linecap="round" stroke-linejoin="round"/>
<path d="M75.6432 60.9382C74.2677 60.4154 72.4354 60.9128 72.2121 63.1562C71.9888 65.3996 74.3337 66.3385 76.0391 65.5366C77.7444 64.7398 77.7343 61.4762 75.6381 60.9382H75.6432Z" stroke="white" stroke-width="1.01511" stroke-linecap="round" stroke-linejoin="round"/>
<path d="M203.775 112.043C202.044 111.384 199.74 112.008 199.466 114.83C199.187 117.652 202.13 118.829 204.277 117.824C206.424 116.819 206.409 112.718 203.775 112.043Z" stroke="white" stroke-width="1.01511" stroke-linecap="round" stroke-linejoin="round"/>
<path d="M178.758 56.1553C176.088 55.1402 172.54 56.0995 172.114 60.4492C171.688 64.799 176.225 66.6109 179.529 65.0629C182.839 63.5149 182.813 57.1908 178.758 56.1503V56.1553Z" stroke="white" stroke-width="1.01511" stroke-linecap="round" stroke-linejoin="round"/>
<path d="M71.5732 41.6652C87.3226 37.5591 97.5904 49.1973 119.161 43.0356" stroke="white" stroke-width="1.01511" stroke-linecap="round" stroke-linejoin="round"/>
<path d="M70.3193 35.0876C82.8762 32.2961 94.7479 37.6914 99.8539 38.9958" stroke="white" stroke-width="1.01511" stroke-linecap="round" stroke-linejoin="round"/>
<path d="M52.7832 42.3003C55.6661 41.3461 58.7774 40.0213 62.0816 38.1992" stroke="#9EC4FB" stroke-width="1.01511" stroke-linecap="round" stroke-linejoin="round"/>
<path d="M252.688 210.087C251.333 201.149 249.196 186.673 248.78 181.588C248.354 176.4 249.739 173.005 250.957 170.005C251.374 168.985 251.764 168.021 252.074 167.031C252.571 165.422 251.673 163.717 250.069 163.219C248.465 162.722 246.755 163.62 246.257 165.224C246.029 165.96 245.699 166.772 245.319 167.706C243.989 170.97 242.167 175.446 242.71 182.08C243.258 188.749 246.501 209.99 247.511 216.522C249.313 214.462 251.039 212.315 252.688 210.082V210.087Z" fill="#868FB0"/>
<path d="M223.458 145.865C223.458 145.865 228.523 151.311 233.208 157.011C236.375 160.863 247.648 168.665 247.648 168.665" stroke="#868FB0" stroke-width="3.04532" stroke-linecap="round" stroke-linejoin="round"/>
<path d="M233.208 157.012L227.255 155.24" stroke="#868FB0" stroke-width="3.04532" stroke-linecap="round" stroke-linejoin="round"/>
<path d="M251.942 153.855L255.449 158.703L244.283 164.621" stroke="#FC6A5A" stroke-width="1.52266" stroke-linecap="round" stroke-linejoin="round"/>
<path d="M241.675 166.616C241.802 165.099 242.182 164.2 244.289 164.621C242.187 165.779 242.776 167.271 243.091 167.905" stroke="#FC6A5A" stroke-width="1.52266" stroke-linecap="round" stroke-linejoin="round"/>
<path d="M244.283 164.622C243.085 162.962 241.06 163.216 240.68 165.373" stroke="#FC6A5A" stroke-width="1.52266" stroke-linecap="round" stroke-linejoin="round"/>
<path d="M230.894 146.51L227.803 148.662" stroke="#FC6A5A" stroke-width="1.52266" stroke-linecap="round" stroke-linejoin="round"/>
<path d="M225.335 151.037C225.229 148.829 225.701 148.241 227.802 148.662C225.701 149.819 226.432 151.063 226.751 151.692" stroke="#FC6A5A" stroke-width="1.52266" stroke-linecap="round" stroke-linejoin="round"/>
<path d="M227.802 148.661C226.224 146.56 224.341 148.148 224.341 149.285" stroke="#FC6A5A" stroke-width="1.52266" stroke-linecap="round" stroke-linejoin="round"/>
<path d="M232.401 114.109C238.248 104.587 250.774 108.764 251.942 114.276C252.779 117.423 253.312 123.113 253.312 123.113L263.93 147.399L278.883 164.006C279.385 164.519 278.979 165.377 278.268 165.316L271.234 164.747C270.406 164.681 269.65 164.265 269.153 163.6C268.062 162.149 265.534 158.824 259.936 151.602C259.936 151.602 248.343 162.027 234.903 152.185C220.539 141.664 225.95 124.605 232.396 114.104L232.401 114.109Z" fill="white"/>
<path d="M234.878 114.326C240.588 104.804 250.708 110.87 251.85 116.382C252.668 119.528 253.19 125.218 253.19 125.218L264.275 147.398L278.883 164.005C279.37 164.518 278.979 165.376 278.284 165.315L271.412 164.746C270.605 164.68 269.863 164.264 269.376 163.599C268.31 162.148 265.844 158.823 260.372 151.601C260.372 151.601 250.358 161.28 237.228 151.433C223.194 140.912 228.574 124.827 234.878 114.321V114.326Z" fill="#E2E7F0"/>
<path d="M261.875 150.246C267.103 156.986 269.463 160.093 270.483 161.448C270.945 162.067 271.656 162.458 272.427 162.519L276.345 162.443C277.01 162.498 277.386 161.696 276.919 161.219L264.804 147.16L261.337 139.445L257.576 146.267L262.515 148.678L261.875 150.251V150.246Z" fill="#1F87FF"/>
<path d="M261.981 140.205C262.941 142.185 263.763 144.606 261.048 143.307C264.001 145.433 261.149 148.646 256.561 147.6C248.019 145.662 243.745 136.5 251.379 124.334C251.835 123.578 252.805 122.527 252.805 122.527C252.805 122.527 260.2 136.516 261.981 140.2V140.205Z" fill="#1F87FF"/>
<path d="M259.936 151.607C265.535 158.829 268.062 162.149 269.154 163.605C269.651 164.27 270.407 164.686 271.235 164.752L278.269 165.321C278.98 165.377 279.386 164.519 278.883 164.011L263.931 147.404L253.313 123.118C253.313 123.118 252.775 117.428 251.942 114.281" stroke="#3F6392" stroke-width="2.03021" stroke-linecap="round" stroke-linejoin="round"/>
<path d="M231.894 114.737C237.578 105.215 250.805 108.763 251.942 114.275C248.973 115.712 244.811 117.671 242.765 118.508C241.39 119.077 239.811 118.716 238.796 117.605L236.807 115.438C235.913 114.463 234.579 114.057 233.315 114.377L231.894 114.737Z" fill="#3F6392"/>
<path d="M241.36 115.9H241.446C241.903 115.9 242.273 115.53 242.273 115.073V114.459C242.273 114.002 241.903 113.632 241.446 113.632H241.36C240.903 113.632 240.533 114.002 240.533 114.459V115.073C240.533 115.53 240.903 115.9 241.36 115.9Z" fill="black"/>
<path d="M262.128 149.347C262.128 149.347 249.673 163.006 234.903 152.185C220.539 141.663 225.95 124.604 232.396 114.103C238.243 104.581 250.769 108.758 251.937 114.27" stroke="#3F6392" stroke-width="2.03021" stroke-linecap="round" stroke-linejoin="round"/>
<path d="M249.917 114.393C250.252 114.205 250.638 114.134 251.019 114.195C253.795 114.647 254.764 115.809 254.764 116.241C254.764 116.672 252.896 117.55 249.085 117.789C248.745 117.809 248.405 117.743 248.095 117.601L247.1 117.139C246.628 116.921 246.603 116.256 247.055 116.002L249.912 114.393H249.917Z" fill="#FC6A5A"/>
<path d="M251.104 125.629C242.587 137.318 245.968 147.205 254.276 149.682C263.488 152.423 264.63 147.007 259.788 144.672C264.113 146.459 261.869 141.48 258.042 139.404" stroke="#3F6392" stroke-width="2.03021" stroke-linecap="round" stroke-linejoin="round"/>
</svg>
