<svg width="46" height="37" viewBox="0 0 46 37" fill="none" xmlns="http://www.w3.org/2000/svg">
<path d="M2.22695 29.8562L4.86353 27.8383H19.5861L23.0031 36.1418C23.2422 36.7183 23.8961 36.9925 24.4726 36.7535C25.0491 36.5144 25.3233 35.8605 25.0843 35.284L22.0188 27.8383H22.9188C24.0437 27.8383 25.1265 27.7048 26.1741 27.4446L29.7528 36.1418C29.9918 36.7183 30.6457 36.9925 31.2222 36.7535C31.7987 36.5144 32.0729 35.8605 31.8339 35.284L28.3044 26.7204C33.0784 24.6393 36.418 19.8794 36.418 14.3391V10.9643L45.4175 8.71441C45.4175 5.60677 42.9005 3.08972 39.7928 3.08972H34.7025C33.4651 1.71167 31.6652 0.839844 29.6684 0.839844C25.942 0.839844 22.9188 3.86311 22.9188 7.58947V11.1752L4.10419 25.5885L3.49954 26.0525L0.862968 28.0704C0.370808 28.45 0.279407 29.1531 0.652042 29.6453C1.02468 30.1374 1.73479 30.2288 2.22695 29.8562ZM36.0313 5.33959H39.7928C41.0584 5.33959 42.1622 6.03565 42.7388 7.06215L36.418 8.6441V7.58947C36.418 6.80201 36.2844 6.04268 36.0313 5.33959ZM9.74997 24.0979L22.8766 14.0438C22.4688 18.417 19.2627 22.0801 14.8966 23.0011L9.74997 24.0909V24.0979ZM22.9188 25.5885H13.5537L15.3606 25.2018C21.0767 23.9925 25.1686 18.9443 25.1686 13.0946V12.2861V11.1752V7.58947C25.1686 5.10757 27.1865 3.08972 29.6684 3.08972C32.1503 3.08972 34.1681 5.10757 34.1681 7.58947V9.83934V14.3391C34.1681 20.5544 29.134 25.5885 22.9188 25.5885ZM31.3558 7.58947C31.3558 7.14194 31.178 6.71274 30.8616 6.39629C30.5451 6.07984 30.1159 5.90206 29.6684 5.90206C29.2209 5.90206 28.7917 6.07984 28.4752 6.39629C28.1588 6.71274 27.981 7.14194 27.981 7.58947C27.981 8.037 28.1588 8.46619 28.4752 8.78264C28.7917 9.09909 29.2209 9.27687 29.6684 9.27687C30.1159 9.27687 30.5451 9.09909 30.8616 8.78264C31.178 8.46619 31.3558 8.037 31.3558 7.58947Z" fill="#C4C7D7"/>
</svg>
