<svg width="178" height="158" viewBox="0 0 178 158" fill="none" xmlns="http://www.w3.org/2000/svg">
<mask id="mask0_315_3949" style="mask-type:alpha" maskUnits="userSpaceOnUse" x="0" y="0" width="178" height="158">
<rect x="0.859375" y="0.855469" width="176.326" height="157.012" fill="#D9D9D9"/>
</mask>
<g mask="url(#mask0_315_3949)">
<path d="M67.9265 163.331C80.7415 165.975 110.301 169.023 127.375 158.411C145.698 147.064 159.761 124.592 166.114 88.0932C182.491 -6.05504 96.384 -9.24962 44.0957 19.7953C-8.19259 48.8403 -2.6847 150.736 67.9265 163.331Z" fill="#E7F1FC"/>
<path d="M168.5 113.906C170.667 134.175 157.594 156.904 126.787 151.984C95.9795 147.063 91.6833 112.437 108.354 92.4252C125.024 72.4131 168.684 84.0164 168.5 113.906Z" fill="#9AC1FB"/>
<path d="M135.085 131.421C134.938 126.244 135.819 107.187 135.819 105.461" stroke="white" stroke-width="0.734386" stroke-miterlimit="10" stroke-linecap="round" stroke-linejoin="round"/>
<path d="M123.48 111.631C126.345 114.642 146.871 125.107 148.156 125.694" stroke="white" stroke-width="0.734386" stroke-miterlimit="10" stroke-linecap="round" stroke-linejoin="round"/>
<path d="M123.959 124.702C129.32 122.499 146.982 113.503 147.569 112.658" stroke="white" stroke-width="0.734386" stroke-miterlimit="10" stroke-linecap="round" stroke-linejoin="round"/>
<path d="M133.8 100.725C133.8 102.01 135.93 105.425 135.93 105.425C135.93 105.425 138.39 102.597 138.83 101.165" stroke="white" stroke-width="0.734386" stroke-miterlimit="10" stroke-linecap="round" stroke-linejoin="round"/>
<path d="M131.082 105.057C131.523 106.048 135.378 111.225 135.378 111.225C135.378 111.225 140.115 107.774 140.96 105.791" stroke="white" stroke-width="0.734386" stroke-miterlimit="10" stroke-linecap="round" stroke-linejoin="round"/>
<path d="M130.936 101.605C131.082 103.038 130.899 104.763 130.899 104.763C130.899 104.763 129.063 104.763 128.365 104.323" stroke="white" stroke-width="0.734386" stroke-miterlimit="10" stroke-linecap="round" stroke-linejoin="round"/>
<path d="M140.409 101.898C140.262 103.037 140.886 105.534 140.886 105.534C141.988 106.048 143.273 103.918 143.273 103.918" stroke="white" stroke-width="0.734386" stroke-miterlimit="10" stroke-linecap="round" stroke-linejoin="round"/>
<path d="M136.995 135.829C136.995 134.544 134.866 131.129 134.866 131.129C134.866 131.129 132.405 133.956 131.965 135.388" stroke="white" stroke-width="0.734386" stroke-miterlimit="10" stroke-linecap="round" stroke-linejoin="round"/>
<path d="M139.711 131.532C139.271 130.541 135.415 125.363 135.415 125.363C135.415 125.363 130.679 128.815 129.834 130.798" stroke="white" stroke-width="0.734386" stroke-miterlimit="10" stroke-linecap="round" stroke-linejoin="round"/>
<path d="M139.859 134.984C139.712 133.552 139.895 131.826 139.895 131.826C139.895 131.826 141.731 131.826 142.429 132.267" stroke="white" stroke-width="0.734386" stroke-miterlimit="10" stroke-linecap="round" stroke-linejoin="round"/>
<path d="M130.386 134.69C130.532 133.552 129.908 131.055 129.908 131.055C128.807 130.541 127.521 132.67 127.521 132.67" stroke="white" stroke-width="0.734386" stroke-miterlimit="10" stroke-linecap="round" stroke-linejoin="round"/>
<path d="M153.15 125.915C151.975 125.327 148.01 125.731 148.01 125.731C148.01 125.731 149.442 129.183 150.543 130.211" stroke="white" stroke-width="0.734386" stroke-miterlimit="10" stroke-linecap="round" stroke-linejoin="round"/>
<path d="M150.47 121.581C149.368 121.507 142.759 123.049 142.759 123.049C142.759 123.049 144.044 128.484 145.476 130.136" stroke="white" stroke-width="0.734386" stroke-miterlimit="10" stroke-linecap="round" stroke-linejoin="round"/>
<path d="M153.628 122.976C152.27 122.462 150.801 121.544 150.801 121.544C150.801 121.544 151.609 119.929 152.306 119.451" stroke="white" stroke-width="0.734386" stroke-miterlimit="10" stroke-linecap="round" stroke-linejoin="round"/>
<path d="M149.185 131.312C148.23 130.688 145.697 130.137 145.697 130.137C144.742 130.908 146.1 133.001 146.1 133.001" stroke="white" stroke-width="0.734386" stroke-miterlimit="10" stroke-linecap="round" stroke-linejoin="round"/>
<path d="M118.193 111.005C119.295 111.666 123.297 111.519 123.297 111.519C123.297 111.519 122.086 107.957 121.057 106.893" stroke="white" stroke-width="0.734386" stroke-miterlimit="10" stroke-linecap="round" stroke-linejoin="round"/>
<path d="M120.581 115.522C121.683 115.669 128.072 114.861 128.072 114.861C128.072 114.861 127.448 109.023 126.162 107.297" stroke="white" stroke-width="0.734386" stroke-miterlimit="10" stroke-linecap="round" stroke-linejoin="round"/>
<path d="M117.533 113.943C118.855 114.531 120.25 115.559 120.25 115.559C120.25 115.559 119.332 117.138 118.598 117.542" stroke="white" stroke-width="0.734386" stroke-miterlimit="10" stroke-linecap="round" stroke-linejoin="round"/>
<path d="M122.49 105.865C123.408 106.563 125.868 107.26 125.868 107.26C126.86 106.563 125.648 104.359 125.648 104.359" stroke="white" stroke-width="0.734386" stroke-miterlimit="10" stroke-linecap="round" stroke-linejoin="round"/>
<path d="M150.581 108.252C149.479 108.913 147.68 112.511 147.68 112.511C147.68 112.511 151.388 113.136 152.82 112.768" stroke="white" stroke-width="0.734386" stroke-miterlimit="10" stroke-linecap="round" stroke-linejoin="round"/>
<path d="M145.476 108.141C144.852 109.022 142.612 115.558 142.612 115.558C142.612 115.558 147.863 117.247 149.993 116.953" stroke="white" stroke-width="0.734386" stroke-miterlimit="10" stroke-linecap="round" stroke-linejoin="round"/>
<path d="M148.341 106.232C147.203 107.113 145.624 107.848 145.624 107.848C145.624 107.848 144.706 106.305 144.669 105.461" stroke="white" stroke-width="0.734386" stroke-miterlimit="10" stroke-linecap="round" stroke-linejoin="round"/>
<path d="M153.041 114.457C151.976 114.934 150.177 116.77 150.177 116.77C150.287 117.982 152.821 117.945 152.821 117.945" stroke="white" stroke-width="0.734386" stroke-miterlimit="10" stroke-linecap="round" stroke-linejoin="round"/>
<path d="M120.801 128.741C121.939 128.154 123.958 124.702 123.958 124.702C123.958 124.702 120.323 123.821 118.854 124.115" stroke="white" stroke-width="0.734386" stroke-miterlimit="10" stroke-linecap="round" stroke-linejoin="round"/>
<path d="M125.867 129.182C126.565 128.338 129.319 122.499 129.319 122.499C129.319 122.499 124.068 119.892 121.901 120.076" stroke="white" stroke-width="0.734386" stroke-miterlimit="10" stroke-linecap="round" stroke-linejoin="round"/>
<path d="M122.894 130.909C124.105 130.101 125.721 129.477 125.721 129.477C125.721 129.477 126.565 131.092 126.492 131.937" stroke="white" stroke-width="0.734386" stroke-miterlimit="10" stroke-linecap="round" stroke-linejoin="round"/>
<path d="M118.744 122.389C119.809 121.985 121.755 120.296 121.755 120.296C121.718 119.084 119.221 118.938 119.221 118.938" stroke="white" stroke-width="0.734386" stroke-miterlimit="10" stroke-linecap="round" stroke-linejoin="round"/>
<path d="M130.128 111.631C130.128 111.631 132.074 115.156 132.074 117.065C129.577 117.983 127.264 117.506 127.264 117.506" stroke="white" stroke-width="0.734386" stroke-miterlimit="10" stroke-linecap="round" stroke-linejoin="round"/>
<path d="M131.67 110.344C131.743 112.216 135.415 115.778 135.415 115.778C137.765 115.778 139.418 110.968 139.418 110.968" stroke="white" stroke-width="0.734386" stroke-miterlimit="10" stroke-linecap="round" stroke-linejoin="round"/>
<path d="M141.033 112.363C140.446 113.428 139.381 117.247 139.381 117.247C140.96 117.467 143.383 117.614 143.383 117.614" stroke="white" stroke-width="0.734386" stroke-miterlimit="10" stroke-linecap="round" stroke-linejoin="round"/>
<path d="M143.897 119.818C142.318 119.818 139.454 120.81 139.014 121.104C139.014 123.454 141.107 126.208 141.107 126.208" stroke="white" stroke-width="0.734386" stroke-miterlimit="10" stroke-linecap="round" stroke-linejoin="round"/>
<path d="M138.683 125.693C138.169 124.408 135.158 121.838 135.158 121.838C135.158 121.838 132.368 124.629 131.854 125.657" stroke="white" stroke-width="0.734386" stroke-miterlimit="10" stroke-linecap="round" stroke-linejoin="round"/>
<path d="M130.641 124.483C131.082 123.712 132.661 121.472 132.661 120.664C130.09 120.077 127.851 119.379 127.851 119.379" stroke="white" stroke-width="0.734386" stroke-miterlimit="10" stroke-linecap="round" stroke-linejoin="round"/>
<path d="M165.929 106.525C161.633 107.15 157.154 107.26 152.49 106.746" stroke="#CDE1F9" stroke-width="0.734386" stroke-miterlimit="10" stroke-linecap="round" stroke-linejoin="round"/>
<path d="M168.904 102.193C160.018 104.25 146.689 103.001 144.045 101.643" stroke="#CDE1F9" stroke-width="0.734386" stroke-miterlimit="10" stroke-linecap="round" stroke-linejoin="round"/>
<path d="M43.4712 81.4486C63.8504 81.5221 85.0007 97.0176 76.7021 127.091C68.4036 157.164 33.5202 157.604 15.4543 138.804C-2.61155 120.004 13.802 77.9603 43.4712 81.4486Z" fill="#BDE9EF"/>
<path d="M40.4969 139.466C28.3061 136.492 25.6256 128.744 25.4053 115.856C25.4053 115.231 26.1029 114.827 26.6537 115.121C31.6108 118.022 42.7001 117.838 41.525 138.658C41.4883 139.209 41.011 139.576 40.4969 139.466Z" fill="#FF6A5A"/>
<path d="M46.2615 131.019C42.2958 117.176 43.9482 110.75 52.5405 103.406C52.871 103.112 53.3851 103.149 53.6788 103.443C64.8048 115.119 53.6421 128.926 47.3631 131.533C46.9225 131.717 46.4084 131.496 46.2615 131.019Z" fill="#FF6A5A"/>
<path d="M40.2398 115.635C39.8726 106.969 38.1101 102.673 33.0428 99.5152C32.6389 99.2581 32.0881 99.405 31.8678 99.8456C27.0576 108.952 32.7124 114.68 39.175 116.479C39.7257 116.59 40.2398 116.186 40.2398 115.635Z" fill="#FF6A5A"/>
<path d="M28.2695 119.932C31.9782 127.863 41.158 139.944 43.8752 142.661" stroke="#E04F44" stroke-width="0.734386" stroke-miterlimit="10" stroke-linecap="round" stroke-linejoin="round"/>
<path d="M33.1162 103.334C33.2264 107.777 40.5702 115.819 40.864 119.123" stroke="#E04F44" stroke-width="0.734386" stroke-miterlimit="10" stroke-linecap="round" stroke-linejoin="round"/>
<path d="M45.1602 135.243C47.1797 130.028 52.9079 115.341 53.7158 108.805" stroke="#E04F44" stroke-width="0.734386" stroke-miterlimit="10" stroke-linecap="round" stroke-linejoin="round"/>
<path d="M31.6113 105.279C33.0434 107.079 34.5489 107.776 34.5489 107.776C34.5489 107.776 35.32 105.059 35.32 103.994" stroke="#E04F44" stroke-width="0.734386" stroke-miterlimit="10" stroke-linecap="round" stroke-linejoin="round"/>
<path d="M37.2657 106.492C37.3391 109.283 37.1923 112.367 37.1923 112.367C37.1923 112.367 33.6305 111.302 32.6758 110.017" stroke="#E04F44" stroke-width="0.734386" stroke-miterlimit="10" stroke-linecap="round" stroke-linejoin="round"/>
<path d="M31.8313 120.371C32.6759 123.749 33.0431 128.229 33.0431 128.229C33.0431 128.229 28.2328 125.512 27.5352 124.52" stroke="#E04F44" stroke-width="0.734386" stroke-miterlimit="10" stroke-linecap="round" stroke-linejoin="round"/>
<path d="M36.1638 124.449C37.0817 127.313 36.4575 133.042 36.4575 133.042C36.4575 133.042 31.3168 131.903 30.4355 130.691" stroke="#E04F44" stroke-width="0.734386" stroke-miterlimit="10" stroke-linecap="round" stroke-linejoin="round"/>
<path d="M38.6239 128.377C39.4684 131.388 39.2848 137.043 39.2848 137.043C39.2848 137.043 33.9238 135.17 33.5566 134.766" stroke="#E04F44" stroke-width="0.734386" stroke-miterlimit="10" stroke-linecap="round" stroke-linejoin="round"/>
<path d="M46.4824 120.885C46.4824 123.602 47.7676 127.604 47.7676 127.604C47.7676 127.604 51.77 125.805 52.9083 124.043" stroke="#E04F44" stroke-width="0.734386" stroke-miterlimit="10" stroke-linecap="round" stroke-linejoin="round"/>
<path d="M47.3262 113.432C47.3262 117.214 49.8231 122.648 49.8231 122.648C49.8231 122.648 54.5599 119.49 55.2575 118.572" stroke="#E04F44" stroke-width="0.734386" stroke-miterlimit="10" stroke-linecap="round" stroke-linejoin="round"/>
<path d="M49.8604 110.055C49.8604 112.772 51.4393 117.435 51.4393 117.435C51.4393 117.435 56.0292 113.947 56.4331 112.919" stroke="#E04F44" stroke-width="0.734386" stroke-miterlimit="10" stroke-linecap="round" stroke-linejoin="round"/>
<path d="M24.267 111.594C25.8092 112.622 27.6084 108.51 25.2951 108.253C22.9818 107.996 16.8129 110.566 12.9941 109.281" stroke="white" stroke-width="0.734386" stroke-miterlimit="10" stroke-linecap="round" stroke-linejoin="round"/>
<path d="M13.582 105.904C16.4829 107.226 20.5954 105.5 20.5954 105.5" stroke="white" stroke-width="0.734386" stroke-miterlimit="10" stroke-linecap="round" stroke-linejoin="round"/>
<path d="M52.0629 142.953C51.7691 144.495 47.3261 141.925 50.0066 139.648C52.6871 137.372 57.02 139.538 59.1864 140.162" stroke="white" stroke-width="0.734386" stroke-miterlimit="10" stroke-linecap="round" stroke-linejoin="round"/>
<path d="M49.4199 135.242C52.6145 133.296 58.2693 135.242 59.5177 135.977" stroke="white" stroke-width="0.734386" stroke-miterlimit="10" stroke-linecap="round" stroke-linejoin="round"/>
<path d="M31.7208 4.92427C50.7781 -2.30943 76.0777 4.55707 79.1254 35.5849C82.1731 66.6127 49.7867 79.5746 26.1762 68.5221C2.56564 57.4696 2.78596 12.3416 31.7208 4.92427Z" fill="#9AC1FB"/>
<path d="M50.0808 27.7637C45.7479 36.5029 46.9596 60.0032 46.9596 60.0032" stroke="#BDE9EF" stroke-width="0.734386" stroke-miterlimit="10" stroke-linecap="round" stroke-linejoin="round"/>
<path d="M35.4668 38.7812C39.3958 42.8571 42.1497 47.7408 42.7372 61.2167" stroke="#BDE9EF" stroke-width="0.734386" stroke-miterlimit="10" stroke-linecap="round" stroke-linejoin="round"/>
<path d="M37.486 34.6674C35.2462 29.1228 31.2438 23.7618 29.4078 25.1938C28.196 26.1485 29.0039 28.6454 30.4726 31.0689C27.9023 29.5267 25.2218 29.6001 24.2671 31.4361C23.0186 33.9697 27.939 38.3026 30.693 38.3026C23.2757 38.7065 21.2561 40.6159 22.9819 43.223C24.7077 45.8668 33.5571 45.1324 35.6868 41.3136C36.7516 39.3675 37.486 34.6674 37.486 34.6674Z" fill="#E4EEF9"/>
<path d="M37.8166 34.4105C35.3931 28.6822 31.0602 23.1376 29.0774 24.6064C27.7555 25.5978 28.6368 28.1682 30.2157 30.6651C27.425 29.0861 24.5242 29.1229 23.5328 31.069C22.1742 33.6761 27.4617 38.1558 30.4727 38.1558C22.4679 38.5597 20.3015 40.5426 22.1374 43.2598C24.0101 45.977 33.5571 45.2426 35.8337 41.3137C37.0455 39.2941 37.8166 34.4105 37.8166 34.4105Z" stroke="white" stroke-width="0.734386" stroke-miterlimit="10" stroke-linecap="round" stroke-linejoin="round"/>
<path d="M37.0819 38.0815C37.5593 35.401 35.246 33.4549 33.153 35.0705C31.06 36.6862 30.4725 41.7902 34.1811 41.2027C37.8898 40.6152 37.0819 38.0815 37.0819 38.0815Z" fill="#FF6A5A"/>
<path d="M39.9092 38.2667C40.4232 34.2276 37.0818 25.7454 35.3927 25.8188C33.7036 25.8923 34.6216 31.8775 37.0451 35.8799C34.2177 33.5666 32.7856 37.1284 33.6302 39.0745C34.4747 41.0206 36.6412 40.8003 36.6412 40.8003C36.6412 40.8003 27.6816 40.3597 27.6816 43.4808C27.6816 46.602 37.4857 46.2348 39.9092 38.2667Z" fill="white"/>
<path d="M45.1239 29.6004C41.9661 29.3434 37.8902 23.8722 38.9551 21.412C40.0567 18.9518 44.5731 20.8612 47.1435 24.1293C43.5817 20.0167 45.2341 14.6924 47.4005 14.2885C49.567 13.8846 52.174 18.1073 51.5131 23.1746C54.1202 18.5112 58.0859 17.4463 59.1874 20.1636C60.289 22.8808 54.671 27.2871 53.3123 27.2871C57.4249 26.7363 62.0515 28.0949 61.6476 30.702C61.2437 33.3091 54.671 32.6114 52.0639 29.4536C55.8827 34.6677 57.3882 39.0373 54.3772 39.6982C51.3662 40.3959 48.7591 35.8794 49.1631 30.2614C49.1631 38.3396 44.9403 38.7435 43.8388 37.9357C42.7739 37.0912 40.7543 34.5208 45.1239 29.6004Z" fill="#E4EEF9"/>
<path d="M47.0701 57.2858C48.135 49.0239 56.9476 40.3949 62.5657 36.5394C62.9329 36.2823 63.4469 36.6128 63.3368 37.0534C62.0883 44.2504 55.589 51.4474 47.9147 57.7631C47.5475 58.0569 46.9967 57.7631 47.0701 57.2858Z" fill="#BDE9EF"/>
<path d="M39.0654 38.2667C39.5795 34.2276 36.238 25.7454 34.5489 25.8188C32.8966 25.8923 33.7778 31.8775 36.2013 35.8799C33.3739 33.5666 31.9419 37.1284 32.7864 39.0745C33.631 41.0206 35.7974 40.8003 35.7974 40.8003C35.7974 40.8003 26.8379 40.3597 26.8379 43.4808C26.8379 46.602 36.6419 46.2348 39.0654 38.2667Z" stroke="#CDE1F9" stroke-width="0.734386" stroke-miterlimit="10" stroke-linecap="round" stroke-linejoin="round"/>
<path d="M44.8296 29.7103C41.5248 29.4165 37.1919 23.6516 38.3302 21.0813C39.4685 18.5109 44.2421 20.4938 46.9593 23.9454C43.2139 19.6125 44.9397 13.9944 47.253 13.5905C49.5664 13.1499 52.2836 17.6296 51.5859 22.9539C54.3399 18.0703 58.4891 16.8953 59.6642 19.7961C60.8392 22.6969 54.9274 27.2868 53.4586 27.2868C57.7915 26.6993 62.6751 28.1681 62.2345 30.8853C61.7939 33.6393 54.8907 32.9049 52.1367 29.6001C56.1758 35.0713 57.7548 39.6979 54.5969 40.3956C51.439 41.0933 48.6851 36.3565 49.1257 30.4447C49.1257 38.9268 44.646 39.3675 43.5077 38.5229C42.3694 37.6784 40.2397 34.9244 44.8296 29.7103Z" stroke="white" stroke-width="0.734386" stroke-miterlimit="10" stroke-linecap="round" stroke-linejoin="round"/>
<path d="M48.9428 25.1562C45.3811 25.1562 45.6014 28.6079 47.5842 29.8563C49.6038 31.1048 51.3296 29.4891 51.5132 28.4243C51.7335 27.3594 50.6686 25.2664 48.9428 25.1562Z" fill="#FF6A5A"/>
<path d="M49.2719 24.2773C44.9391 24.2773 45.1961 28.6469 47.6196 30.2259C50.043 31.8048 52.1728 29.7485 52.4298 28.3899C52.6501 27.068 51.3649 24.3875 49.2719 24.2773Z" stroke="#E04F44" stroke-width="0.734386" stroke-miterlimit="10" stroke-linecap="round" stroke-linejoin="round"/>
<path d="M21.4766 61.215C27.7188 60.4072 32.8595 63.0877 39.6526 63.6385" stroke="#CDE1F9" stroke-width="0.734386" stroke-miterlimit="10" stroke-linecap="round" stroke-linejoin="round"/>
<path d="M18.3916 57.3583C26.6167 55.5223 34.4379 59.0473 37.7794 59.9286" stroke="#CDE1F9" stroke-width="0.734386" stroke-miterlimit="10" stroke-linecap="round" stroke-linejoin="round"/>
<path d="M149.443 6.06284C167.289 15.9036 178.451 39.6243 156.787 62.0598C135.086 84.4585 104.278 68.1919 97.4119 43.0392C90.5454 17.8865 125.062 -11.1952 149.443 6.06284Z" fill="#BDE9EF"/>
<path d="M141.219 30.04C144.964 34.9604 145.184 42.8917 136.408 46.4902C127.669 50.052 121.096 41.7902 122.235 33.969C123.373 26.1477 136.555 22.2555 141.219 30.04Z" fill="#FF6A5A"/>
<path d="M145.734 28.5356C146.909 27.9481 149.847 26.1855 149.847 26.1855" stroke="#FF6A5A" stroke-width="0.734386" stroke-miterlimit="10" stroke-linecap="round" stroke-linejoin="round"/>
<path d="M137.363 22.6595C137.951 21.7782 139.126 17.8125 139.126 17.8125" stroke="#FF6A5A" stroke-width="0.734386" stroke-miterlimit="10" stroke-linecap="round" stroke-linejoin="round"/>
<path d="M128.146 23.247C127.412 20.8969 126.824 17.8125 126.824 17.8125" stroke="#FF6A5A" stroke-width="0.734386" stroke-miterlimit="10" stroke-linecap="round" stroke-linejoin="round"/>
<path d="M120.949 28.8274C119.48 28.3868 116.249 25.4492 116.249 25.4492" stroke="#FF6A5A" stroke-width="0.734386" stroke-miterlimit="10" stroke-linecap="round" stroke-linejoin="round"/>
<path d="M118.746 38.082C117.278 38.2289 113.165 38.5227 113.165 38.5227" stroke="#FF6A5A" stroke-width="0.734386" stroke-miterlimit="10" stroke-linecap="round" stroke-linejoin="round"/>
<path d="M123.446 46.416C122.124 48.0317 119.627 50.9692 119.627 50.9692" stroke="#FF6A5A" stroke-width="0.734386" stroke-miterlimit="10" stroke-linecap="round" stroke-linejoin="round"/>
<path d="M134.168 50.2363C134.168 52.2926 134.462 55.6708 134.462 55.6708" stroke="#FF6A5A" stroke-width="0.734386" stroke-miterlimit="10" stroke-linecap="round" stroke-linejoin="round"/>
<path d="M142.944 45.9766C144.266 47.1516 147.498 48.9141 147.498 48.9141" stroke="#FF6A5A" stroke-width="0.734386" stroke-miterlimit="10" stroke-linecap="round" stroke-linejoin="round"/>
<path d="M145.881 36.7594C145.881 36.7594 150.434 36.6125 152.05 36.9063" stroke="#FF6A5A" stroke-width="0.734386" stroke-miterlimit="10" stroke-linecap="round" stroke-linejoin="round"/>
<path d="M149.627 42.525C153.593 44.2508 160.533 43.7367 166.114 42.1211" stroke="white" stroke-width="0.734386" stroke-miterlimit="10" stroke-linecap="round" stroke-linejoin="round"/>
<path d="M160.386 47.2993C162.699 47.5196 166.775 46.6016 168.941 45.6836" stroke="white" stroke-width="0.734386" stroke-miterlimit="10" stroke-linecap="round" stroke-linejoin="round"/>
<path d="M122.088 21.6688C118.71 18.4008 112.577 16.0875 109.199 15.6836" stroke="white" stroke-width="0.734386" stroke-miterlimit="10" stroke-linecap="round" stroke-linejoin="round"/>
<path d="M114.524 20.7519C111.807 18.8058 105.785 18.5488 105.014 18.8058" stroke="white" stroke-width="0.734386" stroke-miterlimit="10" stroke-linecap="round" stroke-linejoin="round"/>
<path d="M75.1238 71.498C69.4323 55.7087 62.5658 42.5265 66.5682 39.846C69.4323 37.8998 67.9636 34.5951 70.1667 32.906C72.3699 31.2536 74.573 34.4482 76.4824 33.7506C78.3918 33.0529 77.9145 29.2341 80.0075 28.5364C81.8435 27.9122 83.4958 30.7763 85.3318 30.4825C87.7553 30.0786 88.5998 26.0028 91.5741 26.4434C94.328 26.8473 93.7405 31.2536 95.7234 31.6943C97.8531 32.1716 100.901 28.6466 103.691 31.2904C106.482 33.9342 98.2203 52.8813 98.771 59.601C99.3218 66.2839 75.9316 81.5591 75.1238 71.498Z" fill="#3E88F6"/>
<path d="M74.4998 70.1382C68.7349 54.3489 61.7949 41.2034 65.8708 38.4862C68.8083 36.5401 67.3028 33.2353 69.5427 31.5462C71.7826 29.8939 74.0225 33.0885 75.9686 32.3908C77.878 31.6931 77.4374 27.8743 79.5671 27.1399C81.4398 26.5157 83.0921 29.3798 84.9648 29.0861C87.425 28.6821 88.3063 24.6063 91.3172 25.0469C94.1079 25.4508 93.5204 29.8572 95.5032 30.2611C97.6697 30.7384 100.754 27.1766 103.581 29.8572C106.409 32.5009 98.0002 51.4481 98.5509 58.1677C99.065 64.9241 75.3443 80.236 74.4998 70.1382Z" stroke="black" stroke-width="0.550789" stroke-miterlimit="10" stroke-linecap="round" stroke-linejoin="round"/>
<path d="M88.5268 77.9594C76.0056 78.9875 64.8429 82.9165 65.4304 91.9127C66.0179 100.872 75.2712 111.888 89.3347 110.75C103.398 109.611 111.733 91.7658 111.256 85.854C110.779 79.9055 102.04 76.6742 88.5268 77.9594Z" fill="#3F6395"/>
<path d="M161.928 63.9684C155.649 49.9783 129.652 45.4251 123.557 44.5071C122.896 44.397 122.198 44.8376 122.014 45.4618L119.04 54.9721C118.82 55.6698 119.224 56.3675 119.921 56.5143C143.018 61.2511 145.588 81.9975 112.798 89.782C95.5397 93.7477 97.339 100.651 101.745 109.207C106.188 117.762 114.744 124.702 133.214 114.017C157.191 100.1 168.391 78.3623 161.928 63.9684Z" fill="white"/>
<path d="M159.945 64.0051C153.666 50.015 129.651 45.4618 123.556 44.5071C122.895 44.397 122.197 44.8376 122.014 45.4618L119.04 54.9721C118.819 55.6698 119.223 56.3675 119.921 56.5143C143.017 61.2511 143.605 81.9975 110.814 89.782C93.5563 93.7477 95.3556 100.651 99.7619 109.207C104.205 117.762 112.76 124.702 131.23 114.017C155.208 100.1 166.407 78.3991 159.945 64.0051Z" fill="#3E88F6"/>
<path d="M121.757 46.2716C117.608 43.8849 113.752 40.1395 111.218 39.4785C108.685 38.8176 105.674 44.3622 105.674 44.3622L109.603 54.6803L119.003 54.9741L121.757 46.2716Z" fill="#BDBFF4" stroke="black" stroke-width="0.550789" stroke-miterlimit="10" stroke-linecap="round" stroke-linejoin="round"/>
<path d="M107.547 91.2887C109.052 90.7379 110.815 90.2605 112.798 89.7832C145.588 81.9987 143.054 61.2523 119.921 56.5155C119.224 56.3686 118.82 55.6709 119.04 54.9733L122.014 45.463C122.235 44.802 122.896 44.3981 123.556 44.5083C129.652 45.463 155.649 50.0162 161.928 63.9695C168.391 78.3635 157.191 100.101 133.214 113.981C132.222 114.569 131.268 115.083 130.35 115.56C126.347 117.433 121.06 119.416 119.701 119.526" stroke="black" stroke-width="0.550789" stroke-miterlimit="10" stroke-linecap="round" stroke-linejoin="round"/>
<path d="M25.0745 71.9748C31.0597 56.9199 56.8734 49.8698 62.9321 48.3276C63.593 48.144 64.2907 48.5479 64.511 49.2088L67.6689 58.866C67.8892 59.5637 67.522 60.2614 66.861 60.5184C44.7193 68.3396 41.745 89.1595 74.5721 94.3002C91.8302 96.8705 90.2145 104.178 85.9551 113.431C81.6956 122.684 73.2869 130.652 54.7069 121.215C30.4722 108.951 18.9056 87.4704 25.0745 71.9748Z" fill="white"/>
<path d="M113.275 43.2594C111.843 42.268 107.951 41.5703 107.951 41.5703" stroke="black" stroke-width="0.550789" stroke-miterlimit="10" stroke-linecap="round" stroke-linejoin="round"/>
<path d="M26.8749 68.6335C33.4844 53.8357 56.8012 48.5848 62.8966 47.2996C63.5575 47.1528 64.2552 47.5567 64.4388 48.2176L67.1927 57.985C67.3763 58.6826 66.9724 59.3803 66.3115 59.6006C43.876 66.5038 42.7744 86.4791 75.3811 92.9417C92.529 96.2097 90.5829 103.443 85.9563 112.513C81.3297 121.583 72.5905 129.184 54.4144 119.012C30.7672 105.83 20.0819 83.8721 26.8749 68.6335Z" fill="#3E88F6"/>
<path d="M59.6645 123.419C58.0855 122.831 56.3965 122.097 54.6339 121.179C30.4726 108.951 18.906 87.4704 25.0749 71.9748C31.0601 56.9199 56.8738 49.8698 62.9325 48.3276C63.5934 48.144 64.2911 48.5479 64.5114 49.2088L67.6693 58.866C67.8896 59.5637 67.5224 60.2614 66.8614 60.5184C45.6744 68.0091 42.0392 87.3969 70.4599 93.529" stroke="black" stroke-width="0.550789" stroke-miterlimit="10" stroke-linecap="round" stroke-linejoin="round"/>
<path d="M110.815 89.7823C110.815 89.7823 111.402 87.7627 111.145 84.3111C110.668 78.6196 101.929 75.5719 88.4525 76.8204C75.9312 77.8485 64.7686 81.6673 65.3194 90.2963C65.4662 91.9487 65.4663 91.9487 65.4663 91.9487" stroke="black" stroke-width="0.550789" stroke-miterlimit="10" stroke-linecap="round" stroke-linejoin="round"/>
<path d="M88.4893 97.2747C83.0915 97.7153 78.318 93.6395 77.8774 88.2418L75.8578 63.3828C75.4172 57.985 79.493 53.2115 84.8908 52.7709C90.2885 52.3303 95.062 56.4061 95.5026 61.8039L97.5222 86.6628C97.9261 92.0606 93.887 96.8341 88.4893 97.2747Z" fill="white"/>
<path d="M86.5068 97.4583C81.1091 97.8989 76.3356 93.8231 75.895 88.4253L73.8754 63.5664C73.4348 58.1686 77.5106 53.3951 82.9083 52.9545C88.3061 52.5139 93.0796 56.5897 93.5202 61.9874L95.5398 86.8464C95.9804 92.2441 91.9046 97.0177 86.5068 97.4583Z" fill="#BDBFF4"/>
<path d="M90.2886 79.1347C83.0917 79.7222 76.7392 74.2877 76.1517 67.0907L75.3072 56.6257C74.7197 49.4288 80.1541 43.0763 87.3511 42.4888C94.5481 41.9013 100.901 47.3358 101.488 54.5327L102.333 64.9977C102.92 72.1947 97.4856 78.5839 90.2886 79.1347Z" fill="white"/>
<path d="M88.3423 79.3183C81.1454 79.9058 74.7929 74.4713 74.2054 67.2743L73.3609 56.8093C72.7734 49.6123 78.2078 43.2599 85.4048 42.6724C92.6018 42.0849 98.9542 47.5193 99.5417 54.7163L100.386 65.1813C100.937 72.3783 95.5393 78.7307 88.3423 79.3183Z" fill="#BDBFF4"/>
<path d="M92.6749 56.074C93.4828 55.8537 95.0617 60.517 93.0421 60.6272C91.0593 60.7006 91.8671 56.331 92.6749 56.074Z" fill="#6F69DB"/>
<path d="M86.874 63.8602C86.5802 63.8969 86.3966 64.1539 86.4334 64.4477C86.9474 66.6141 89.5545 68.1196 92.5288 67.8993C95.503 67.6423 97.8164 65.7696 97.9632 63.5297C98 63.2359 97.7429 63.0156 97.4492 63.0156L86.874 63.8602Z" fill="black"/>
<path d="M94.8421 65.511L89.9217 65.9149C89.7381 65.9149 89.5545 65.8782 89.4076 65.7313C89.0772 65.4008 88.8568 65.0336 88.7834 64.6297C88.7467 64.4461 88.8568 64.2992 89.0404 64.2992L95.4663 63.7852C95.6499 63.7852 95.7968 63.8953 95.7601 64.0789C95.7234 64.5195 95.5765 64.9235 95.3194 65.2906C95.2093 65.4008 95.0257 65.4742 94.8421 65.511Z" fill="white"/>
<path d="M90.2886 79.1347C83.0917 79.7222 76.7392 74.2877 76.1517 67.0907L75.3072 56.6257C74.7197 49.4288 80.1541 43.0763 87.3511 42.4888C94.5481 41.9013 100.901 47.3358 101.488 54.5327L102.333 64.9977C102.92 72.1947 97.4856 78.5839 90.2886 79.1347Z" stroke="black" stroke-width="0.550789" stroke-miterlimit="10" stroke-linecap="round" stroke-linejoin="round"/>
<path d="M73.5081 65.6587C75.4752 65.6587 77.0698 64.064 77.0698 62.0969C77.0698 60.1298 75.4752 58.5352 73.5081 58.5352C71.541 58.5352 69.9463 60.1298 69.9463 62.0969C69.9463 64.064 71.541 65.6587 73.5081 65.6587Z" fill="#BDBFF4"/>
<path d="M77.2903 63.4188C76.4825 65.0345 74.4997 65.6587 72.884 64.8509C71.2684 64.0431 70.6441 62.0602 71.452 60.4446C72.2598 58.8289 74.2426 58.2047 75.8583 59.0125" stroke="#121C2C" stroke-width="0.550789" stroke-miterlimit="10" stroke-linecap="round" stroke-linejoin="round"/>
<path d="M83.6424 59.8563L85.2948 59.7095C85.7722 59.6727 86.1026 59.2688 86.0659 58.7915C86.0292 58.3141 85.6253 57.9836 85.1479 58.0204L83.4956 58.1672C83.0182 58.204 82.6877 58.6079 82.7245 59.0852C82.7612 59.5258 83.1651 59.893 83.6424 59.8563Z" fill="#8E8EE8"/>
<path d="M98.3299 58.6454L99.9823 58.4985C100.46 58.4618 100.79 58.0579 100.753 57.5805C100.717 57.1032 100.313 56.7727 99.8354 56.8094L98.1831 56.9563C97.7057 56.993 97.3752 57.3969 97.412 57.8743C97.4487 58.3516 97.8526 58.6821 98.3299 58.6454Z" fill="#8E8EE8"/>
<path d="M67.6333 58.8656C76.5194 57.9843 84.0101 54.2757 87.0945 52.6967C90.179 51.0811 85.9562 49.0982 83.1289 50.824C80.3015 52.5498 77.878 50.3834 77.878 50.3834C77.3272 48.9514 80.3015 47.5927 80.3015 47.5927C80.3015 47.5927 84.4508 41.938 80.1179 42.4153C75.785 42.8927 67.4864 49.135 65.4302 51.1545C65.3934 51.742 67.5232 58.682 67.6333 58.8656Z" fill="#BDBFF4"/>
<path d="M67.6699 48.9511C67.6699 48.9511 72.2231 44.3612 75.7849 42.8557C79.3834 41.3135 87.8288 39.0369 87.9757 40.8728C88.3062 43.333 83.092 50.787 83.092 50.787C83.092 50.787 81.1826 56.3684 77.9146 57.3598C74.6466 58.3512 70.9012 58.7551 70.9012 58.7551L67.6699 48.9511Z" fill="#BDBFF4"/>
<path d="M77.8051 47.8491C81.8809 46.16 88.1599 42.6717 87.9763 40.8357C87.8294 38.9998 79.3473 41.2764 75.7855 42.8186C72.187 44.3608 67.6705 48.914 67.6705 48.914L65.4307 51.0437" stroke="black" stroke-width="0.550789" stroke-miterlimit="10" stroke-linecap="round" stroke-linejoin="round"/>
<path d="M76.9229 45.1313C83.055 42.7813 84.7808 41.4226 84.2667 44.2867" stroke="black" stroke-width="0.550789" stroke-miterlimit="10" stroke-linecap="round" stroke-linejoin="round"/>
<path d="M94.769 49.0236L96.3112 40.1742C96.3479 36.0984 99.6894 32.7937 103.802 32.8304C107.878 32.8671 111.183 36.2086 111.146 40.3211C111.146 42.0837 110.485 43.6626 109.457 44.9477L109.604 44.9845L104.243 52.6955C103.214 55.3026 100.277 56.5878 97.6698 55.5963C95.0627 54.5682 93.7776 51.6307 94.769 49.0236Z" fill="white"/>
<path d="M96.0906 49.0236C96.5312 46.1962 97.6328 40.1742 97.6328 40.1742C97.6695 36.0984 101.011 32.7937 105.124 32.8304C109.199 32.8671 112.504 36.2086 112.467 40.3211C112.431 42.0837 111.806 43.6626 110.778 44.9477C110.778 44.9477 107.253 49.9049 105.527 52.6955C103.802 55.4862 101.562 56.5878 98.9547 55.5963C96.3476 54.5682 95.65 51.851 96.0906 49.0236Z" fill="#FF6A5A"/>
<path d="M105.05 45.3505C107.869 45.3505 110.154 43.0654 110.154 40.2466C110.154 37.4277 107.869 35.1426 105.05 35.1426C102.231 35.1426 99.9463 37.4277 99.9463 40.2466C99.9463 43.0654 102.231 45.3505 105.05 45.3505Z" fill="white"/>
<path d="M103.729 45.3505C106.548 45.3505 108.833 43.0654 108.833 40.2466C108.833 37.4277 106.548 35.1426 103.729 35.1426C100.91 35.1426 98.625 37.4277 98.625 40.2466C98.625 43.0654 100.91 45.3505 103.729 45.3505Z" stroke="black" stroke-width="0.550789" stroke-miterlimit="10" stroke-linecap="round" stroke-linejoin="round"/>
<path d="M103.728 47.6647C107.824 47.6647 111.145 44.3438 111.145 40.2474C111.145 36.1509 107.824 32.8301 103.728 32.8301C99.6314 32.8301 96.3105 36.1509 96.3105 40.2474C96.3105 44.3438 99.6314 47.6647 103.728 47.6647Z" stroke="black" stroke-width="0.550789" stroke-miterlimit="10" stroke-linecap="round" stroke-linejoin="round"/>
<path d="M96.3117 40.1758C96.3117 40.1758 95.1734 46.4181 94.7695 49.0251C94.3656 51.6322 95.0265 54.5697 97.6703 55.5979C100.277 56.626 102.884 54.6799 104.243 52.6971C105.602 50.7509 109.824 44.5454 109.824 44.5454" stroke="black" stroke-width="0.550789" stroke-miterlimit="10" stroke-linecap="round" stroke-linejoin="round"/>
<path d="M103.691 36.9434C105.527 36.9801 107.033 38.4856 106.996 40.3215" stroke="#3E87F5" stroke-width="0.734386" stroke-miterlimit="10" stroke-linecap="round" stroke-linejoin="round"/>
<path d="M78.9424 51.1174L77.9876 42.1946C76.8861 38.2656 79.2361 34.1531 83.1651 33.0882C87.094 31.9867 91.2066 34.3367 92.2715 38.2657C92.7488 39.9547 92.5652 41.6805 91.941 43.1493H92.0879L89.0402 52.0354C88.7831 54.8261 86.3229 56.8823 83.5323 56.6253C80.7416 56.3683 78.6853 53.9081 78.9424 51.1174Z" fill="white"/>
<path d="M80.1904 50.7502C79.8232 47.9228 79.2357 41.8274 79.2357 41.8274C78.1341 37.8985 80.4841 33.7859 84.4131 32.721C88.3421 31.6195 92.4546 33.9695 93.5195 37.8985C93.9969 39.5876 93.8133 41.3134 93.189 42.7821C93.189 42.7821 91.1695 48.5103 90.2882 51.6682C89.4069 54.8261 87.571 56.5152 84.7803 56.2581C81.9896 56.0378 80.5576 53.6143 80.1904 50.7502Z" fill="#FF6A5A"/>
<path d="M86.396 44.9853C89.2148 44.9853 91.5 42.7002 91.5 39.8813C91.5 37.0625 89.2148 34.7773 86.396 34.7773C83.5771 34.7773 81.292 37.0625 81.292 39.8813C81.292 42.7002 83.5771 44.9853 86.396 44.9853Z" fill="white"/>
<path d="M85.1479 45.3154C87.9668 45.3154 90.2519 43.0303 90.2519 40.2114C90.2519 37.3926 87.9668 35.1074 85.1479 35.1074C82.3291 35.1074 80.0439 37.3926 80.0439 40.2114C80.0439 43.0303 82.3291 45.3154 85.1479 45.3154Z" stroke="black" stroke-width="0.550789" stroke-miterlimit="10" stroke-linecap="round" stroke-linejoin="round"/>
<path d="M85.1478 47.6295C89.2442 47.6295 92.5651 44.3087 92.5651 40.2122C92.5651 36.1158 89.2442 32.7949 85.1478 32.7949C81.0513 32.7949 77.7305 36.1158 77.7305 40.2122C77.7305 44.3087 81.0513 47.6295 85.1478 47.6295Z" stroke="black" stroke-width="0.550789" stroke-miterlimit="10" stroke-linecap="round" stroke-linejoin="round"/>
<path d="M77.9873 42.1934C77.9873 42.1934 78.6115 48.5091 78.942 51.1162C79.2725 53.7232 80.7413 56.367 83.5319 56.6241C86.3226 56.8811 88.2687 54.3107 89.0398 52.0341C89.8109 49.7575 92.1242 42.7441 92.1242 42.7441" stroke="black" stroke-width="0.550789" stroke-miterlimit="10" stroke-linecap="round" stroke-linejoin="round"/>
<path d="M84.1934 37.0541C85.9926 36.5768 87.8286 37.6049 88.3059 39.4042" stroke="#3E87F5" stroke-width="0.734386" stroke-miterlimit="10" stroke-linecap="round" stroke-linejoin="round"/>
<path d="M90.3262 49.686L98.9185 48.9883L97.1192 44.9492L91.6848 45.3899L90.3262 49.686Z" fill="#FF6A5A"/>
<path d="M96.1276 49.6855L89.8486 50.1996" stroke="black" stroke-width="0.550789" stroke-miterlimit="10" stroke-linecap="round" stroke-linejoin="round"/>
<path d="M91.4648 45.5359L97.1196 45.0586" stroke="black" stroke-width="0.550789" stroke-miterlimit="10" stroke-linecap="round" stroke-linejoin="round"/>
<path d="M96.3475 47.5938L95.6865 49.5766" stroke="black" stroke-width="0.550789" stroke-miterlimit="10" stroke-linecap="round" stroke-linejoin="round"/>
<path d="M64.4746 49.209L67.6325 58.8662" stroke="black" stroke-width="0.550789" stroke-miterlimit="10" stroke-linecap="round" stroke-linejoin="round"/>
<path d="M96.714 76.9324L97.4851 86.6998C97.9257 92.0975 93.8499 96.871 88.4521 97.3117C83.0544 97.7523 78.2809 93.6764 77.8402 88.2787L76.7754 75.1699" stroke="black" stroke-width="0.550789" stroke-miterlimit="10" stroke-linecap="round" stroke-linejoin="round"/>
<path d="M127.376 158.447C128.771 146.329 118.159 120.736 114.928 107.848" stroke="black" stroke-width="0.550789" stroke-miterlimit="10" stroke-linecap="round" stroke-linejoin="round"/>
<path d="M62.6397 116.184C59.9225 137.04 56.0303 152.242 58.3436 160.798" stroke="black" stroke-width="0.550789" stroke-miterlimit="10" stroke-linecap="round" stroke-linejoin="round"/>
<path d="M73.6916 86.92C80.4479 86.3692 86.3597 91.4364 88.416 93.9333C90.766 89.7841 98.9912 84.4598 102.626 83.8722C106.262 83.2847 104.683 93.3458 100.056 100.947C95.4294 108.548 83.1284 107.116 77.8408 104.435C72.4798 101.755 69.2853 88.4254 73.6916 86.92Z" fill="#3F6395"/>
<path d="M73.1402 85.2672C72.3324 85.8915 68.4034 89.747 73.8746 88.9759C80.6309 88.4251 86.5428 93.4923 88.599 95.9893C90.9491 91.84 99.1742 86.5157 102.809 85.9282C106.885 85.3774 106.261 83.2844 104.131 83.0273" stroke="black" stroke-width="0.550789" stroke-miterlimit="10" stroke-linecap="round" stroke-linejoin="round"/>
<path d="M110.154 89.9653C110.558 86.4403 111.256 85.8161 108.943 85.1184C106.629 84.4574 96.5314 94.1146 88.4164 93.931C80.3015 93.7474 65.4669 89.1575 65.6137 90.2958C66.0176 94.0044 65.7973 100.614 64.0348 114.31C61.4644 135.644 57.6456 152.755 60.216 161.495C62.7129 162.229 65.2833 162.816 67.9638 163.294C80.4116 165.864 108.612 168.802 125.87 159.291C126.898 146.55 117.094 118.863 113.973 106.159C112.064 98.778 109.75 93.4904 110.154 89.9653Z" fill="#3F6395"/>
<path d="M104.242 52.6973C102.26 63.3091 120.693 85.6712 116.103 91.6932C111.513 97.7151 106.335 79.5758 98.6611 83.5415" stroke="#FF6A5A" stroke-width="1.83596" stroke-miterlimit="10" stroke-linecap="round" stroke-linejoin="round"/>
<path d="M79.0164 53.4688C79.0899 72.6362 86.397 91.7303 80.6688 95.9163C74.9406 100.102 69.4327 92.3912 73.6921 86.92" stroke="#FF6A5A" stroke-width="1.83596" stroke-miterlimit="10" stroke-linecap="round" stroke-linejoin="round"/>
<path d="M108.538 48.4004C108.538 48.4004 106.555 50.8973 103.581 49.6856C100.607 48.4738 96.8246 51.0809 100.056 52.1825C103.287 53.2841 108.391 56.4052 116.653 55.4505C118.305 55.2669 118.893 54.7161 118.893 54.7161" fill="#BDBFF4"/>
<path d="M108.538 48.4004C108.538 48.4004 106.555 50.8973 103.581 49.6856C100.607 48.4738 96.8246 51.0809 100.056 52.1825C103.287 53.2841 108.391 56.4052 116.653 55.4505C118.305 55.2669 118.893 54.7161 118.893 54.7161" stroke="black" stroke-width="0.550789" stroke-miterlimit="10" stroke-linecap="round" stroke-linejoin="round"/>
<path d="M77.3271 50.3844C77.3271 50.3844 79.7138 52.5508 82.5779 50.825C85.4053 49.1359 89.6281 51.1188 86.5436 52.6977C83.4592 54.3134 79.1631 57.7283 70.277 58.6095L67.6699 58.8298" fill="#BDBFF4"/>
<path d="M77.3271 50.3844C77.3271 50.3844 79.7138 52.5508 82.5779 50.825C85.4053 49.1359 89.6281 51.1188 86.5436 52.6977C83.4592 54.3134 79.1631 57.7283 70.277 58.6095L67.6699 58.8298" stroke="black" stroke-width="0.550789" stroke-miterlimit="10" stroke-linecap="round" stroke-linejoin="round"/>
<path d="M93.7041 96.9434C94.8791 103.7 96.2377 113.137 96.7151 118.902" stroke="#3E88F6" stroke-width="1.10158" stroke-miterlimit="10" stroke-linecap="round" stroke-linejoin="round"/>
<path d="M83.2019 98.0078C82.0636 102.047 83.8262 121.178 84.2668 124.042" stroke="#3E88F6" stroke-width="1.10158" stroke-miterlimit="10" stroke-linecap="round" stroke-linejoin="round"/>
<path d="M83.2018 99.1477C83.8304 99.1477 84.3401 98.638 84.3401 98.0094C84.3401 97.3807 83.8304 96.8711 83.2018 96.8711C82.5731 96.8711 82.0635 97.3807 82.0635 98.0094C82.0635 98.638 82.5731 99.1477 83.2018 99.1477Z" fill="#3E88F6"/>
<path d="M93.7037 98.0813C94.3324 98.0813 94.842 97.5717 94.842 96.943C94.842 96.3143 94.3324 95.8047 93.7037 95.8047C93.0751 95.8047 92.5654 96.3143 92.5654 96.943C92.5654 97.5717 93.0751 98.0813 93.7037 98.0813Z" fill="#3E88F6"/>
<path d="M60.6934 143.429C70.4607 152.095 110.264 152.131 122.676 141.52" stroke="#3E88F6" stroke-width="1.10158" stroke-miterlimit="10" stroke-linecap="round" stroke-linejoin="round"/>
<path d="M60.9502 146.331C70.7175 154.997 110.521 155.034 122.932 144.422" stroke="#3E88F6" stroke-width="1.10158" stroke-miterlimit="10" stroke-linecap="round" stroke-linejoin="round"/>
</g>
</svg>
