<svg width="700" height="343" viewBox="0 0 700 343" fill="none" xmlns="http://www.w3.org/2000/svg">
<path d="M60.62 320.449C75.58 320.449 81.48 315.729 81.48 306.279C81.48 297.619 74.79 291.719 60.03 291.719H26.77V320.459H60.62V320.449ZM26.77 247.229V271.239H61.02C72.83 271.239 76.96 265.729 76.96 259.429C76.96 252.739 71.64 247.229 59.05 247.229H26.77ZM2.36 342.879C1.18 342.879 0 341.699 0 340.519V227.149C0 225.969 1.18 224.789 2.36 224.789H62.79C89.56 224.789 103.73 238.959 103.73 257.269C103.73 266.709 99.99 274.189 93.5 279.509V279.899C102.75 285.799 108.26 295.249 108.26 307.459C108.26 330.099 91.73 342.889 63.38 342.889H2.36V342.879Z" fill="#2D3242"/>
<path d="M169.92 340.519C169.92 341.699 168.74 342.879 167.56 342.879H145.52C144.34 342.879 143.16 341.699 143.16 340.519V227.149C143.16 225.969 144.34 224.789 145.52 224.789H167.56C168.74 224.789 169.92 225.969 169.92 227.149V340.519Z" fill="#2D3242"/>
<path d="M240.26 247.229V284.629H268.8C283.56 284.629 293.01 277.739 293.01 266.129C293.01 254.519 283.56 247.239 268.8 247.239H240.26V247.229ZM213.49 227.149C213.49 225.969 214.67 224.789 215.85 224.789H270.57C299.31 224.789 319.77 240.339 319.77 266.119C319.77 284.029 308.94 296.039 293.2 301.549V301.939C293.2 301.939 296.74 305.679 299.5 309.819L319.38 338.949C320.37 340.329 320.56 341.119 320.56 341.509C320.56 342.299 320.17 342.889 318.99 342.889H292.81C291.83 342.889 290.45 342.099 289.66 340.919L265.65 305.889H240.26V340.529C240.26 341.709 239.08 342.889 237.9 342.889H215.86C214.68 342.889 213.5 341.709 213.5 340.529V227.149H213.49Z" fill="#2D3242"/>
<path d="M384.2 247.229V320.449H409.98C434.98 320.449 448.17 306.279 448.17 283.839C448.17 261.399 432.03 247.229 409.59 247.229H384.2ZM359.8 342.879C358.62 342.879 357.44 341.699 357.44 340.519V227.149C357.44 225.969 358.62 224.789 359.8 224.789H409.59C446.99 224.789 474.94 247.819 474.94 283.839C474.94 319.459 451.32 342.889 409.99 342.889H359.8V342.879Z" fill="#2D3242"/>
<path d="M535.44 301.549H574.41L563.78 279.699C559.65 271.229 555.51 258.639 555.51 258.639H554.33C554.33 258.639 550.19 271.239 546.06 279.699L535.44 301.549ZM583.46 322.419H525.99L517.53 340.329C516.35 342.689 515.76 342.889 513.4 342.889H489.98C488.8 342.889 488.41 342.099 488.41 341.509C488.41 340.919 488.8 339.939 489.2 339.149L544.7 224.789H565.17L620.68 339.149C621.07 339.939 621.47 340.919 621.47 341.509C621.47 342.099 621.07 342.889 619.9 342.889H596.48C594.12 342.889 593.53 342.689 592.34 340.329L583.46 322.419Z" fill="#2D3242"/>
<path d="M435.77 215.62C438.57 213.84 441.19 212.23 443.77 210.55C460.36 199.76 475.56 187.22 489.87 173.59C491.86 171.7 493.79 169.73 495.93 168C497.28 166.91 497.4 165.85 496.85 164.37C496.36 163.05 496.17 161.63 495.68 160.32C495.4 159.55 494.9 158.8 494.32 158.21C493.21 157.08 491.98 156.06 490.8 155.01C490.6 154.83 490.38 154.62 490.13 154.56C486.53 153.59 483.57 151.7 481.04 148.92C479.79 147.54 477.91 146.73 476.36 145.6C475.64 145.07 474.98 144.43 474.37 143.77C473.99 143.37 473.83 142.76 473.44 142.38C471.64 140.63 469.73 138.99 467.98 137.19C467.45 136.65 467.3 135.75 466.85 134.74C463.57 134.41 460.94 132.8 459.78 129.18C459.61 128.65 458.66 128.23 457.99 128.04C455.35 127.28 452.85 126.46 452.08 123.32C451.97 122.87 451.32 122.56 450.92 122.18C450.21 121.51 449.01 120.93 448.87 120.16C448.47 117.96 446.93 117.48 445.2 117.13C442.31 116.56 441.18 114.48 440.73 111.91C440.5 110.61 439.94 109.98 438.75 109.31C436.75 108.18 434.26 106.9 433.4 105.03C432.24 102.5 430.07 101.26 428.51 99.32C428.38 99.15 428.14 98.98 428.14 98.81C428.13 95.8 425.51 95.32 423.6 94.27C421.11 92.9 419.84 90.8 419.07 88.2C418.89 87.57 418.36 86.79 417.79 86.57C414.39 85.23 411.46 83.02 410.7 79.57C410 76.43 407.63 75.56 405.74 73.92C404.52 72.86 403.2 71.9 402.06 70.76C401.5 70.2 400.92 69.35 400.92 68.62C400.9 66.74 399.9 65.7 398.48 64.75C396.84 63.65 395.31 62.4 393.69 61.27C391.29 59.59 389.96 57.39 389.96 54.4C389.96 54.01 389.43 53.5 389.02 53.23C387.03 51.9 384.78 50.87 383.05 49.27C380.86 47.25 379.08 44.77 377.14 42.49C377.05 42.39 376.94 42.23 376.96 42.12C377.33 39.37 375.02 38.88 373.36 37.92C369.01 35.38 364.98 32.45 361.84 28.45C360.97 27.34 360.32 26.06 359.9 24.43C371.95 30.67 384.51 35.26 397.34 39.38C383.58 32.42 370.22 25.03 363.07 10.47C363.29 10.21 363.51 9.94 363.73 9.68C366.75 12.4 369.62 15.32 372.85 17.77C376.26 20.36 379.95 22.62 383.66 24.77C387.31 26.88 391.12 28.72 394.89 30.61C398.62 32.48 402.4 34.26 406.16 36.07C406.28 35.84 406.4 35.61 406.52 35.38C405.54 34.77 404.56 34.17 403.59 33.56C394.57 27.86 386.63 21.02 380.32 12.33C377.92 9.03 376.81 5.32 375.97 1.45C375.91 1.18 375.92 0.890001 375.94 0.610001C375.95 0.500001 376.08 0.4 376.36 0C381.15 7.18 385.65 14.38 392.85 19.46C399.79 24.35 406.37 29.74 413.79 33.58C410.26 29.91 406.5 26.28 403.08 22.36C399.08 17.77 395.59 12.79 394.74 6.51C394.49 4.62 394.51 2.7 394.61 0.779999C396.39 9.37 401.72 15.68 407.67 21.52C414.26 28 421.11 34.19 429.66 38.1C430.34 38.41 431.05 38.68 431.91 38.8C423.75 30.88 415.42 23.12 414.18 11.01C414.37 10.87 414.57 10.74 414.76 10.61C415.04 10.93 415.4 11.21 415.58 11.58C422.59 25.83 431.68 38.16 446.3 45.56C449.04 46.95 451.57 48.77 454.22 50.34C454.74 50.65 455.41 50.71 456 50.91C456.73 51.15 457.54 51.26 458.17 51.67C465.27 56.21 472.36 60.75 479.4 65.38C484.88 68.98 489.58 73.38 494.15 78.19C504.42 89.01 515.38 99.18 526.2 109.48C530.05 113.15 534.51 114.14 539.83 112.1C545.02 110.11 550.55 109.09 556.19 110.29C558.42 110.76 559.86 111.94 560.24 114.48C560.74 117.86 561.51 121.23 562.49 124.5C562.79 125.51 564.06 126.68 565.09 126.93C568.28 127.7 571.57 128.49 574.82 128.5C584.67 128.54 594.53 128.27 604.39 128C607.34 127.92 610.32 127.67 613.22 127.13C619.83 125.89 626.25 127.44 632.75 128.05C637.44 128.49 642.17 128.65 646.88 128.9C648.94 129.01 650.76 129.67 652.72 130.34C656.59 131.67 660.79 132.22 664.89 132.61C667.8 132.88 670.8 132.46 673.74 132.17C679.03 131.64 682.35 128.04 685.51 124.29C686.28 123.38 686.72 122.19 687.53 121.33C688.12 120.71 689.06 120.41 689.85 119.97C689.83 120.81 690.06 121.76 689.74 122.46C686.73 129.1 681.58 133.06 674.39 134.35C673.36 134.54 672.32 134.69 671.25 135.33C673.35 135.51 675.55 136.18 677.53 135.77C681.21 135.01 685.17 134.24 688.24 132.28C690.53 130.83 691.69 127.53 693.2 124.96C694.01 123.58 694.31 121.9 695.14 120.54C695.58 119.83 696.68 119.53 697.48 119.05C697.79 119.9 698.4 120.78 698.35 121.61C698.03 127.69 693.41 133.68 687.47 135.66C684.3 136.71 681.05 137.51 677.84 138.43C677.81 138.62 677.79 138.8 677.76 138.99C680.57 139.3 683.36 139.72 686.18 139.87C689.02 140.03 691.88 139.91 694.39 139.91C689.83 142.32 684.38 143.03 678.87 143.71C685.7 146.45 692.61 148.04 699.99 146.91C692.66 150.28 685.21 152.27 677.09 149.59C683.13 153.19 689.49 155.77 696.74 157.53C695.94 158.02 695.64 158.35 695.32 158.39C690.64 158.87 685.95 159.29 681.27 159.78C680.39 159.87 679.45 159.97 678.69 160.37C674.46 162.58 669.98 163.57 665.23 163.19C663.9 163.08 662.88 163.27 661.8 164.21C659.08 166.57 655.84 167.19 652.29 166.66C651.26 166.5 650.14 166.74 649.09 166.94C646.35 167.47 643.64 168.08 640.91 168.66C639.89 168.87 638.82 168.95 637.86 169.3C634.55 170.53 631.3 171.94 627.64 170.66C627.31 170.54 626.65 170.8 626.39 171.1C624.13 173.62 621.36 173.91 618.27 173.18C617.8 173.07 616.97 173.16 616.78 173.45C615.67 175.21 614.06 175.72 612.13 175.64C609.65 175.53 607.74 176.93 605.77 178.11C603.78 179.31 601.91 179.51 599.84 178.24C599.3 177.91 598.22 178 597.61 178.31C595.07 179.62 592.67 180.21 590.1 178.33C589.67 178.01 588.51 178.31 587.9 178.68C584.81 180.52 581.14 181.04 578.12 180.12C575.2 179.24 572.66 179.31 569.87 179.65C569.24 179.73 568.2 179.58 567.95 179.16C567.03 177.67 565.8 178.06 564.47 178.13C563.26 178.19 562.04 177.88 560.82 177.72C560.55 177.68 560.28 177.51 560.02 177.52C555.74 177.63 551.46 177.86 547.17 177.83C545.1 177.82 543.02 177.38 540.96 177.02C538.48 176.58 536.05 175.83 533.56 175.58C530.88 175.31 528.58 177.21 527.78 179.93C524.09 192.41 520.37 204.89 516.75 217.39C514.78 224.21 512.69 231.03 511.22 237.96C510.28 242.39 510.28 247.03 510 251.58C509.85 253.98 509.15 254.63 506.81 253.83C502.48 252.34 500.28 249.24 499.89 244.7C499.81 243.77 499.28 242.69 498.6 242.04C496.85 240.33 496.88 238.14 496.46 236.01C496.28 235.1 495.56 234.31 495.14 233.43C494.31 231.7 493.27 230.03 492.77 228.2C492.25 226.29 491.97 224.53 490.06 223.3C488.97 222.59 488.14 221.19 487.63 219.93C486.95 218.25 485.81 217.72 484.18 217.41C481.61 216.92 479.11 216.03 476.54 215.62C472.71 215.01 468.89 215.11 465.09 216.27C463.02 216.9 460.92 216.39 459.21 214.77C458.83 214.41 457.96 214.28 457.41 214.42C454.5 215.12 451.75 216.18 448.55 215.84C446.63 215.64 444.57 217.03 442.53 217.46C440.23 217.9 437.92 217.83 435.77 215.62Z" fill="#1F87FE"/>
</svg>
