<svg width="21" height="21" viewBox="0 0 21 21" fill="none" xmlns="http://www.w3.org/2000/svg">
<path d="M20.2166 7.92901C20.1537 7.74388 20.038 7.58121 19.8838 7.46107C19.7295 7.34094 19.5434 7.26861 19.3486 7.25301L13.6476 6.80001L11.1806 1.33901C11.102 1.16313 10.9742 1.01374 10.8126 0.908872C10.651 0.804008 10.4625 0.748153 10.2699 0.748047C10.0772 0.747941 9.88869 0.80359 9.72698 0.908276C9.56527 1.01296 9.43732 1.16221 9.35856 1.33801L6.89156 6.80001L1.19056 7.25301C0.999013 7.26819 0.815896 7.33822 0.663113 7.45475C0.510329 7.57127 0.39435 7.72934 0.329051 7.91004C0.263751 8.09075 0.251895 8.28645 0.294902 8.47372C0.33791 8.66099 0.433958 8.8319 0.571558 8.96601L4.78456 13.073L3.29456 19.525C3.24931 19.7203 3.26382 19.9247 3.33618 20.1117C3.40854 20.2986 3.53542 20.4595 3.70036 20.5735C3.8653 20.6874 4.06068 20.7491 4.26114 20.7507C4.46161 20.7522 4.6579 20.6934 4.82456 20.582L10.2696 16.952L15.7146 20.582C15.8849 20.6951 16.0858 20.7533 16.2902 20.7488C16.4946 20.7444 16.6927 20.6774 16.858 20.5569C17.0232 20.4365 17.1475 20.2683 17.2143 20.0751C17.2811 19.8818 17.2871 19.6728 17.2316 19.476L15.4026 13.076L19.9386 8.99401C20.2356 8.72601 20.3446 8.30801 20.2166 7.92901Z" fill="#FFC463"/>
</svg>
